<svg width="48" height="48" viewBox="0 0 48 48" fill="none" xmlns="http://www.w3.org/2000/svg">
<circle cx="24" cy="24" r="24" fill="#F6B852"/>
<path d="M30 19V21H28V23H30V25V27H32V25V23V21V19H30Z" fill="#40586B"/>
<path d="M24 25V27V29H26V27V25H24Z" fill="#0E273B"/>
<path d="M20 27V29H18V31H20H22V29V27H20Z" fill="#E6675D"/>
<path d="M18 25V27V29H20V27V25H18Z" fill="#0E273B"/>
<path d="M29.9543 27.0537V23H16V36.9927H17.997V38.9951H24.0122V43H28.0061V38.9951H30.003V32.9878H32V26.9805H30.003L29.9543 27.0537ZM25.9604 25.0513V29.0562H24.0122V25.0513H26.0092H25.9604ZM17.9726 29.0562V25.0513H19.9696V27.0537H21.9665V31.0586H17.9726V29.0562Z" fill="#E78906"/>
<path d="M32 9H30V11H32V9Z" fill="#0E273B"/>
<path d="M28 11V9.00002V7H26V9.00002H24H22H20V11H18V13H16V15H14V17V19V21H12V23H14V25H16V23H18H20H22H24H26H28V21H30V19H32V17V15V13H30V11H28Z" fill="#0E273B"/>
<path d="M26 5H24V7H26V5Z" fill="#0E273B"/>
<path d="M14 25H12V27H14V25Z" fill="#0E273B"/>
<path d="M12 19H10V21H12V19Z" fill="#0E273B"/>
</svg>
