<svg width="109" height="188" viewBox="0 0 109 188" fill="none" xmlns="http://www.w3.org/2000/svg">
<path d="M98.7599 69.13V79.01H88.8899V88.89H98.7599V98.76V108.64H108.64V98.76V88.89V79.01V69.13H98.7599Z" fill="#9F6631"/>
<path d="M69.1299 98.76V108.64V118.52H79.0099V108.64V98.76H69.1299Z" fill="#0E273B"/>
<path d="M49.38 108.64V118.52H39.5V128.39H49.38H59.26V118.52V108.64H49.38Z" fill="#E6675D"/>
<path d="M39.5 98.76V108.64V118.52H49.38V108.64V98.76H39.5Z" fill="#0E273B"/>
<path d="M98.7599 108.61V88.89H29.6299V158.02H39.4999V167.9H69.1299V187.61H88.9099V167.9H98.7799V138.27H108.66V108.61H98.7799H98.7599ZM79.0099 98.73V118.49H69.1299V98.76H79.0099V98.73ZM39.4999 118.49V98.76H49.3799V108.61H59.2599V128.36H39.4999V118.49Z" fill="#E78906"/>
<path d="M108.64 19.75H98.76V29.63H108.64V19.75Z" fill="#824003"/>
<path d="M88.8898 29.63V19.75V9.87H79.0099V19.75H69.1299H59.2599H49.3799V29.63H39.4999V39.5H29.6299V49.38H19.7499V59.26V69.13V79.01H9.86987V88.89H19.7499V98.76H29.6299V88.89H39.4999H49.3799H59.2599H69.1299H79.0099H88.8898V79.01H98.7599V69.13H108.64V59.26V49.38V39.5H98.7599V29.63H88.8898Z" fill="#824003"/>
<path d="M79.0099 0H69.1299V9.87H79.0099V0Z" fill="#824003"/>
<path d="M19.7499 98.76H9.86987V108.64H19.7499V98.76Z" fill="#824003"/>
<path d="M9.87003 69.13H0V79.01H9.87003V69.13Z" fill="#824003"/>
</svg>
