<svg width="271" height="600" viewBox="0 0 271 600" fill="none" xmlns="http://www.w3.org/2000/svg">
<path d="M261.02 590.07V580.2H251.14H241.27H231.39V590.07V599.95H241.27H251.14H261.02H270.9V590.07H261.02Z" fill="#E54C34"/>
<path d="M231.39 422.17H221.51V432.05V441.92H231.39V451.8H241.27V441.92V432.05V422.17H231.39Z" fill="#E78906"/>
<path d="M231.39 303.65V293.78H221.51H211.64V303.65H221.51V313.53V323.41V333.28V343.16V353.04V362.91V372.79V382.66V392.54V402.42V412.29V422.17H231.39H241.27V412.29V402.42V392.54V382.66V372.79V362.91V353.04V343.16V333.28V323.41V313.53V303.65H231.39Z" fill="#8C5BA4"/>
<path d="M201.76 185.13V195.01H191.89V204.89H201.76V214.76V224.64H211.64V214.76V204.89V195.01V185.13H201.76Z" fill="#9F6631"/>
<path d="M172.13 214.76V224.64V234.52H182.01V224.64V214.76H172.13Z" fill="#0E273B"/>
<path d="M241.27 570.32V560.44V550.57V540.69V530.81H231.39V520.94H221.51V530.81V540.69V550.57V560.44H231.39V570.32V580.2H241.27H251.14V570.32H241.27Z" fill="#ECA138"/>
<path d="M162.26 520.94V530.81V540.69V550.57V560.44V570.32V580.2H172.13H182.01V570.32V560.44V550.57V540.69V530.81V520.94H172.13H162.26Z" fill="#ECA138"/>
<path d="M221.51 461.68V451.8H211.64V441.92V432.05V422.17H201.76H191.89V432.05V441.92V451.8H201.76V461.68V471.55V481.43H211.64V491.31V501.18V511.06V520.94H221.51H231.39V511.06V501.18V491.31V481.43V471.55V461.68H221.51Z" fill="#BF2717"/>
<path d="M152.38 422.17V432.05V441.92V451.8V461.68V471.55V481.43V491.31V501.18V511.06V520.94H162.26H172.13V511.06V501.18V491.31V481.43V471.55V461.68V451.8V441.92V432.05V422.17H162.26H152.38Z" fill="#BF2717"/>
<path d="M211.64 303.65V293.78H201.76H191.89V303.65H182.01H172.13V293.78H162.26H152.38V303.65V313.53V323.41V333.28V343.16V353.04V362.91V372.79V382.66V392.54V402.42V412.29V422.17H162.26H172.13H182.01H191.89H201.76H211.64H221.51V412.29V402.42V392.54V382.66V372.79V362.91V353.04V343.16V333.28V323.41V313.53V303.65H211.64Z" fill="#CEB3D5"/>
<path d="M172.13 580.2H162.26H152.38V590.07H142.5V599.95H152.38H162.26H172.13H182.01V590.07V580.2H172.13Z" fill="#E54C34"/>
<path d="M152.38 224.64V234.52H142.5V244.39H152.38H162.26V234.52V224.64H152.38Z" fill="#E6675D"/>
<path d="M142.5 214.76V224.64V234.52H152.38V224.64V214.76H142.5Z" fill="#0E273B"/>
<path d="M142.5 422.17V412.29H132.63V422.17V432.05V441.92V451.8H142.5V441.92H152.38V432.05V422.17H142.5Z" fill="#E78906"/>
<path d="M142.5 303.65V313.53V323.41V333.28V343.16V353.04V362.91V372.79V382.66V392.54H132.63V402.42V412.29H142.5V422.17H152.38V412.29V402.42V392.54V382.66V372.79V362.91V353.04V343.16V333.28V323.41V313.53V303.65H142.5Z" fill="#8C5BA4"/>
<path d="M201.76 224.61V204.89H132.63V274.02H142.5V283.9H172.13V303.61H191.91V283.9H201.78V254.27H211.66V224.61H201.78H201.76ZM182.01 214.73V234.49H172.13V214.76H182.01V214.73ZM142.5 234.49V214.76H152.38V224.61H162.26V244.36H142.5V234.49Z" fill="#E78906"/>
<path d="M211.64 135.75H201.76V145.63H211.64V135.75Z" fill="#824003"/>
<path d="M191.89 145.63V135.75V125.87H182.01V135.75H172.13H162.26H152.38V145.63H142.5V155.5H132.63V165.38H122.75V175.26V185.13V195.01H112.87V204.89H122.75V214.76H132.63V204.89H142.5H152.38H162.26H172.13H182.01H191.89V195.01H201.76V185.13H211.64V175.26V165.38V155.5H201.76V145.63H191.89Z" fill="#824003"/>
<path d="M182.01 116H172.13V125.87H182.01V116Z" fill="#824003"/>
<path d="M122.75 214.76H112.87V224.64H122.75V214.76Z" fill="#824003"/>
<path d="M112.87 185.13H103V195.01H112.87V185.13Z" fill="#824003"/>
<g clip-path="url(#clip0)">
<path d="M182 97.999H174.998V105.001H182V97.999Z" fill="#AEADAE"/>
<path d="M182 90.9966H174.998V97.999H182V90.9966Z" fill="#AEADAE"/>
<path d="M182 84.0012H174.998V90.9966H182V84.0012Z" fill="#AEADAE"/>
<path d="M182 76.9988H174.998V84.0012H182V76.9988Z" fill="#AEADAE"/>
<path d="M182 69.9963H174.998V76.9988H182V69.9963Z" fill="#AEADAE"/>
<path d="M182 63.001H174.998V69.9964H182V63.001Z" fill="#AEADAE"/>
<path d="M182 55.9984H174.998V63.0009H182V55.9984Z" fill="#AEADAE"/>
<path d="M182 48.996H174.998V55.9984H182V48.996Z" fill="#AEADAE"/>
<path d="M182 42.0006H174.998V48.996H182V42.0006Z" fill="#AEADAE"/>
<path d="M174.998 105.002H167.995V111.997H174.998V105.002Z" fill="#AEADAE"/>
<path d="M174.998 97.999H167.995V105.001H174.998V97.999Z" fill="#AEADAE"/>
<path d="M174.998 90.9966H167.995V97.999H174.998V90.9966Z" fill="#343334"/>
<path d="M174.998 84.0012H167.995V90.9966H174.998V84.0012Z" fill="#343334"/>
<path d="M174.998 76.9988H167.995V84.0012H174.998V76.9988Z" fill="#343334"/>
<path d="M174.998 69.9963H167.995V76.9988H174.998V69.9963Z" fill="#343334"/>
<path d="M174.998 63.001H167.995V69.9964H174.998V63.001Z" fill="#343334"/>
<path d="M174.998 55.9984H167.995V63.0009H174.998V55.9984Z" fill="#343334"/>
<path d="M174.998 48.996H167.995V55.9984H174.998V48.996Z" fill="#343334"/>
<path d="M174.998 42.0006H167.995V48.996H174.998V42.0006Z" fill="#343334"/>
<path d="M174.998 34.9982H167.995V42.0006H174.998V34.9982Z" fill="#343334"/>
<path d="M174.998 28.0028H167.995V34.9982H174.998V28.0028Z" fill="#AEADAE"/>
<path d="M167.995 111.997H161V118.999H167.995V111.997Z" fill="#AEADAE"/>
<path d="M167.995 105.002H161V111.997H167.995V105.002Z" fill="#343334"/>
<path d="M167.995 97.999H161V105.001H167.995V97.999Z" fill="#343334"/>
<path d="M167.995 28.0028H161V34.9982H167.995V28.0028Z" fill="#343334"/>
<path d="M167.995 21.0004H161V28.0028H167.995V21.0004Z" fill="#343334"/>
<path d="M167.995 13.9978H161V21.0003H167.995V13.9978Z" fill="#AEADAE"/>
<path d="M161 118.999H153.997V126.002H161V118.999Z" fill="#AEADAE"/>
<path d="M161 111.997H153.997V118.999H161V111.997Z" fill="#343334"/>
<path d="M161 13.9978H153.997V21.0003H161V13.9978Z" fill="#343334"/>
<path d="M153.997 126.002H146.995V132.997H153.997V126.002Z" fill="#AEADAE"/>
<path d="M153.997 118.999H146.995V126.002H153.997V118.999Z" fill="#343334"/>
<path d="M153.997 7.00244H146.995V13.9978H153.997V7.00244Z" fill="#343334"/>
<path d="M146.995 153.998H140V161H146.995V153.998Z" fill="#AEADAE"/>
<path d="M146.995 147.002H140V153.998H146.995V147.002Z" fill="#AEADAE"/>
<path d="M146.995 140H140V147.002H146.995V140Z" fill="#AEADAE"/>
<path d="M146.995 132.997H140V140H146.995V132.997Z" fill="#AEADAE"/>
<path d="M146.995 126.002H140V132.997H146.995V126.002Z" fill="#AEADAE"/>
<path d="M146.995 118.999H140V126.002H146.995V118.999Z" fill="#343334"/>
<path d="M146.995 7.00244H140V13.9978H146.995V7.00244Z" fill="#343334"/>
<path d="M146.995 0H140V7.00247H146.995V0Z" fill="#AEADAE"/>
<path d="M140 153.998H132.997V161H140V153.998Z" fill="#343334"/>
<path d="M140 147.002H132.997V153.998H140V147.002Z" fill="#343334"/>
<path d="M140 140H132.997V147.002H140V140Z" fill="#343334"/>
<path d="M140 132.997H132.997V140H140V132.997Z" fill="#343334"/>
<path d="M140 126.002H132.997V132.997H140V126.002Z" fill="#343334"/>
<path d="M140 0H132.997V7.00247H140V0Z" fill="#343334"/>
<path d="M132.997 147.002H125.995V153.998H132.997V147.002Z" fill="#343334"/>
<path d="M132.997 0H125.995V7.00247H132.997V0Z" fill="#343334"/>
<path d="M125.995 140H118.999V147.002H125.995V140Z" fill="#343334"/>
<path d="M125.995 0H118.999V7.00247H125.995V0Z" fill="#343334"/>
<path d="M118.999 132.997H111.997V140H118.999V132.997Z" fill="#343334"/>
<path d="M118.999 0H111.997V7.00247H118.999V0Z" fill="#343334"/>
<path d="M111.997 132.997H104.994V140H111.997V132.997Z" fill="#AEADAE"/>
<path d="M111.997 126.002H104.994V132.997H111.997V126.002Z" fill="#343334"/>
<path d="M111.997 0H104.994V7.00247H111.997V0Z" fill="#343334"/>
<path d="M104.994 132.997H97.999V140H104.994V132.997Z" fill="#AEADAE"/>
<path d="M104.994 126.002H97.999V132.997H104.994V126.002Z" fill="#343334"/>
<path d="M104.994 0H97.999V7.00247H104.994V0Z" fill="#343334"/>
<path d="M97.999 132.997H90.9966V140H97.999V132.997Z" fill="#AEADAE"/>
<path d="M97.999 126.002H90.9966V132.997H97.999V126.002Z" fill="#343334"/>
<path d="M97.999 0H90.9966V7.00247H97.999V0Z" fill="#343334"/>
<path d="M90.9964 132.997H83.9939V140H90.9964V132.997Z" fill="#AEADAE"/>
<path d="M90.9964 126.002H83.9939V132.997H90.9964V126.002Z" fill="#343334"/>
<path d="M90.9964 0H83.9939V7.00247H90.9964V0Z" fill="#343334"/>
<path d="M83.9941 132.997H76.9988V140H83.9941V132.997Z" fill="#AEADAE"/>
<path d="M83.9941 126.002H76.9988V132.997H83.9941V126.002Z" fill="#343334"/>
<path d="M83.9941 0H76.9988V7.00247H83.9941V0Z" fill="#343334"/>
<path d="M76.9985 132.997H69.9961V140H76.9985V132.997Z" fill="#AEADAE"/>
<path d="M76.9985 126.002H69.9961V132.997H76.9985V126.002Z" fill="#343334"/>
<path d="M76.9985 0H69.9961V7.00247H76.9985V0Z" fill="#343334"/>
<path d="M69.9961 132.997H62.9937V140H69.9961V132.997Z" fill="#AEADAE"/>
<path d="M69.9961 126.002H62.9937V132.997H69.9961V126.002Z" fill="#343334"/>
<path d="M69.9961 0H62.9937V7.00247H69.9961V0Z" fill="#343334"/>
<path d="M62.9937 132.997H55.9983V140H62.9937V132.997Z" fill="#AEADAE"/>
<path d="M62.9937 126.002H55.9983V132.997H62.9937V126.002Z" fill="#343334"/>
<path d="M62.9937 0H55.9983V7.00247H62.9937V0Z" fill="#343334"/>
<path d="M55.9983 132.997H48.9958V140H55.9983V132.997Z" fill="#AEADAE"/>
<path d="M55.9983 126.002H48.9958V132.997H55.9983V126.002Z" fill="#343334"/>
<path d="M55.9983 0H48.9958V7.00247H55.9983V0Z" fill="#343334"/>
<path d="M48.9959 132.997H41.9934V140H48.9959V132.997Z" fill="#AEADAE"/>
<path d="M48.9959 126.002H41.9934V132.997H48.9959V126.002Z" fill="#343334"/>
<path d="M48.9959 0H41.9934V7.00247H48.9959V0Z" fill="#343334"/>
<path d="M41.9934 126.002H34.998V132.997H41.9934V126.002Z" fill="#343334"/>
<path d="M41.9934 0H34.998V7.00247H41.9934V0Z" fill="#343334"/>
<path d="M34.9981 126.002H27.9956V132.997H34.9981V126.002Z" fill="#AEADAE"/>
<path d="M34.9981 118.999H27.9956V126.002H34.9981V118.999Z" fill="#343334"/>
<path d="M34.9981 7.00244H27.9956V13.9978H34.9981V7.00244Z" fill="#343334"/>
<path d="M27.9956 118.999H21.0002V126.002H27.9956V118.999Z" fill="#343334"/>
<path d="M27.9956 7.00244H21.0002V13.9978H27.9956V7.00244Z" fill="#343334"/>
<path d="M21.0003 111.997H13.9978V118.999H21.0003V111.997Z" fill="#343334"/>
<path d="M21.0003 13.9978H13.9978V21.0003H21.0003V13.9978Z" fill="#343334"/>
<path d="M13.9978 105.002H6.99536V111.997H13.9978V105.002Z" fill="#343334"/>
<path d="M13.9978 97.999H6.99536V105.001H13.9978V97.999Z" fill="#343334"/>
<path d="M13.9978 28.0028H6.99536V34.9982H13.9978V28.0028Z" fill="#343334"/>
<path d="M13.9978 21.0004H6.99536V28.0028H13.9978V21.0004Z" fill="#343334"/>
<path d="M6.99537 90.9966H0V97.999H6.99537V90.9966Z" fill="#343334"/>
<path d="M6.99537 84.0012H0V90.9966H6.99537V84.0012Z" fill="#343334"/>
<path d="M6.99537 76.9988H0V84.0012H6.99537V76.9988Z" fill="#343334"/>
<path d="M6.99537 69.9963H0V76.9988H6.99537V69.9963Z" fill="#343334"/>
<path d="M6.99537 63.001H0V69.9964H6.99537V63.001Z" fill="#343334"/>
<path d="M6.99537 55.9984H0V63.0009H6.99537V55.9984Z" fill="#343334"/>
<path d="M6.99537 48.996H0V55.9984H6.99537V48.996Z" fill="#343334"/>
<path d="M6.99537 42.0006H0V48.996H6.99537V42.0006Z" fill="#343334"/>
<path d="M6.99537 34.9982H0V42.0006H6.99537V34.9982Z" fill="#343334"/>
</g>
<path d="M99 25H37V60H99V25Z" fill="#E57654"/>
<path d="M60 28H38V63H60V28Z" fill="#E57654"/>
<path d="M80.005 24.5686H35.9268V40.8732H80.005V24.5686Z" fill="#E25F3F"/>
<path d="M103.803 24.5686H87.4988V40.8732H103.803V24.5686Z" fill="#E25F3F"/>
<path d="M59.7252 62.8097L103.803 62.8097V46.5051L59.7252 46.5051V62.8097Z" fill="#E25F3F"/>
<path d="M35.9264 62.8097H52.231V46.5051H35.9264V62.8097Z" fill="#E25F3F"/>
<path d="M78.0783 22H34V38.3046H78.0783V22Z" fill="#BF2717"/>
<path d="M101.877 22H85.5723V38.3046H101.877V22Z" fill="#BF2717"/>
<path d="M57.7987 60.241L101.877 60.241V43.9364L57.7987 43.9364V60.241Z" fill="#BF2717"/>
<path d="M34.0001 60.241H50.3047V43.9364H34.0001V60.241Z" fill="#BF2717"/>
<path d="M72.9409 27.1117H39.1373L34 22H78.0783L72.9409 27.1117Z" fill="#DE3205"/>
<path d="M96.7398 49.0543H62.9362L57.7988 43.9363H101.877L96.7398 49.0543Z" fill="#DE3205"/>
<path d="M96.7395 27.1117H90.7096L85.5723 22H101.877L96.7395 27.1117Z" fill="#DE3205"/>
<path d="M64.9207 68H38.0793L34 63H69L64.9207 68Z" fill="#DE3205"/>
<path d="M45.3728 49.0543H39.3429L34.2056 43.9363H50.5102L45.3728 49.0543Z" fill="#DE3205"/>
<path d="M118.763 68.8586H90.0958H77.6888L73.3901 76.8972V79.2292V84.9303H80.0531V92.9688H86.8718V100.712H93.6906V108.745H100.902V116.783H108.489V108.745H115.7V100.712H122.524V92.9688H129.343V84.9303H136V79.2292V76.8972L131.164 68.8586H118.763Z" fill="#D7CCBD"/>
<path d="M131.61 74.0331H69L73.2987 66H126.774L131.61 74.0331Z" fill="#A87EB7"/>
<path d="M124.952 82.0717H75.6575V90.1048H124.952V82.0717Z" fill="#8C5BA4"/>
<path d="M118.134 89.8147H82.4817V97.8478H118.134V89.8147Z" fill="#8C5BA4"/>
<path d="M111.31 97.8477H89.3005V105.881H111.31V97.8477Z" fill="#8C5BA4"/>
<path d="M104.098 97.8477H96.5112V105.881H104.098V97.8477Z" fill="#A87EB7"/>
<path d="M107.07 89.9597H93.54V97.9929H107.07V89.9597Z" fill="#A87EB7"/>
<path d="M111.847 81.9213H88.7632V89.9544H111.847V81.9213Z" fill="#A87EB7"/>
<path d="M104.098 105.881H96.5112V113.914H104.098V105.881Z" fill="#8C5BA4"/>
<path d="M131.61 74.0331H69V82.0662H131.61V74.0331Z" fill="#8C5BA4"/>
<path d="M118.134 74.0331H82.4817V82.0662H118.134V74.0331Z" fill="#A87EB7"/>
<path d="M118.134 74.0331H82.4817L85.7057 66H114.372L118.134 74.0331Z" fill="#CEB3D5"/>
<path d="M131.61 74.0331H69V76.3651H131.61V74.0331Z" fill="#CEB3D5"/>
<defs>
<clipPath id="clip0">
<rect width="182" height="161" fill="white"/>
</clipPath>
</defs>
</svg>
