<svg width="130" height="199" viewBox="0 0 130 199" fill="none" xmlns="http://www.w3.org/2000/svg">
<path d="M118.156 73.3267V83.8065H106.347V94.2863H118.156V104.756V115.235H129.976V104.756V94.2863V83.8065V73.3267H118.156Z" fill="#E54C34"/>
<path d="M82.7065 104.756V115.236V125.715H94.5269V115.236V104.756H82.7065Z" fill="#0E273B"/>
<path d="M59.0779 115.236V125.715H47.2576V136.185H59.0779H70.8983V125.715V115.236H59.0779Z" fill="#E6675D"/>
<path d="M47.2576 104.756V115.236V125.715H59.0779V115.236V104.756H47.2576Z" fill="#0E273B"/>
<path d="M118.156 115.204V94.2866H35.449V167.614H47.2574V178.093H82.7065V199H106.371V178.093H118.18V146.665H130V115.204H118.18H118.156ZM94.5269 104.724V125.684H82.7065V104.756H94.5269V104.724ZM47.2574 125.684V104.756H59.0777V115.204H70.8981V136.153H47.2574V125.684Z" fill="#E78906"/>
<path d="M129.976 20.949H118.156V31.4288H129.976V20.949Z" fill="#AC3927"/>
<path d="M106.347 31.4289V20.9491V10.4692H94.527V20.9491H82.7066H70.8982H59.0779V31.4289H47.2575V41.8981H35.4491V52.3779H23.6287V62.8577V73.3269V83.8067H11.8083V94.2866H23.6287V104.756H35.4491V94.2866H47.2575H59.0779H70.8982H82.7066H94.527H106.347V83.8067H118.156V73.3269H129.976V62.8577V52.3779V41.8981H118.156V31.4289H106.347Z" fill="#AC3927"/>
<path d="M94.5269 0H82.7065V10.4692H94.5269V0Z" fill="#AC3927"/>
<path d="M23.6287 104.756H11.8083V115.236H23.6287V104.756Z" fill="#AC3927"/>
<path d="M11.8084 73.3267H0V83.8065H11.8084V73.3267Z" fill="#AC3927"/>
</svg>
