<svg width="182" height="161" viewBox="0 0 182 161" fill="none" xmlns="http://www.w3.org/2000/svg">
<g clip-path="url(#clip0)">
<path d="M182 97.999H174.998V105.001H182V97.999Z" fill="#AEADAE"/>
<path d="M182 90.9966H174.998V97.999H182V90.9966Z" fill="#AEADAE"/>
<path d="M182 84.0012H174.998V90.9966H182V84.0012Z" fill="#AEADAE"/>
<path d="M182 76.9988H174.998V84.0012H182V76.9988Z" fill="#AEADAE"/>
<path d="M182 69.9963H174.998V76.9988H182V69.9963Z" fill="#AEADAE"/>
<path d="M182 63.001H174.998V69.9964H182V63.001Z" fill="#AEADAE"/>
<path d="M182 55.9984H174.998V63.0009H182V55.9984Z" fill="#AEADAE"/>
<path d="M182 48.996H174.998V55.9984H182V48.996Z" fill="#AEADAE"/>
<path d="M182 42.0006H174.998V48.996H182V42.0006Z" fill="#AEADAE"/>
<path d="M174.998 105.002H167.995V111.997H174.998V105.002Z" fill="#AEADAE"/>
<path d="M174.998 97.999H167.995V105.001H174.998V97.999Z" fill="#AEADAE"/>
<path d="M174.998 90.9966H167.995V97.999H174.998V90.9966Z" fill="#343334"/>
<path d="M174.998 84.0012H167.995V90.9966H174.998V84.0012Z" fill="#343334"/>
<path d="M174.998 76.9988H167.995V84.0012H174.998V76.9988Z" fill="#343334"/>
<path d="M174.998 69.9963H167.995V76.9988H174.998V69.9963Z" fill="#343334"/>
<path d="M174.998 63.001H167.995V69.9964H174.998V63.001Z" fill="#343334"/>
<path d="M174.998 55.9984H167.995V63.0009H174.998V55.9984Z" fill="#343334"/>
<path d="M174.998 48.996H167.995V55.9984H174.998V48.996Z" fill="#343334"/>
<path d="M174.998 42.0006H167.995V48.996H174.998V42.0006Z" fill="#343334"/>
<path d="M174.998 34.9982H167.995V42.0006H174.998V34.9982Z" fill="#343334"/>
<path d="M174.998 28.0028H167.995V34.9982H174.998V28.0028Z" fill="#AEADAE"/>
<path d="M167.995 111.997H161V118.999H167.995V111.997Z" fill="#AEADAE"/>
<path d="M167.995 105.002H161V111.997H167.995V105.002Z" fill="#343334"/>
<path d="M167.995 97.999H161V105.001H167.995V97.999Z" fill="#343334"/>
<path d="M167.995 28.0028H161V34.9982H167.995V28.0028Z" fill="#343334"/>
<path d="M167.995 21.0004H161V28.0028H167.995V21.0004Z" fill="#343334"/>
<path d="M167.995 13.9978H161V21.0003H167.995V13.9978Z" fill="#AEADAE"/>
<path d="M161 118.999H153.997V126.002H161V118.999Z" fill="#AEADAE"/>
<path d="M161 111.997H153.997V118.999H161V111.997Z" fill="#343334"/>
<path d="M161 13.9978H153.997V21.0003H161V13.9978Z" fill="#343334"/>
<path d="M153.997 126.002H146.995V132.997H153.997V126.002Z" fill="#AEADAE"/>
<path d="M153.997 118.999H146.995V126.002H153.997V118.999Z" fill="#343334"/>
<path d="M153.997 7.00244H146.995V13.9978H153.997V7.00244Z" fill="#343334"/>
<path d="M146.995 153.998H140V161H146.995V153.998Z" fill="#AEADAE"/>
<path d="M146.995 147.002H140V153.998H146.995V147.002Z" fill="#AEADAE"/>
<path d="M146.995 140H140V147.002H146.995V140Z" fill="#AEADAE"/>
<path d="M146.995 132.997H140V140H146.995V132.997Z" fill="#AEADAE"/>
<path d="M146.995 126.002H140V132.997H146.995V126.002Z" fill="#AEADAE"/>
<path d="M146.995 118.999H140V126.002H146.995V118.999Z" fill="#343334"/>
<path d="M146.995 7.00244H140V13.9978H146.995V7.00244Z" fill="#343334"/>
<path d="M146.995 0H140V7.00247H146.995V0Z" fill="#AEADAE"/>
<path d="M140 153.998H132.997V161H140V153.998Z" fill="#343334"/>
<path d="M140 147.002H132.997V153.998H140V147.002Z" fill="#343334"/>
<path d="M140 140H132.997V147.002H140V140Z" fill="#343334"/>
<path d="M140 132.997H132.997V140H140V132.997Z" fill="#343334"/>
<path d="M140 126.002H132.997V132.997H140V126.002Z" fill="#343334"/>
<path d="M140 0H132.997V7.00247H140V0Z" fill="#343334"/>
<path d="M132.997 147.002H125.995V153.998H132.997V147.002Z" fill="#343334"/>
<path d="M132.997 0H125.995V7.00247H132.997V0Z" fill="#343334"/>
<path d="M125.995 140H118.999V147.002H125.995V140Z" fill="#343334"/>
<path d="M125.995 0H118.999V7.00247H125.995V0Z" fill="#343334"/>
<path d="M118.999 132.997H111.997V140H118.999V132.997Z" fill="#343334"/>
<path d="M118.999 0H111.997V7.00247H118.999V0Z" fill="#343334"/>
<path d="M111.997 132.997H104.994V140H111.997V132.997Z" fill="#AEADAE"/>
<path d="M111.997 126.002H104.994V132.997H111.997V126.002Z" fill="#343334"/>
<path d="M111.997 0H104.994V7.00247H111.997V0Z" fill="#343334"/>
<path d="M104.994 132.997H97.999V140H104.994V132.997Z" fill="#AEADAE"/>
<path d="M104.994 126.002H97.999V132.997H104.994V126.002Z" fill="#343334"/>
<path d="M104.994 0H97.999V7.00247H104.994V0Z" fill="#343334"/>
<path d="M97.999 132.997H90.9966V140H97.999V132.997Z" fill="#AEADAE"/>
<path d="M97.999 126.002H90.9966V132.997H97.999V126.002Z" fill="#343334"/>
<path d="M97.999 0H90.9966V7.00247H97.999V0Z" fill="#343334"/>
<path d="M90.9964 132.997H83.9939V140H90.9964V132.997Z" fill="#AEADAE"/>
<path d="M90.9964 126.002H83.9939V132.997H90.9964V126.002Z" fill="#343334"/>
<path d="M90.9964 0H83.9939V7.00247H90.9964V0Z" fill="#343334"/>
<path d="M83.9941 132.997H76.9988V140H83.9941V132.997Z" fill="#AEADAE"/>
<path d="M83.9941 126.002H76.9988V132.997H83.9941V126.002Z" fill="#343334"/>
<path d="M83.9941 0H76.9988V7.00247H83.9941V0Z" fill="#343334"/>
<path d="M76.9985 132.997H69.9961V140H76.9985V132.997Z" fill="#AEADAE"/>
<path d="M76.9985 126.002H69.9961V132.997H76.9985V126.002Z" fill="#343334"/>
<path d="M76.9985 0H69.9961V7.00247H76.9985V0Z" fill="#343334"/>
<path d="M69.9961 132.997H62.9937V140H69.9961V132.997Z" fill="#AEADAE"/>
<path d="M69.9961 126.002H62.9937V132.997H69.9961V126.002Z" fill="#343334"/>
<path d="M69.9961 0H62.9937V7.00247H69.9961V0Z" fill="#343334"/>
<path d="M62.9937 132.997H55.9983V140H62.9937V132.997Z" fill="#AEADAE"/>
<path d="M62.9937 126.002H55.9983V132.997H62.9937V126.002Z" fill="#343334"/>
<path d="M62.9937 0H55.9983V7.00247H62.9937V0Z" fill="#343334"/>
<path d="M55.9983 132.997H48.9958V140H55.9983V132.997Z" fill="#AEADAE"/>
<path d="M55.9983 126.002H48.9958V132.997H55.9983V126.002Z" fill="#343334"/>
<path d="M55.9983 0H48.9958V7.00247H55.9983V0Z" fill="#343334"/>
<path d="M48.9959 132.997H41.9934V140H48.9959V132.997Z" fill="#AEADAE"/>
<path d="M48.9959 126.002H41.9934V132.997H48.9959V126.002Z" fill="#343334"/>
<path d="M48.9959 0H41.9934V7.00247H48.9959V0Z" fill="#343334"/>
<path d="M41.9934 126.002H34.998V132.997H41.9934V126.002Z" fill="#343334"/>
<path d="M41.9934 0H34.998V7.00247H41.9934V0Z" fill="#343334"/>
<path d="M34.9981 126.002H27.9956V132.997H34.9981V126.002Z" fill="#AEADAE"/>
<path d="M34.9981 118.999H27.9956V126.002H34.9981V118.999Z" fill="#343334"/>
<path d="M34.9981 7.00244H27.9956V13.9978H34.9981V7.00244Z" fill="#343334"/>
<path d="M27.9956 118.999H21.0002V126.002H27.9956V118.999Z" fill="#343334"/>
<path d="M27.9956 7.00244H21.0002V13.9978H27.9956V7.00244Z" fill="#343334"/>
<path d="M21.0003 111.997H13.9978V118.999H21.0003V111.997Z" fill="#343334"/>
<path d="M21.0003 13.9978H13.9978V21.0003H21.0003V13.9978Z" fill="#343334"/>
<path d="M13.9978 105.002H6.99536V111.997H13.9978V105.002Z" fill="#343334"/>
<path d="M13.9978 97.999H6.99536V105.001H13.9978V97.999Z" fill="#343334"/>
<path d="M13.9978 28.0028H6.99536V34.9982H13.9978V28.0028Z" fill="#343334"/>
<path d="M13.9978 21.0004H6.99536V28.0028H13.9978V21.0004Z" fill="#343334"/>
<path d="M6.99537 90.9966H0V97.999H6.99537V90.9966Z" fill="#343334"/>
<path d="M6.99537 84.0012H0V90.9966H6.99537V84.0012Z" fill="#343334"/>
<path d="M6.99537 76.9988H0V84.0012H6.99537V76.9988Z" fill="#343334"/>
<path d="M6.99537 69.9963H0V76.9988H6.99537V69.9963Z" fill="#343334"/>
<path d="M6.99537 63.001H0V69.9964H6.99537V63.001Z" fill="#343334"/>
<path d="M6.99537 55.9984H0V63.0009H6.99537V55.9984Z" fill="#343334"/>
<path d="M6.99537 48.996H0V55.9984H6.99537V48.996Z" fill="#343334"/>
<path d="M6.99537 42.0006H0V48.996H6.99537V42.0006Z" fill="#343334"/>
<path d="M6.99537 34.9982H0V42.0006H6.99537V34.9982Z" fill="#343334"/>
</g>
<path d="M122.124 44.4164H105.819V46.9208H98.3249V44.4164H54.2466V60.721H56.1731V63.2896H57.0721V66.3592H54.4585H54.2466V82.6638H56.1731V85.2324H57.0721V88.302H54.2466V104.607H98.3249V102.102H105.819V104.607H122.124V88.302H119.298V85.2324H124.05V68.9279H122.124V66.3592H119.298V63.2896H124.05V46.985H122.124V44.4164Z" fill="#D7CCBD"/>
<path d="M114.045 43.5044H51.8257V98.6793H114.045V43.5044Z" fill="#E57654"/>
<path d="M95.005 43.5686H50.9268V59.8732H95.005V43.5686Z" fill="#E25F3F"/>
<path d="M118.803 43.5686H102.499V59.8732H118.803V43.5686Z" fill="#E25F3F"/>
<path d="M74.7252 81.8097H118.803V65.5051H74.7252V81.8097Z" fill="#E25F3F"/>
<path d="M50.9264 81.8097H67.231V65.5051H50.9264V81.8097Z" fill="#E25F3F"/>
<path d="M93.0783 41H49V57.3046H93.0783V41Z" fill="#BF2717"/>
<path d="M116.877 41H100.572V57.3046H116.877V41Z" fill="#BF2717"/>
<path d="M93.0783 84.8792H49V101.184H93.0783V84.8792Z" fill="#BF2717"/>
<path d="M116.877 84.8792H100.572V101.184H116.877V84.8792Z" fill="#BF2717"/>
<path d="M72.7987 79.241H116.877V62.9364L72.7987 62.9364V79.241Z" fill="#BF2717"/>
<path d="M49.0001 79.241H65.3047V62.9364H49.0001V79.241Z" fill="#BF2717"/>
<path d="M87.9409 46.1117H54.1373L49 41H93.0783L87.9409 46.1117Z" fill="#DE3205"/>
<path d="M111.74 68.0543H77.9362L72.7988 62.9363H116.877L111.74 68.0543Z" fill="#DE3205"/>
<path d="M111.74 46.1117H105.71L100.572 41H116.877L111.74 46.1117Z" fill="#DE3205"/>
<path d="M87.9409 89.9972H54.1373L49 84.8792H93.0783L87.9409 89.9972Z" fill="#DE3205"/>
<path d="M111.74 89.9972H105.71L100.572 84.8792H116.877L111.74 89.9972Z" fill="#DE3205"/>
<path d="M60.3728 68.0543H54.3429L49.2056 62.9363H65.5102L60.3728 68.0543Z" fill="#DE3205"/>
<defs>
<clipPath id="clip0">
<rect width="182" height="161" fill="white"/>
</clipPath>
</defs>
</svg>
