<svg width="182" height="161" viewBox="0 0 182 161" fill="none" xmlns="http://www.w3.org/2000/svg">
<g clip-path="url(#clip0)">
<path d="M182 97.999H174.998V105.001H182V97.999Z" fill="#AEADAE"/>
<path d="M182 90.9966H174.998V97.999H182V90.9966Z" fill="#AEADAE"/>
<path d="M182 84.0012H174.998V90.9966H182V84.0012Z" fill="#AEADAE"/>
<path d="M182 76.9988H174.998V84.0012H182V76.9988Z" fill="#AEADAE"/>
<path d="M182 69.9963H174.998V76.9988H182V69.9963Z" fill="#AEADAE"/>
<path d="M182 63.001H174.998V69.9964H182V63.001Z" fill="#AEADAE"/>
<path d="M182 55.9984H174.998V63.0009H182V55.9984Z" fill="#AEADAE"/>
<path d="M182 48.996H174.998V55.9984H182V48.996Z" fill="#AEADAE"/>
<path d="M182 42.0006H174.998V48.996H182V42.0006Z" fill="#AEADAE"/>
<path d="M174.998 105.002H167.995V111.997H174.998V105.002Z" fill="#AEADAE"/>
<path d="M174.998 97.999H167.995V105.001H174.998V97.999Z" fill="#AEADAE"/>
<path d="M174.998 90.9966H167.995V97.999H174.998V90.9966Z" fill="#343334"/>
<path d="M174.998 84.0012H167.995V90.9966H174.998V84.0012Z" fill="#343334"/>
<path d="M174.998 76.9988H167.995V84.0012H174.998V76.9988Z" fill="#343334"/>
<path d="M174.998 69.9963H167.995V76.9988H174.998V69.9963Z" fill="#343334"/>
<path d="M174.998 63.001H167.995V69.9964H174.998V63.001Z" fill="#343334"/>
<path d="M174.998 55.9984H167.995V63.0009H174.998V55.9984Z" fill="#343334"/>
<path d="M174.998 48.996H167.995V55.9984H174.998V48.996Z" fill="#343334"/>
<path d="M174.998 42.0006H167.995V48.996H174.998V42.0006Z" fill="#343334"/>
<path d="M174.998 34.9982H167.995V42.0006H174.998V34.9982Z" fill="#343334"/>
<path d="M174.998 28.0028H167.995V34.9982H174.998V28.0028Z" fill="#AEADAE"/>
<path d="M167.995 111.997H161V118.999H167.995V111.997Z" fill="#AEADAE"/>
<path d="M167.995 105.002H161V111.997H167.995V105.002Z" fill="#343334"/>
<path d="M167.995 97.999H161V105.001H167.995V97.999Z" fill="#343334"/>
<path d="M167.995 28.0028H161V34.9982H167.995V28.0028Z" fill="#343334"/>
<path d="M167.995 21.0004H161V28.0028H167.995V21.0004Z" fill="#343334"/>
<path d="M167.995 13.9978H161V21.0003H167.995V13.9978Z" fill="#AEADAE"/>
<path d="M161 118.999H153.997V126.002H161V118.999Z" fill="#AEADAE"/>
<path d="M161 111.997H153.997V118.999H161V111.997Z" fill="#343334"/>
<path d="M161 13.9978H153.997V21.0003H161V13.9978Z" fill="#343334"/>
<path d="M153.997 126.002H146.995V132.997H153.997V126.002Z" fill="#AEADAE"/>
<path d="M153.997 118.999H146.995V126.002H153.997V118.999Z" fill="#343334"/>
<path d="M153.997 7.00244H146.995V13.9978H153.997V7.00244Z" fill="#343334"/>
<path d="M146.995 153.998H140V161H146.995V153.998Z" fill="#AEADAE"/>
<path d="M146.995 147.002H140V153.998H146.995V147.002Z" fill="#AEADAE"/>
<path d="M146.995 140H140V147.002H146.995V140Z" fill="#AEADAE"/>
<path d="M146.995 132.997H140V140H146.995V132.997Z" fill="#AEADAE"/>
<path d="M146.995 126.002H140V132.997H146.995V126.002Z" fill="#AEADAE"/>
<path d="M146.995 118.999H140V126.002H146.995V118.999Z" fill="#343334"/>
<path d="M146.995 7.00244H140V13.9978H146.995V7.00244Z" fill="#343334"/>
<path d="M146.995 0H140V7.00247H146.995V0Z" fill="#AEADAE"/>
<path d="M140 153.998H132.997V161H140V153.998Z" fill="#343334"/>
<path d="M140 147.002H132.997V153.998H140V147.002Z" fill="#343334"/>
<path d="M140 140H132.997V147.002H140V140Z" fill="#343334"/>
<path d="M140 132.997H132.997V140H140V132.997Z" fill="#343334"/>
<path d="M140 126.002H132.997V132.997H140V126.002Z" fill="#343334"/>
<path d="M140 0H132.997V7.00247H140V0Z" fill="#343334"/>
<path d="M132.997 147.002H125.995V153.998H132.997V147.002Z" fill="#343334"/>
<path d="M132.997 0H125.995V7.00247H132.997V0Z" fill="#343334"/>
<path d="M125.995 140H118.999V147.002H125.995V140Z" fill="#343334"/>
<path d="M125.995 0H118.999V7.00247H125.995V0Z" fill="#343334"/>
<path d="M118.999 132.997H111.997V140H118.999V132.997Z" fill="#343334"/>
<path d="M118.999 0H111.997V7.00247H118.999V0Z" fill="#343334"/>
<path d="M111.997 132.997H104.994V140H111.997V132.997Z" fill="#AEADAE"/>
<path d="M111.997 126.002H104.994V132.997H111.997V126.002Z" fill="#343334"/>
<path d="M111.997 0H104.994V7.00247H111.997V0Z" fill="#343334"/>
<path d="M104.994 132.997H97.999V140H104.994V132.997Z" fill="#AEADAE"/>
<path d="M104.994 126.002H97.999V132.997H104.994V126.002Z" fill="#343334"/>
<path d="M104.994 0H97.999V7.00247H104.994V0Z" fill="#343334"/>
<path d="M97.999 132.997H90.9966V140H97.999V132.997Z" fill="#AEADAE"/>
<path d="M97.999 126.002H90.9966V132.997H97.999V126.002Z" fill="#343334"/>
<path d="M97.999 0H90.9966V7.00247H97.999V0Z" fill="#343334"/>
<path d="M90.9964 132.997H83.9939V140H90.9964V132.997Z" fill="#AEADAE"/>
<path d="M90.9964 126.002H83.9939V132.997H90.9964V126.002Z" fill="#343334"/>
<path d="M90.9964 0H83.9939V7.00247H90.9964V0Z" fill="#343334"/>
<path d="M83.9941 132.997H76.9988V140H83.9941V132.997Z" fill="#AEADAE"/>
<path d="M83.9941 126.002H76.9988V132.997H83.9941V126.002Z" fill="#343334"/>
<path d="M83.9941 0H76.9988V7.00247H83.9941V0Z" fill="#343334"/>
<path d="M76.9985 132.997H69.9961V140H76.9985V132.997Z" fill="#AEADAE"/>
<path d="M76.9985 126.002H69.9961V132.997H76.9985V126.002Z" fill="#343334"/>
<path d="M76.9985 0H69.9961V7.00247H76.9985V0Z" fill="#343334"/>
<path d="M69.9961 132.997H62.9937V140H69.9961V132.997Z" fill="#AEADAE"/>
<path d="M69.9961 126.002H62.9937V132.997H69.9961V126.002Z" fill="#343334"/>
<path d="M69.9961 0H62.9937V7.00247H69.9961V0Z" fill="#343334"/>
<path d="M62.9937 132.997H55.9983V140H62.9937V132.997Z" fill="#AEADAE"/>
<path d="M62.9937 126.002H55.9983V132.997H62.9937V126.002Z" fill="#343334"/>
<path d="M62.9937 0H55.9983V7.00247H62.9937V0Z" fill="#343334"/>
<path d="M55.9983 132.997H48.9958V140H55.9983V132.997Z" fill="#AEADAE"/>
<path d="M55.9983 126.002H48.9958V132.997H55.9983V126.002Z" fill="#343334"/>
<path d="M55.9983 0H48.9958V7.00247H55.9983V0Z" fill="#343334"/>
<path d="M48.9959 132.997H41.9934V140H48.9959V132.997Z" fill="#AEADAE"/>
<path d="M48.9959 126.002H41.9934V132.997H48.9959V126.002Z" fill="#343334"/>
<path d="M48.9959 0H41.9934V7.00247H48.9959V0Z" fill="#343334"/>
<path d="M41.9934 126.002H34.998V132.997H41.9934V126.002Z" fill="#343334"/>
<path d="M41.9934 0H34.998V7.00247H41.9934V0Z" fill="#343334"/>
<path d="M34.9981 126.002H27.9956V132.997H34.9981V126.002Z" fill="#AEADAE"/>
<path d="M34.9981 118.999H27.9956V126.002H34.9981V118.999Z" fill="#343334"/>
<path d="M34.9981 7.00244H27.9956V13.9978H34.9981V7.00244Z" fill="#343334"/>
<path d="M27.9956 118.999H21.0002V126.002H27.9956V118.999Z" fill="#343334"/>
<path d="M27.9956 7.00244H21.0002V13.9978H27.9956V7.00244Z" fill="#343334"/>
<path d="M21.0003 111.997H13.9978V118.999H21.0003V111.997Z" fill="#343334"/>
<path d="M21.0003 13.9978H13.9978V21.0003H21.0003V13.9978Z" fill="#343334"/>
<path d="M13.9978 105.002H6.99536V111.997H13.9978V105.002Z" fill="#343334"/>
<path d="M13.9978 97.999H6.99536V105.001H13.9978V97.999Z" fill="#343334"/>
<path d="M13.9978 28.0028H6.99536V34.9982H13.9978V28.0028Z" fill="#343334"/>
<path d="M13.9978 21.0004H6.99536V28.0028H13.9978V21.0004Z" fill="#343334"/>
<path d="M6.99537 90.9966H0V97.999H6.99537V90.9966Z" fill="#343334"/>
<path d="M6.99537 84.0012H0V90.9966H6.99537V84.0012Z" fill="#343334"/>
<path d="M6.99537 76.9988H0V84.0012H6.99537V76.9988Z" fill="#343334"/>
<path d="M6.99537 69.9963H0V76.9988H6.99537V69.9963Z" fill="#343334"/>
<path d="M6.99537 63.001H0V69.9964H6.99537V63.001Z" fill="#343334"/>
<path d="M6.99537 55.9984H0V63.0009H6.99537V55.9984Z" fill="#343334"/>
<path d="M6.99537 48.996H0V55.9984H6.99537V48.996Z" fill="#343334"/>
<path d="M6.99537 42.0006H0V48.996H6.99537V42.0006Z" fill="#343334"/>
<path d="M6.99537 34.9982H0V42.0006H6.99537V34.9982Z" fill="#343334"/>
</g>
<path d="M111.102 43.7974H73.0227H56.5417L50.8315 54.4754V57.5732V65.1463H59.6823V75.8242H68.74V86.1097H77.7978V96.7806H87.3766V107.459H97.455V96.7806H107.034V86.1097H116.099V75.8242H125.156V65.1463H134V57.5732V54.4754L127.576 43.7974H111.102Z" fill="#D7CCBD"/>
<path d="M128.169 50.6709H45L50.7102 40H121.745L128.169 50.6709Z" fill="#A87EB7"/>
<path d="M119.325 61.3489H53.8435V72.0198H119.325V61.3489Z" fill="#8C5BA4"/>
<path d="M110.267 71.6344H62.9084V82.3053H110.267V71.6344Z" fill="#8C5BA4"/>
<path d="M101.202 82.3052H71.9663V92.9761H101.202V82.3052Z" fill="#8C5BA4"/>
<path d="M91.6234 82.3052H81.5449V92.9761H91.6234V82.3052Z" fill="#A87EB7"/>
<path d="M95.5706 71.8271H77.5979V82.498H95.5706V71.8271Z" fill="#A87EB7"/>
<path d="M101.916 61.1492H71.2524V71.82H101.916V61.1492Z" fill="#A87EB7"/>
<path d="M91.6234 92.9761H81.5449V103.647H91.6234V92.9761Z" fill="#8C5BA4"/>
<path d="M128.169 50.6708H45V61.3417H128.169V50.6708Z" fill="#8C5BA4"/>
<path d="M110.267 50.6708H62.9084V61.3417H110.267V50.6708Z" fill="#A87EB7"/>
<path d="M110.267 50.6709H62.9084L67.1911 40H105.271L110.267 50.6709Z" fill="#CEB3D5"/>
<path d="M128.169 50.6708H45V53.7686H128.169V50.6708Z" fill="#CEB3D5"/>
<defs>
<clipPath id="clip0">
<rect width="182" height="161" fill="white"/>
</clipPath>
</defs>
</svg>
