<svg width="182" height="168" viewBox="0 0 182 168" fill="none" xmlns="http://www.w3.org/2000/svg">
<path d="M129.9 34.365H56.8208V110.846H129.9V34.365Z" fill="#D7CCBD"/>
<path d="M124.11 30.4114H51.0303V106.892H124.11V30.4114Z" fill="#4360AC"/>
<path d="M115.101 39.8389H60.0386V97.4646H115.101V39.8389Z" fill="#C6DAF2"/>
<path d="M115.101 39.8389H60.0386V47.7161H115.101V39.8389Z" fill="#779DD2"/>
<path d="M91.6558 43.147H83.4839V75.9244H91.6558V43.147Z" fill="#57565C"/>
<path d="M91.6558 43.147H83.4839V47.5974H91.6558V43.147Z" fill="#3E3E42"/>
<path d="M105.987 72.9353V64.3831H80.6207V72.9353H105.987Z" fill="#2D2E30"/>
<path d="M94.5192 64.3459H80.6206V78.8915H94.5192V64.3459Z" fill="#A2482A"/>
<path d="M94.5192 61.3789H80.6206V75.9244H94.5192V61.3789Z" fill="#E25F3F"/>
<path d="M90.7344 85.1593H84.4053V91.783H90.7344V85.1593Z" fill="#779DD2"/>
<path d="M69.6773 65.34H63.3481V71.9637H69.6773V65.34Z" fill="#779DD2"/>
<g clip-path="url(#clip0)">
<path d="M182 102.26H174.998V109.567H182V102.26Z" fill="#AEADAE"/>
<path d="M182 94.953H174.998V102.26H182V94.953Z" fill="#AEADAE"/>
<path d="M182 87.6534H174.998V94.953H182V87.6534Z" fill="#AEADAE"/>
<path d="M182 80.3466H174.998V87.6535H182V80.3466Z" fill="#AEADAE"/>
<path d="M182 73.0397H174.998V80.3466H182V73.0397Z" fill="#AEADAE"/>
<path d="M182 65.7401H174.998V73.0396H182V65.7401Z" fill="#AEADAE"/>
<path d="M182 58.4332H174.998V65.7402H182V58.4332Z" fill="#AEADAE"/>
<path d="M182 51.1262H174.998V58.4331H182V51.1262Z" fill="#AEADAE"/>
<path d="M182 43.8268H174.998V51.1263H182V43.8268Z" fill="#AEADAE"/>
<path d="M174.998 109.567H167.995V116.866H174.998V109.567Z" fill="#AEADAE"/>
<path d="M174.998 102.26H167.995V109.567H174.998V102.26Z" fill="#AEADAE"/>
<path d="M174.998 94.953H167.995V102.26H174.998V94.953Z" fill="#343334"/>
<path d="M174.998 87.6534H167.995V94.953H174.998V87.6534Z" fill="#343334"/>
<path d="M174.998 80.3466H167.995V87.6535H174.998V80.3466Z" fill="#343334"/>
<path d="M174.998 73.0397H167.995V80.3466H174.998V73.0397Z" fill="#343334"/>
<path d="M174.998 65.7401H167.995V73.0396H174.998V65.7401Z" fill="#343334"/>
<path d="M174.998 58.4332H167.995V65.7402H174.998V58.4332Z" fill="#343334"/>
<path d="M174.998 51.1262H167.995V58.4331H174.998V51.1262Z" fill="#343334"/>
<path d="M174.998 43.8268H167.995V51.1263H174.998V43.8268Z" fill="#343334"/>
<path d="M174.998 36.5199H167.995V43.8268H174.998V36.5199Z" fill="#343334"/>
<path d="M174.998 29.2203H167.995V36.5199H174.998V29.2203Z" fill="#AEADAE"/>
<path d="M167.995 116.866H161V124.173H167.995V116.866Z" fill="#AEADAE"/>
<path d="M167.995 109.567H161V116.866H167.995V109.567Z" fill="#343334"/>
<path d="M167.995 102.26H161V109.567H167.995V102.26Z" fill="#343334"/>
<path d="M167.995 29.2203H161V36.5199H167.995V29.2203Z" fill="#343334"/>
<path d="M167.995 21.9135H161V29.2204H167.995V21.9135Z" fill="#343334"/>
<path d="M167.995 14.6064H161V21.9134H167.995V14.6064Z" fill="#AEADAE"/>
<path d="M161 124.173H153.997V131.48H161V124.173Z" fill="#AEADAE"/>
<path d="M161 116.866H153.997V124.173H161V116.866Z" fill="#343334"/>
<path d="M161 14.6064H153.997V21.9134H161V14.6064Z" fill="#343334"/>
<path d="M153.997 131.48H146.995V138.78H153.997V131.48Z" fill="#AEADAE"/>
<path d="M153.997 124.173H146.995V131.48H153.997V124.173Z" fill="#343334"/>
<path d="M153.997 7.30701H146.995V14.6065H153.997V7.30701Z" fill="#343334"/>
<path d="M146.995 160.693H140V168H146.995V160.693Z" fill="#AEADAE"/>
<path d="M146.995 153.394H140V160.693H146.995V153.394Z" fill="#AEADAE"/>
<path d="M146.995 146.087H140V153.394H146.995V146.087Z" fill="#AEADAE"/>
<path d="M146.995 138.78H140V146.087H146.995V138.78Z" fill="#AEADAE"/>
<path d="M146.995 131.48H140V138.78H146.995V131.48Z" fill="#AEADAE"/>
<path d="M146.995 124.173H140V131.48H146.995V124.173Z" fill="#343334"/>
<path d="M146.995 7.30701H140V14.6065H146.995V7.30701Z" fill="#343334"/>
<path d="M146.995 0H140V7.30692H146.995V0Z" fill="#AEADAE"/>
<path d="M140 160.693H132.997V168H140V160.693Z" fill="#343334"/>
<path d="M140 153.394H132.997V160.693H140V153.394Z" fill="#343334"/>
<path d="M140 146.087H132.997V153.394H140V146.087Z" fill="#343334"/>
<path d="M140 138.78H132.997V146.087H140V138.78Z" fill="#343334"/>
<path d="M140 131.48H132.997V138.78H140V131.48Z" fill="#343334"/>
<path d="M140 0H132.997V7.30692H140V0Z" fill="#343334"/>
<path d="M132.997 153.394H125.995V160.693H132.997V153.394Z" fill="#343334"/>
<path d="M132.997 0H125.995V7.30692H132.997V0Z" fill="#343334"/>
<path d="M125.994 146.087H118.999V153.394H125.994V146.087Z" fill="#343334"/>
<path d="M125.994 0H118.999V7.30692H125.994V0Z" fill="#343334"/>
<path d="M118.999 138.78H111.997V146.087H118.999V138.78Z" fill="#343334"/>
<path d="M118.999 0H111.997V7.30692H118.999V0Z" fill="#343334"/>
<path d="M111.997 138.78H104.994V146.087H111.997V138.78Z" fill="#AEADAE"/>
<path d="M111.997 131.48H104.994V138.78H111.997V131.48Z" fill="#343334"/>
<path d="M111.997 0H104.994V7.30692H111.997V0Z" fill="#343334"/>
<path d="M104.994 138.78H97.999V146.087H104.994V138.78Z" fill="#AEADAE"/>
<path d="M104.994 131.48H97.999V138.78H104.994V131.48Z" fill="#343334"/>
<path d="M104.994 0H97.999V7.30692H104.994V0Z" fill="#343334"/>
<path d="M97.999 138.78H90.9966V146.087H97.999V138.78Z" fill="#AEADAE"/>
<path d="M97.999 131.48H90.9966V138.78H97.999V131.48Z" fill="#343334"/>
<path d="M97.999 0H90.9966V7.30692H97.999V0Z" fill="#343334"/>
<path d="M90.9966 138.78H83.9941V146.087H90.9966V138.78Z" fill="#AEADAE"/>
<path d="M90.9966 131.48H83.9941V138.78H90.9966V131.48Z" fill="#343334"/>
<path d="M90.9966 0H83.9941V7.30692H90.9966V0Z" fill="#343334"/>
<path d="M83.9939 138.78H76.9985V146.087H83.9939V138.78Z" fill="#AEADAE"/>
<path d="M83.9939 131.48H76.9985V138.78H83.9939V131.48Z" fill="#343334"/>
<path d="M83.9939 0H76.9985V7.30692H83.9939V0Z" fill="#343334"/>
<path d="M76.9985 138.78H69.9961V146.087H76.9985V138.78Z" fill="#AEADAE"/>
<path d="M76.9985 131.48H69.9961V138.78H76.9985V131.48Z" fill="#343334"/>
<path d="M76.9985 0H69.9961V7.30692H76.9985V0Z" fill="#343334"/>
<path d="M69.9961 138.78H62.9937V146.087H69.9961V138.78Z" fill="#AEADAE"/>
<path d="M69.9961 131.48H62.9937V138.78H69.9961V131.48Z" fill="#343334"/>
<path d="M69.9961 0H62.9937V7.30692H69.9961V0Z" fill="#343334"/>
<path d="M62.9939 138.78H55.9985V146.087H62.9939V138.78Z" fill="#AEADAE"/>
<path d="M62.9939 131.48H55.9985V138.78H62.9939V131.48Z" fill="#343334"/>
<path d="M62.9939 0H55.9985V7.30692H62.9939V0Z" fill="#343334"/>
<path d="M55.9986 138.78H48.9961V146.087H55.9986V138.78Z" fill="#AEADAE"/>
<path d="M55.9986 131.48H48.9961V138.78H55.9986V131.48Z" fill="#343334"/>
<path d="M55.9986 0H48.9961V7.30692H55.9986V0Z" fill="#343334"/>
<path d="M48.9961 138.78H41.9937V146.087H48.9961V138.78Z" fill="#AEADAE"/>
<path d="M48.9961 131.48H41.9937V138.78H48.9961V131.48Z" fill="#343334"/>
<path d="M48.9961 0H41.9937V7.30692H48.9961V0Z" fill="#343334"/>
<path d="M41.9934 131.48H34.998V138.78H41.9934V131.48Z" fill="#343334"/>
<path d="M41.9934 0H34.998V7.30692H41.9934V0Z" fill="#343334"/>
<path d="M34.9981 131.48H27.9956V138.78H34.9981V131.48Z" fill="#AEADAE"/>
<path d="M34.9981 124.173H27.9956V131.48H34.9981V124.173Z" fill="#343334"/>
<path d="M34.9981 7.30701H27.9956V14.6065H34.9981V7.30701Z" fill="#343334"/>
<path d="M27.9959 124.173H21.0005V131.48H27.9959V124.173Z" fill="#343334"/>
<path d="M27.9959 7.30701H21.0005V14.6065H27.9959V7.30701Z" fill="#343334"/>
<path d="M21.0005 116.866H13.998V124.173H21.0005V116.866Z" fill="#343334"/>
<path d="M21.0005 14.6064H13.998V21.9134H21.0005V14.6064Z" fill="#343334"/>
<path d="M13.9976 109.567H6.99512V116.866H13.9976V109.567Z" fill="#343334"/>
<path d="M13.9976 102.26H6.99512V109.567H13.9976V102.26Z" fill="#343334"/>
<path d="M13.9976 29.2203H6.99512V36.5199H13.9976V29.2203Z" fill="#343334"/>
<path d="M13.9976 21.9135H6.99512V29.2204H13.9976V21.9135Z" fill="#343334"/>
<path d="M6.99537 94.953H0V102.26H6.99537V94.953Z" fill="#343334"/>
<path d="M6.99537 87.6534H0V94.953H6.99537V87.6534Z" fill="#343334"/>
<path d="M6.99537 80.3466H0V87.6535H6.99537V80.3466Z" fill="#343334"/>
<path d="M6.99537 73.0397H0V80.3466H6.99537V73.0397Z" fill="#343334"/>
<path d="M6.99537 65.7401H0V73.0396H6.99537V65.7401Z" fill="#343334"/>
<path d="M6.99537 58.4332H0V65.7402H6.99537V58.4332Z" fill="#343334"/>
<path d="M6.99537 51.1262H0V58.4331H6.99537V51.1262Z" fill="#343334"/>
<path d="M6.99537 43.8268H0V51.1263H6.99537V43.8268Z" fill="#343334"/>
<path d="M6.99537 36.5199H0V43.8268H6.99537V36.5199Z" fill="#343334"/>
</g>
<defs>
<clipPath id="clip0">
<rect width="182" height="168" fill="white"/>
</clipPath>
</defs>
</svg>
