<svg width="105" height="93" viewBox="0 0 105 93" fill="none" xmlns="http://www.w3.org/2000/svg">
<g clip-path="url(#clip0)">
<path d="M104.806 56.4575H100.773V60.4917H104.806V56.4575Z" fill="#AEADAE"/>
<path d="M104.806 52.4234H100.773V56.4575H104.806V52.4234Z" fill="#AEADAE"/>
<path d="M104.806 48.3933H100.773V52.4234H104.806V48.3933Z" fill="#AEADAE"/>
<path d="M104.806 44.3592H100.773V48.3933H104.806V44.3592Z" fill="#AEADAE"/>
<path d="M104.806 40.325H100.773V44.3591H104.806V40.325Z" fill="#AEADAE"/>
<path d="M104.806 36.295H100.773V40.325H104.806V36.295Z" fill="#AEADAE"/>
<path d="M104.806 32.2609H100.773V36.295H104.806V32.2609Z" fill="#AEADAE"/>
<path d="M104.806 28.2267H100.773V32.2609H104.806V28.2267Z" fill="#AEADAE"/>
<path d="M104.806 24.1967H100.773V28.2267H104.806V24.1967Z" fill="#AEADAE"/>
<path d="M100.773 60.4916H96.741V64.5217H100.773V60.4916Z" fill="#AEADAE"/>
<path d="M100.773 56.4575H96.741V60.4917H100.773V56.4575Z" fill="#AEADAE"/>
<path d="M100.773 52.4234H96.741V56.4575H100.773V52.4234Z" fill="#343334"/>
<path d="M100.773 48.3933H96.741V52.4234H100.773V48.3933Z" fill="#343334"/>
<path d="M100.773 44.3592H96.741V48.3933H100.773V44.3592Z" fill="#343334"/>
<path d="M100.773 40.325H96.741V44.3591H100.773V40.325Z" fill="#343334"/>
<path d="M100.773 36.295H96.741V40.325H100.773V36.295Z" fill="#343334"/>
<path d="M100.773 32.2609H96.741V36.295H100.773V32.2609Z" fill="#343334"/>
<path d="M100.773 28.2267H96.741V32.2609H100.773V28.2267Z" fill="#343334"/>
<path d="M100.773 24.1967H96.741V28.2267H100.773V24.1967Z" fill="#343334"/>
<path d="M100.773 20.1625H96.741V24.1967H100.773V20.1625Z" fill="#343334"/>
<path d="M100.773 16.1324H96.741V20.1625H100.773V16.1324Z" fill="#AEADAE"/>
<path d="M96.741 64.5217H92.7126V68.5559H96.741V64.5217Z" fill="#AEADAE"/>
<path d="M96.741 60.4916H92.7126V64.5217H96.741V60.4916Z" fill="#343334"/>
<path d="M96.741 56.4575H92.7126V60.4917H96.741V56.4575Z" fill="#343334"/>
<path d="M96.741 16.1324H92.7126V20.1625H96.741V16.1324Z" fill="#343334"/>
<path d="M96.741 12.0983H92.7126V16.1325H96.741V12.0983Z" fill="#343334"/>
<path d="M96.741 8.06421H92.7126V12.0983H96.741V8.06421Z" fill="#AEADAE"/>
<path d="M92.7126 68.5558H88.6802V72.5899H92.7126V68.5558Z" fill="#AEADAE"/>
<path d="M92.7126 64.5217H88.6802V68.5559H92.7126V64.5217Z" fill="#343334"/>
<path d="M92.7126 8.06421H88.6802V12.0983H92.7126V8.06421Z" fill="#343334"/>
<path d="M88.6801 72.59H84.6477V76.62H88.6801V72.59Z" fill="#AEADAE"/>
<path d="M88.6801 68.5558H84.6477V72.5899H88.6801V68.5558Z" fill="#343334"/>
<path d="M88.6801 4.03418H84.6477V8.06423H88.6801V4.03418Z" fill="#343334"/>
<path d="M84.6477 88.7184H80.6194V92.7525H84.6477V88.7184Z" fill="#AEADAE"/>
<path d="M84.6477 84.6884H80.6194V88.7184H84.6477V84.6884Z" fill="#AEADAE"/>
<path d="M84.6477 80.6542H80.6194V84.6883H84.6477V80.6542Z" fill="#AEADAE"/>
<path d="M84.6477 76.62H80.6194V80.6541H84.6477V76.62Z" fill="#AEADAE"/>
<path d="M84.6477 72.59H80.6194V76.62H84.6477V72.59Z" fill="#AEADAE"/>
<path d="M84.6477 68.5558H80.6194V72.5899H84.6477V68.5558Z" fill="#343334"/>
<path d="M84.6477 4.03418H80.6194V8.06423H84.6477V4.03418Z" fill="#343334"/>
<path d="M84.6477 0H80.6194V4.03414H84.6477V0Z" fill="#AEADAE"/>
<path d="M80.6196 88.7184H76.5872V92.7525H80.6196V88.7184Z" fill="#343334"/>
<path d="M80.6196 84.6884H76.5872V88.7184H80.6196V84.6884Z" fill="#343334"/>
<path d="M80.6196 80.6542H76.5872V84.6883H80.6196V80.6542Z" fill="#343334"/>
<path d="M80.6196 76.62H76.5872V80.6541H80.6196V76.62Z" fill="#343334"/>
<path d="M80.6196 72.59H76.5872V76.62H80.6196V72.59Z" fill="#343334"/>
<path d="M80.6196 0H76.5872V4.03414H80.6196V0Z" fill="#343334"/>
<path d="M76.5871 84.6884H72.5547V88.7184H76.5871V84.6884Z" fill="#343334"/>
<path d="M76.5871 0H72.5547V4.03414H76.5871V0Z" fill="#343334"/>
<path d="M72.5547 80.6542H68.5264V84.6883H72.5547V80.6542Z" fill="#343334"/>
<path d="M72.5547 0H68.5264V4.03414H72.5547V0Z" fill="#343334"/>
<path d="M68.5263 76.62H64.4939V80.6541H68.5263V76.62Z" fill="#343334"/>
<path d="M68.5263 0H64.4939V4.03414H68.5263V0Z" fill="#343334"/>
<path d="M64.4938 76.62H60.4614V80.6541H64.4938V76.62Z" fill="#AEADAE"/>
<path d="M64.4938 72.59H60.4614V76.62H64.4938V72.59Z" fill="#343334"/>
<path d="M64.4938 0H60.4614V4.03414H64.4938V0Z" fill="#343334"/>
<path d="M60.4614 76.62H56.4331V80.6541H60.4614V76.62Z" fill="#AEADAE"/>
<path d="M60.4614 72.59H56.4331V76.62H60.4614V72.59Z" fill="#343334"/>
<path d="M60.4614 0H56.4331V4.03414H60.4614V0Z" fill="#343334"/>
<path d="M56.4333 76.62H52.4009V80.6541H56.4333V76.62Z" fill="#AEADAE"/>
<path d="M56.4333 72.59H52.4009V76.62H56.4333V72.59Z" fill="#343334"/>
<path d="M56.4333 0H52.4009V4.03414H56.4333V0Z" fill="#343334"/>
<path d="M52.4008 76.62H48.3684V80.6541H52.4008V76.62Z" fill="#AEADAE"/>
<path d="M52.4008 72.59H48.3684V76.62H52.4008V72.59Z" fill="#343334"/>
<path d="M52.4008 0H48.3684V4.03414H52.4008V0Z" fill="#343334"/>
<path d="M48.3684 76.62H44.3401V80.6541H48.3684V76.62Z" fill="#AEADAE"/>
<path d="M48.3684 72.59H44.3401V76.62H48.3684V72.59Z" fill="#343334"/>
<path d="M48.3684 0H44.3401V4.03414H48.3684V0Z" fill="#343334"/>
<path d="M44.34 76.62H40.3076V80.6541H44.34V76.62Z" fill="#AEADAE"/>
<path d="M44.34 72.59H40.3076V76.62H44.34V72.59Z" fill="#343334"/>
<path d="M44.34 0H40.3076V4.03414H44.34V0Z" fill="#343334"/>
<path d="M40.3078 76.62H36.2754V80.6541H40.3078V76.62Z" fill="#AEADAE"/>
<path d="M40.3078 72.59H36.2754V76.62H40.3078V72.59Z" fill="#343334"/>
<path d="M40.3078 0H36.2754V4.03414H40.3078V0Z" fill="#343334"/>
<path d="M36.2754 76.62H32.2471V80.6541H36.2754V76.62Z" fill="#AEADAE"/>
<path d="M36.2754 72.59H32.2471V76.62H36.2754V72.59Z" fill="#343334"/>
<path d="M36.2754 0H32.2471V4.03414H36.2754V0Z" fill="#343334"/>
<path d="M32.247 76.62H28.2146V80.6541H32.247V76.62Z" fill="#AEADAE"/>
<path d="M32.247 72.59H28.2146V76.62H32.247V72.59Z" fill="#343334"/>
<path d="M32.247 0H28.2146V4.03414H32.247V0Z" fill="#343334"/>
<path d="M28.2145 76.62H24.1821V80.6541H28.2145V76.62Z" fill="#AEADAE"/>
<path d="M28.2145 72.59H24.1821V76.62H28.2145V72.59Z" fill="#343334"/>
<path d="M28.2145 0H24.1821V4.03414H28.2145V0Z" fill="#343334"/>
<path d="M24.1821 72.59H20.1538V76.62H24.1821V72.59Z" fill="#343334"/>
<path d="M24.1821 0H20.1538V4.03414H24.1821V0Z" fill="#343334"/>
<path d="M20.154 72.59H16.1216V76.62H20.154V72.59Z" fill="#AEADAE"/>
<path d="M20.154 68.5558H16.1216V72.5899H20.154V68.5558Z" fill="#343334"/>
<path d="M20.154 4.03418H16.1216V8.06423H20.154V4.03418Z" fill="#343334"/>
<path d="M16.1216 68.5558H12.0933V72.5899H16.1216V68.5558Z" fill="#343334"/>
<path d="M16.1216 4.03418H12.0933V8.06423H16.1216V4.03418Z" fill="#343334"/>
<path d="M12.0932 64.5217H8.06079V68.5559H12.0932V64.5217Z" fill="#343334"/>
<path d="M12.0932 8.06421H8.06079V12.0983H12.0932V8.06421Z" fill="#343334"/>
<path d="M8.06072 60.4916H4.02832V64.5217H8.06072V60.4916Z" fill="#343334"/>
<path d="M8.06072 56.4575H4.02832V60.4917H8.06072V56.4575Z" fill="#343334"/>
<path d="M8.06072 16.1324H4.02832V20.1625H8.06072V16.1324Z" fill="#343334"/>
<path d="M8.06072 12.0983H4.02832V16.1325H8.06072V12.0983Z" fill="#343334"/>
<path d="M4.02832 52.4234H0V56.4575H4.02832V52.4234Z" fill="#343334"/>
<path d="M4.02832 48.3933H0V52.4234H4.02832V48.3933Z" fill="#343334"/>
<path d="M4.02832 44.3592H0V48.3933H4.02832V44.3592Z" fill="#343334"/>
<path d="M4.02832 40.325H0V44.3591H4.02832V40.325Z" fill="#343334"/>
<path d="M4.02832 36.295H0V40.325H4.02832V36.295Z" fill="#343334"/>
<path d="M4.02832 32.2609H0V36.295H4.02832V32.2609Z" fill="#343334"/>
<path d="M4.02832 28.2267H0V32.2609H4.02832V28.2267Z" fill="#343334"/>
<path d="M4.02832 24.1967H0V28.2267H4.02832V24.1967Z" fill="#343334"/>
<path d="M4.02832 20.1625H0V24.1967H4.02832V20.1625Z" fill="#343334"/>
</g>
<path d="M57.0097 14.4026H21.3066V34.5662H57.0097V14.4026Z" fill="#E57654"/>
<path d="M34.5514 16.1309H21.8826V36.2945H34.5514V16.1309Z" fill="#E57654"/>
<path d="M46.0712 14.1542H20.6885V23.5474H46.0712V14.1542Z" fill="#E25F3F"/>
<path d="M59.7759 14.1542H50.3867V23.5474H59.7759V14.1542Z" fill="#E25F3F"/>
<path d="M34.3929 36.1849H59.7756V26.7918L34.3929 26.7918V36.1849Z" fill="#E25F3F"/>
<path d="M20.6885 36.1849H30.0776V26.7918H20.6885V36.1849Z" fill="#E25F3F"/>
<path d="M44.9618 12.6743H19.5791V22.0674H44.9618V12.6743Z" fill="#BF2717"/>
<path d="M58.6664 12.6743H49.2773V22.0674H58.6664V12.6743Z" fill="#BF2717"/>
<path d="M33.2838 34.7051H58.6665V25.312L33.2838 25.312V34.7051Z" fill="#BF2717"/>
<path d="M19.5792 34.7051H28.9683V25.312H19.5792V34.7051Z" fill="#BF2717"/>
<path d="M42.0034 15.6192H22.5375L19.5791 12.6743H44.9618L42.0034 15.6192Z" fill="#DE3205"/>
<path d="M55.708 28.2604H36.242L33.2837 25.3119H58.6664L55.708 28.2604Z" fill="#DE3205"/>
<path d="M55.708 15.6192H52.2357L49.2773 12.6743H58.6664L55.708 15.6192Z" fill="#DE3205"/>
<path d="M37.385 39.175H21.9282L19.5791 36.2945H39.7341L37.385 39.175Z" fill="#DE3205"/>
<path d="M26.1282 28.2604H22.6559L19.6975 25.3119H29.0865L26.1282 28.2604Z" fill="#DE3205"/>
<path d="M68.3902 39.6697H51.8823H44.7376L42.2622 44.3007V45.6442V48.9287H46.0991V53.5596H50.0257V58.0204H53.9523V62.6483H58.1048V67.2793H62.4739V62.6483H66.6265V58.0204H70.5562V53.5596H74.4828V48.9287H78.3166V45.6442V44.3007L75.5317 39.6697H68.3902Z" fill="#D7CCBD"/>
<path d="M75.7885 42.6507H39.7341L42.2095 38.0228H73.0037L75.7885 42.6507Z" fill="#A87EB7"/>
<path d="M71.9547 47.2817H43.5679V51.9097H71.9547V47.2817Z" fill="#8C5BA4"/>
<path d="M68.028 51.7425H47.4976V56.3704H68.028V51.7425Z" fill="#8C5BA4"/>
<path d="M64.0984 56.3704H51.4243V60.9983H64.0984V56.3704Z" fill="#8C5BA4"/>
<path d="M59.9458 56.3704H55.5767V60.9983H59.9458V56.3704Z" fill="#A87EB7"/>
<path d="M61.657 51.8261H53.8657V56.454H61.657V51.8261Z" fill="#A87EB7"/>
<path d="M64.4078 47.1951H51.1147V51.823H64.4078V47.1951Z" fill="#A87EB7"/>
<path d="M59.9458 60.9983H55.5767V65.6262H59.9458V60.9983Z" fill="#8C5BA4"/>
<path d="M75.7885 42.6507H39.7341V47.2786H75.7885V42.6507Z" fill="#8C5BA4"/>
<path d="M68.028 42.6507H47.4976V47.2786H68.028V42.6507Z" fill="#A87EB7"/>
<path d="M68.028 42.6507H47.4976L49.3541 38.0228H65.862L68.028 42.6507Z" fill="#CEB3D5"/>
<path d="M75.7885 42.6507H39.7341V43.9942H75.7885V42.6507Z" fill="#CEB3D5"/>
<defs>
<clipPath id="clip0">
<rect width="104.806" height="92.7525" fill="white"/>
</clipPath>
</defs>
</svg>
