<svg width="222" height="178" viewBox="0 0 222 178" fill="none" xmlns="http://www.w3.org/2000/svg">
<path d="M13.2237 134.287C10.548 134.287 10.7219 132.361 10.7122 130.56C10.7122 118.692 10.7122 106.817 10.7122 94.9351C10.7122 93.7027 10.3838 91.7962 11.8617 91.6037C15.9767 91.0645 15.3296 88.1374 15.3489 85.5089C15.3489 83.4773 15.3489 81.5612 18.1501 81.4457C18.9616 81.4457 19.8985 81.1183 19.9275 80.1651C20.0338 76.5448 22.5936 76.9011 25.0471 76.7952C26.979 76.7181 29.8769 77.5077 29.6064 74.2051C29.4229 71.798 31.7895 68.0525 26.921 67.3786C25.2403 67.1475 24.9891 65.9246 24.9891 64.5574C24.9891 62.468 24.9891 60.3883 24.9891 58.2989C31.2968 57.4998 37.6239 57.9042 43.9509 58.0679C44.0765 59.464 43.5742 61.5437 44.9652 62.0059C49.9302 63.6427 48.7228 67.5904 48.7711 71.0566C48.8387 76.2945 48.7711 81.542 48.7711 86.7798C48.7711 88.1021 48.7711 89.4244 48.7711 90.7467H48.8194C38.6478 91.7674 38.7347 91.7674 39.3626 102.031C39.5655 105.372 40.9178 106.316 43.9606 105.257L44.1828 109.022L44.6658 110.321C44.7366 110.559 44.8139 110.793 44.8976 111.024C42.9657 120.864 44.2407 130.791 44.1731 140.68C44.1731 143.434 46.5397 143.742 48.7614 143.761L49.0126 153.389L35.18 153.495L34.697 152.532L34.4459 149.211L33.364 148.71C32.0986 148.71 30.8332 148.71 29.5678 148.71C27.0563 148.825 24.738 148.854 24.738 145.282C24.738 144.107 23.5885 143.963 22.6322 143.848L20.2559 142.75C20.1948 142.6 20.11 142.46 20.0048 142.336L19.8116 139.341C19.3739 139.097 18.8883 138.949 18.388 138.91C17.8878 138.87 17.3849 138.938 16.9137 139.11C14.5278 138.321 15.8029 135.923 14.8756 134.498L13.2237 134.287Z" fill="#8AC357"/>
<path d="M20.6908 48.0061C19.7248 44.2221 20.314 40.3708 20.2561 36.5483C20.2561 35.8165 20.5942 34.4589 20.8936 34.43C26.0422 33.8812 24.7575 30.0106 24.97 26.8717C25.0279 25.9089 25.0762 24.4164 26.0712 24.5127C29.935 24.8786 29.2975 21.3546 30.6305 19.5637L34.2818 19.1593L34.7262 14.8747L49.6696 14.5955L53.7556 14.788C53.8232 16.4249 53.659 18.0906 54.5477 19.6022C54.7698 22.4234 53.1374 23.9639 50.6355 24.0313C46.4819 24.1372 44.3375 25.6393 44.8398 30.0683C44.9943 31.5126 44.5596 33.0146 42.9079 33.5442C40.9759 34.1508 39.894 33.0917 39.2082 31.426C38.7542 30.3283 38.1457 29.2981 36.7547 29.7314C35.3637 30.1646 35.3057 31.3778 35.3444 32.5043C35.4313 35.5469 34.9484 37.9925 31.6255 39.4657C29.9254 40.2263 30.2248 42.3542 31.9925 43.3171C34.1176 44.4051 34.4074 46.0901 34.3591 48.1313C30.8334 47.7461 29.1526 49.2 29.6935 52.8299L25.4143 52.7722C25.82 49.1326 24.3324 47.5247 20.6908 48.0061ZM43.6806 21.5761C43.6967 21.3382 43.6578 21.0997 43.5669 20.8791C43.4761 20.6585 43.3358 20.4616 43.1567 20.3036C42.9776 20.1455 42.7645 20.0305 42.5338 19.9673C42.3031 19.9041 42.061 19.8945 41.826 19.9392C40.8021 20.0644 40.6378 20.9021 40.8117 21.7205C40.9856 22.5389 41.3333 23.6462 42.5698 23.4536C43.4681 23.2899 43.642 22.4137 43.6806 21.5761V21.5761Z" fill="#84BB55"/>
<path d="M183.851 172.579L202.011 172.646C206.995 172.646 211.989 172.579 216.974 172.646C218.906 172.646 221.948 172.001 221.997 174.88C222.045 178.192 218.809 177.374 216.761 177.383C202.117 177.46 187.483 177.383 172.839 177.383H116.369C116.427 175.849 116.485 174.315 116.543 172.781L121.228 172.588H159.876H182.093H183.861L183.851 172.579Z" fill="#212121"/>
<path d="M116.553 172.81L116.408 177.412H25.6074L25.5398 172.858L30.2634 172.444L116.301 172.55L116.553 172.81Z" fill="#24390E"/>
<path d="M188.468 165.839L187.946 167.649C187.613 167.608 187.275 167.672 186.98 167.832H183.764C175.746 168.15 167.709 167.322 159.692 168.227C153.568 170.056 149.675 165.54 146.091 162.325C144.208 160.64 143.763 157.655 140.238 158.31C136.47 159.003 135.031 157.26 135.514 153.64C137.755 153.563 139.996 153.447 142.276 153.418C145.763 153.418 148.641 153.332 151.182 157.183C154.176 161.718 159.122 163.836 165.353 163.21C172.81 162.459 180.393 163.008 187.917 162.989L188.468 165.839Z" fill="#8AC357"/>
<path d="M159.876 134.113C166.637 134.113 173.341 134.113 180.074 134.171C181.658 134.171 183.416 134.046 183.783 136.27C184.112 138.196 183.039 138.87 181.368 139.698C177.35 141.681 179.494 145.475 179.204 148.614L179.06 149.711C177.408 149.24 175.756 148.7 174.037 149.422C173.815 149.262 173.628 149.059 173.486 148.826C173.65 147.16 174.452 145.35 172.336 144.242C168.202 142.114 160.745 144.493 158.881 148.546C157.76 147.753 156.38 147.41 155.017 147.583V145.658L156.379 144.464L157.499 144.56C157.611 144.628 157.736 144.673 157.866 144.691C157.996 144.709 158.128 144.701 158.254 144.667C158.381 144.632 158.499 144.573 158.602 144.492C158.704 144.41 158.79 144.309 158.852 144.194C160.136 141.055 159.653 137.782 159.567 134.566L159.876 134.113Z" fill="#528228"/>
<path d="M107.617 67.3208C106.767 68.9962 106.168 70.9893 108.583 71.4899C111.993 72.2024 111.549 74.5903 111.665 76.8915C112.022 80.1363 110.322 83.7373 113.326 86.5199C111.481 87.4153 111.587 89.1003 111.626 90.7468L111.23 91.1512L106.729 90.7468L106.748 90.8238C106.555 89.4662 107.076 87.4731 105.309 87.165C101.735 86.5392 101.85 84.0358 101.792 81.465V81.3206C103.483 80.9932 106.39 83.0633 106.497 79.5778C106.593 76.3619 103.898 77.3344 101.976 77.4499L101.918 67.4267L101.995 58.0679C105.444 57.6828 107.144 59.0307 106.825 62.6703C106.628 64.2643 106.903 65.881 107.617 67.3208Z" fill="#46731E"/>
<path d="M96.9532 29.144C97.7163 32.3214 95.6877 36.0958 99.0396 38.7147C96.8179 40.0145 96.4605 42.1039 98.7305 42.9705C101.522 44.0392 101.764 46.273 102.72 48.3046L101.918 52.6278C101.918 54.4379 101.918 56.2513 101.918 58.0678C99.8414 58.0678 97.7646 58.0678 95.6877 58.0678C94.2485 58.0678 92.7029 58.0678 92.4325 56.1422C92.2006 54.3802 93.0603 53.5232 94.7315 53.1381C97.4072 52.5219 97.8515 49.6719 96.0838 49.1615C91.5824 47.8521 92.2876 44.7325 92.22 41.6802C92.22 39.6487 91.0222 38.9554 89.2448 38.6473C87.9214 38.4162 87.4964 37.4245 87.5834 36.1535C87.5402 35.669 87.6904 35.187 88.0015 34.8121C88.3125 34.4372 88.7592 34.1996 89.2448 34.1508C92.5291 33.8427 92.3455 31.5608 92.1427 29.25L96.9532 29.144Z" fill="#46731E"/>
<path d="M25.3948 52.7241L29.674 52.7819H34.9385L39.3143 53.0514C41.1882 53.1959 43.0525 53.3018 44.8009 52.3871C46.0815 52.8352 47.472 52.8655 48.771 52.4737C49.6196 52.8698 50.5421 53.0839 51.4789 53.1021C52.4157 53.1204 53.3459 52.9423 54.2094 52.5796L58.6624 52.8011C60.3722 53.0611 62.0916 53.3788 63.7434 52.5315C67.1532 52.8396 69.0948 54.2839 68.0805 58.0486L68.1482 57.9908L43.9509 58.0775C37.6238 57.9138 31.2968 57.4998 24.9891 58.3086C24.9054 56.6011 24.8184 54.8937 24.7283 53.1862C24.895 52.9649 25.1286 52.8029 25.3948 52.7241V52.7241Z" fill="#34541A"/>
<path d="M126.067 110.09C129.757 109.705 134.577 112.68 136.277 106.393C136.635 105.083 148.091 104.949 149.25 106.094C150.409 107.24 150.545 109.532 149.376 109.821C143.744 111.236 145.734 115.598 145.261 119.083C145.193 119.555 145.145 120.046 145.087 120.508C143.831 120.508 141.948 120.913 141.552 119.805C139.494 114.028 134.79 116.137 130.81 115.838L125.98 115.771C125.945 115.48 125.945 115.186 125.98 114.895L125.835 110.755L126.067 110.09Z" fill="#5D8F2F"/>
<path d="M58.45 14.7207C58.45 12.2847 60.3819 11.0811 61.4348 9.4154C66.2646 1.71265 73.3354 6.30541 79.2181 5.14037C80.5318 4.8804 82.2126 4.93818 82.483 6.97941C82.7052 8.67401 82.1063 9.72351 80.2613 9.86794C77.064 10.176 78.1555 12.8528 77.6629 14.6822L58.45 14.7207Z" fill="#5D8F2F"/>
<path d="M130.81 115.848C134.751 116.137 139.503 114.048 141.551 119.815C141.947 120.922 143.841 120.508 145.087 120.518C145.145 123.551 146.748 124.908 149.723 124.783C149.878 126.305 150.036 127.826 150.197 129.347L140.537 129.299L140.605 129.366C140.44 127.441 140.469 125.217 137.707 125.323C135.234 125.419 132.114 123.888 130.762 127.624C130.047 129.607 128.434 129.838 126.898 128.789C125.719 127.97 125.681 125.823 126.762 125.534C132.616 123.965 130.501 119.42 130.81 115.848Z" fill="#46731E"/>
<path d="M49.679 14.6148L34.7356 14.894C34.6583 12.9683 34.5617 11.0426 34.5134 9.11696C34.4651 7.19127 34.5134 5.15966 37.2664 4.95747C38.3676 4.88044 38.7733 4.07165 39.1983 3.13769C40.3961 0.64393 45.6509 -0.82921 48.0079 0.499513C48.4225 0.742271 48.7522 1.10609 48.9527 1.54177C49.1531 1.97744 49.2144 2.46395 49.1284 2.9355C49.1834 3.41955 49.0466 3.90589 48.747 4.29081C48.4475 4.67573 48.0089 4.92878 47.5249 4.99599C45.9793 5.20781 44.627 5.60258 44.7332 7.56678C44.8009 9.22287 45.9311 9.59838 47.2931 9.88723C50.0364 10.4746 48.9545 13.0068 49.679 14.6148Z" fill="#5D8F2F"/>
<path d="M58.4499 14.7206H77.6532C77.9043 22.2693 83.6711 18.6683 87.3128 19.4482L87.3804 24.4646C85.4485 24.4646 83.5165 24.4646 81.6522 24.3587C80.0681 24.3106 78.2231 24.4646 77.9237 22.3079C77.5566 19.6889 75.7599 19.5252 73.741 19.5541L63.241 19.6889H58.4113L54.4991 19.6311C53.6104 18.1291 53.7746 16.4634 53.707 14.8169L58.4499 14.7206Z" fill="#46731E"/>
<path d="M87.4288 24.4359L87.3612 19.4194C86.9555 15.674 88.6749 14.2682 92.3649 14.6052C94.7315 14.8459 97.1464 14.6726 99.5323 14.7304C100.498 14.7304 101.464 15.0193 101.744 16.1458C101.976 17.1086 102.14 18.5625 101.271 18.7358C95.1758 19.9009 97.7356 24.7151 97.1077 28.1621C97.0498 28.4702 97.0305 28.7975 97.0015 29.1249L92.2683 29.1731C92.7223 25.4661 91.0802 23.8678 87.3805 24.3588L87.4288 24.4359Z" fill="#5D8F2F"/>
<path d="M121.305 100.828C121.305 102.898 120.948 104.997 123.932 105.498C126.676 105.95 125.864 108.328 126.058 110.081C125.99 110.302 125.913 110.514 125.835 110.726L123.285 110.254L121.353 109.965C121.566 105.815 118.726 105.95 115.838 105.94C114.147 105.94 112.09 106.297 111.694 103.755C111.385 101.733 112.457 100.818 114.331 100.51C114.818 100.488 115.279 100.284 115.621 99.9372C115.964 99.5908 116.162 99.1281 116.176 98.6421C116.223 98.4024 116.219 98.1555 116.164 97.9174C116.11 97.6792 116.006 97.455 115.86 97.2592C115.713 97.0634 115.528 96.9002 115.314 96.7802C115.101 96.6602 114.865 96.586 114.621 96.5624C111.008 96.2542 111.723 93.3176 111.22 91.1608L111.617 90.7564L116.533 91.3534C116.456 93.0865 116.243 94.9448 118.407 95.6091C121.141 96.4372 121.237 98.6036 121.305 100.828Z" fill="#46731E"/>
<path d="M150.216 129.328C150.055 127.807 149.897 126.285 149.743 124.764C149.25 120.749 151.124 119.353 154.998 119.786C157.364 120.046 159.827 119.853 162.175 119.931C162.454 119.904 162.735 119.933 163.002 120.016C163.27 120.099 163.518 120.233 163.733 120.413C163.947 120.592 164.124 120.812 164.253 121.059C164.382 121.307 164.46 121.578 164.483 121.856C164.648 123.204 164.57 124.648 162.938 124.86C160.214 125.217 159.673 126.979 159.605 129.222L150.216 129.328Z" fill="#5D8F2F"/>
<path d="M101.918 58.0679C101.918 56.2513 101.918 54.438 101.918 52.6278C105.782 52.7433 109.588 52.83 113.413 53.0033C114.698 53.0611 116.031 53.2536 116.263 54.929C116.495 56.6043 115.867 57.6635 114.06 57.9331C110.602 58.4434 111.636 61.2067 111.636 63.2191C111.636 66.1076 111.018 67.9755 107.598 67.3208C106.866 65.8831 106.573 64.2625 106.758 62.6606C107.067 59.0692 105.367 57.6827 101.918 58.0679Z" fill="#5D8F2F"/>
<path d="M25.559 172.868L25.6266 177.422C18.9132 177.422 12.1998 177.422 5.48636 177.422C3.55444 177.422 1.12021 177.586 1.00429 175.005C0.87872 172.117 3.53512 172.723 5.30283 172.666C10.2485 172.521 15.2039 172.511 20.1593 172.454L25.559 172.868Z" fill="#212121"/>
<path d="M159.731 168.217C167.739 167.312 175.776 168.14 183.803 167.822L183.851 168.227L183.658 170.701L182.093 172.569H159.876C159.811 171.157 159.763 169.706 159.731 168.217Z" fill="#7AB74A"/>
<path d="M25.5589 172.868L20.1591 172.463C20.2526 170.606 20.2526 168.746 20.1591 166.888C19.879 163.875 21.0672 162.546 24.1003 162.96L29.6642 162.854L30.2245 163.249L30.2728 172.454L25.5589 172.868Z" fill="#ACD885"/>
<path d="M121.305 100.828C121.237 98.594 121.141 96.4372 118.407 95.6091C116.234 94.9448 116.475 93.0865 116.533 91.3534C120.213 91.2571 123.894 91.1223 127.574 91.0645C129.071 91.0645 130.53 91.2571 130.762 93.1924C130.965 94.8581 130.414 96.0328 128.598 96.2831C125.497 96.726 125.575 102.262 121.305 100.828Z" fill="#5D8F2F"/>
<path d="M183.716 148.508C183.465 145.176 184.682 143.443 188.362 143.79C190.729 144.011 193.124 143.838 195.51 143.867C196.93 143.867 198.031 144.339 198.137 145.966C198.215 147.15 198.002 148.373 196.631 148.546C193.54 148.941 193.385 151.059 193.472 153.409L188.787 153.466C188.971 149.904 187.512 148.017 183.716 148.508Z" fill="#5D8F2F"/>
<path d="M150.216 129.328L159.615 129.241L159.895 134.113L159.625 134.575C157.925 134.344 155.828 133.613 155.22 135.962C153.858 141.123 149.984 138.562 147.067 138.754C145.985 138.822 145.57 137.734 145.541 136.713C145.512 135.692 145.811 134.643 146.913 134.527C150.313 134.181 150.207 131.745 150.235 129.328H150.216Z" fill="#46731E"/>
<path d="M188.468 165.839L187.927 162.95L190.207 158.897H191.395C191.762 161.949 194.07 161.314 196.07 161.429C198.524 161.574 198.514 160.014 198.437 158.329C201.682 158.329 202.745 156.509 202.561 153.582C203.666 153.408 204.786 153.341 205.904 153.38C208.56 153.707 208.125 157.173 207.777 157.231C203.45 157.847 203.083 164.578 197.355 163.422C194.592 162.931 190.438 161.506 188.468 165.839Z" fill="#6AA03B"/>
<path d="M102.72 48.3047C101.754 46.2731 101.513 44.0393 98.7306 42.9705C96.4606 42.0943 96.7986 40.005 99.0397 38.7148C102.208 38.7148 105.367 38.6666 108.535 38.7148C109.762 38.7148 111.24 38.4548 111.433 40.2649C111.626 41.7573 111.53 43.2786 109.588 43.4712C107.646 43.6638 106.912 44.5785 106.507 46.3597C106.101 48.141 104.381 48.3913 102.72 48.3047Z" fill="#5D8F2F"/>
<path d="M183.716 148.508C187.522 148.017 188.97 149.914 188.777 153.466C187.125 153.64 184.991 152.802 184.199 155.017C183.571 156.75 183.233 158.647 180.818 157.963C178.403 157.279 179.234 155.151 179.098 153.515C179.002 152.244 179.098 150.963 179.098 149.663L179.243 148.566L183.716 148.508Z" fill="#46731E"/>
<path d="M202.562 153.649C202.745 156.538 201.683 158.463 198.437 158.396C196.076 158.069 193.671 158.266 191.395 158.974H190.207C188.208 157.558 188.787 155.459 188.758 153.524L193.443 153.466L202.562 153.649Z" fill="#46731E"/>
<path d="M113.316 86.5295C110.312 83.7372 112.003 80.1362 111.655 76.9011L119.325 77.1033H120.291C121.701 79.4141 121.855 81.3109 118.571 81.9175C117.942 81.9967 117.366 82.3092 116.958 82.7928C116.55 83.2764 116.34 83.8955 116.369 84.5268C116.205 86.4525 114.881 86.6835 113.316 86.5295Z" fill="#5D8F2F"/>
<path d="M29.674 162.864L24.1101 162.96C26.042 157.857 29.9059 154.718 34.7357 152.523L35.2186 153.486C33.5208 154.661 32.2073 156.309 31.4417 158.223C29.732 159.349 29.9541 161.198 29.674 162.864Z" fill="#5D8F2F"/>
<path d="M25.3949 52.7241C25.1274 52.8055 24.8936 52.971 24.7284 53.1959C20.71 53.5329 19.1355 51.9827 20.6907 48.0062C24.3323 47.5248 25.8199 49.1327 25.3949 52.7241Z" fill="#D4E1CA"/>
<path d="M20.2944 142.769L22.6707 143.867C21.5792 144.127 20.3427 144.724 20.2944 142.769Z" fill="#5D8F2F"/>
<path d="M182.093 172.569L183.667 170.692L183.86 172.617H182.093V172.569Z" fill="#6AA03B"/>
<path d="M34.301 19.1786L30.6497 19.583L34.301 19.1786Z" fill="#5D8F2F"/>
<path d="M16.9136 139.11C17.3847 138.938 17.8877 138.87 18.3879 138.91C18.8881 138.949 19.3738 139.097 19.8115 139.341L16.9136 139.11Z" fill="#5D8F2F"/>
<path d="M187.019 167.832C187.314 167.672 187.652 167.608 187.985 167.649C187.801 168.525 187.347 167.899 187.019 167.832Z" fill="#6AA03B"/>
<path d="M13.2239 134.287L14.9143 134.498L13.2239 134.287Z" fill="#5D8F2F"/>
<path d="M183.851 168.227L183.803 167.822H184.914L183.851 168.227Z" fill="#6AA03B"/>
<path d="M33.335 148.7L34.4168 149.201L33.335 148.7Z" fill="#5D8F2F"/>
<path d="M54.5861 19.6119L58.45 19.6697C58.5369 21.5954 58.45 23.9255 60.9808 23.9544C63.8304 23.9544 63.0286 21.4028 63.2411 19.6601L73.7411 19.5253C75.76 19.5253 77.605 19.6601 77.9237 22.279C78.2232 24.4358 80.0682 24.2817 81.6523 24.3299C83.5842 24.3876 85.5162 24.3973 87.3805 24.4358V24.3876C87.0231 27.9887 88.6362 29.6255 92.2682 29.2018C92.4421 31.5127 92.6257 33.7946 89.3704 34.1027C88.8848 34.1515 88.438 34.3891 88.127 34.764C87.816 35.1389 87.6658 35.6209 87.7089 36.1054C87.6316 37.3668 88.047 38.3681 89.3704 38.5992C91.1477 38.9073 92.2682 39.562 92.3455 41.6322C92.4035 44.6844 91.6983 47.804 96.2093 49.1134C97.9771 49.6334 97.5327 52.4737 94.857 53.09C93.1859 53.4751 92.3262 54.3224 92.558 56.0941C92.8285 58.0968 94.374 58.0197 95.8133 58.0197C97.8901 58.0197 99.9669 58.0197 102.044 58.0197L101.918 67.4267L98.0543 67.5615L97.0884 67.7733C97.0884 67.1475 97.0884 66.5216 97.0884 65.8958C97.0884 64.2397 96.9145 62.6799 94.7604 62.5162C93.2245 62.4007 92.4421 63.1324 92.3648 64.6826C92.2586 66.7238 93.3887 67.4652 95.2627 67.5711C95.8906 67.5711 96.5088 67.6771 97.1367 67.7348L97.2429 68.6977C96.4412 71.4033 98.9913 75.4376 95.3593 76.747C92.3938 77.8254 92.3359 79.4815 92.2586 81.7249L92.3262 81.6575C88.3368 81.3109 87.0038 83.3714 87.4384 87.0302L87.506 86.9628L79.7784 86.8473C78.7351 86.5006 78.0203 86.6643 78.059 87.9641C77.9913 89.5625 77.8368 91.1704 77.8754 92.7784C77.9237 94.9833 76.9095 95.9654 74.7264 96.0232C66.0328 96.2639 57.3874 96.7742 48.7324 95.7247C48.7324 94.0814 48.7614 92.4414 48.8194 90.8045H48.7711C48.856 90.8862 48.9582 90.9477 49.0703 90.9843C49.1824 91.021 49.3013 91.032 49.4183 91.0164C54.364 91.1127 59.3097 91.1993 64.265 91.3148C67.3078 91.3822 68.7761 90.1209 68.1289 86.9532C73.1422 86.2696 73.9826 85.0275 73.1229 79.7318C72.8911 78.3261 72.5433 77.2959 70.8915 77.2381C69.0176 77.1803 68.3704 78.2009 68.3318 79.9052C68.2802 82.2802 68.2352 84.6552 68.1965 87.0302C62.0393 86.5218 55.8523 86.48 49.6887 86.905C49.3918 86.857 49.091 86.8376 48.7904 86.8473C48.7904 81.6094 48.887 76.3619 48.7904 71.124C48.7904 67.6578 49.9495 63.7101 44.9845 62.0733C43.5935 61.6111 44.0958 59.5314 43.9703 58.1353L68.1675 58.0486C68.5346 59.7143 67.3272 62.1022 70.1961 62.6125C70.9398 62.7473 72.128 62.8436 72.1763 61.8904C72.4274 59.3677 70.1188 59.1174 68.5443 58.2412C68.3985 58.1794 68.2462 58.1342 68.0903 58.1064C69.0562 54.3513 67.1243 52.8974 63.7531 52.5893L63.9946 48.6513C65.5651 48.4642 67.1463 48.3805 68.7278 48.4009C72.3598 48.6705 73.7218 47.1396 72.9007 43.5867C74.8327 43.1438 78.059 44.4822 77.7305 40.8619C77.518 38.4066 80.0585 34.4493 74.9099 33.8427L73.1326 32.9377C73.6252 28.2486 70.2347 29.2981 67.5204 29.0189C63.4633 28.6049 63.2605 31.1372 63.3184 34.0161C59.8603 33.3324 58.4886 34.5745 58.4886 38.2429C58.4886 41.9114 59.0199 44.2318 63.3184 43.5289L63.0866 47.8425C59.5705 47.6788 57.8607 49.1327 58.6335 52.8011L54.1804 52.5797C53.5912 50.9332 55.1464 48.1217 51.5627 48.0928C48.1239 48.0928 49.1961 50.7118 48.7421 52.4738C47.4431 52.8662 46.0525 52.8359 44.772 52.3871C44.8589 48.3913 42.8401 47.3033 39.266 48.5357H34.9868C34.7152 48.4626 34.4746 48.3038 34.301 48.0832C34.3493 46.0805 34.0595 44.3955 31.9344 43.269C30.1667 42.3639 29.8672 40.1879 31.5673 39.4176C34.8902 37.9348 35.3732 35.4988 35.2863 32.4562C35.2863 31.3297 35.4215 30.078 36.6966 29.6833C37.9716 29.2885 38.6961 30.2802 39.1501 31.3779C39.8359 33.0436 40.9178 34.1027 42.8497 33.4961C44.5208 32.9666 44.9555 31.4645 44.7817 30.0203C44.2987 25.5912 46.4431 24.0891 50.5774 23.9832C53.1469 23.9736 54.7793 22.4331 54.5861 19.6119ZM73.2775 73.3964L73.3451 75.5339C74.6298 77.5366 76.3395 77.4595 77.547 75.7842C79.9909 72.3372 82.6183 69.1791 86.4435 67.1764C87.651 66.5409 87.5157 65.3373 87.4095 64.2108C87.3032 63.0843 86.4435 62.7184 85.4775 62.4488C80.3483 61.0719 77.9817 62.728 77.8368 67.8696C77.8368 69.4583 78.001 71.1048 76.7742 72.4046L73.8764 72.5394L73.2775 73.3964ZM87.3515 55.6415C87.3515 55.0465 87.1144 54.4759 86.6923 54.0552C86.2702 53.6344 85.6977 53.3981 85.1008 53.3981C84.5039 53.3981 83.9314 53.6344 83.5093 54.0552C83.0873 54.4759 82.8501 55.0465 82.8501 55.6415C82.8233 55.9177 82.8566 56.1963 82.9478 56.4584C83.039 56.7205 83.186 56.9599 83.3786 57.1601C83.5712 57.3604 83.805 57.5168 84.0639 57.6186C84.3228 57.7204 84.6007 57.7653 84.8786 57.7502C86.3565 57.8561 87.2839 57.2302 87.3322 55.6415H87.3515ZM84.3763 43.7311C83.3428 43.8178 82.7342 44.694 82.8694 46.2345C83.0047 47.7751 84.0769 48.3143 85.5258 48.1602C86.9748 48.0062 87.3515 47.1011 87.3515 45.859C87.3225 44.2607 86.4628 43.6252 84.357 43.7311H84.3763Z" fill="#7AB74A"/>
<path d="M48.7226 95.6765C57.4163 96.726 66.0423 96.2061 74.7166 95.9654C76.9383 95.9076 77.9139 94.9255 77.8656 92.7205C77.8656 91.1222 77.9816 89.5239 78.0492 87.9063L79.7686 86.7894L87.4963 86.905C87.4963 88.9559 87.9793 91.2089 84.8399 91.4977C83.2654 91.6422 82.8017 92.8265 82.7921 94.2419C82.7921 96.9571 82.7921 99.6626 82.7921 102.378C82.7921 103.928 83.1108 105.266 85.0041 105.488C86.6848 105.68 87.6798 106.451 87.4383 108.28C87.1292 110.639 85.2456 110.206 83.7483 110.273C79.8845 110.36 76.0207 110.273 72.2244 110.36C70.6403 110.36 68.7663 110.264 68.4379 112.401C67.9066 115.829 65.54 115.068 63.3183 114.885L63.7143 110.148C66.6122 110.658 68.6987 110.071 68.322 106.47C70.7272 106.345 73.1518 106.306 75.528 106.056C77.2667 105.873 77.8657 104.573 77.8367 102.946C77.8077 101.319 76.6389 100.808 75.2479 100.808C72.8427 100.808 70.4181 100.914 68.0322 100.972C64.4292 100.115 63.0092 101.579 63.5598 105.141C62.2557 105.95 60.9034 105.671 59.5414 105.343L58.6817 104.188C58.6817 102.407 58.276 100.963 56.006 101.165C55.7209 101.15 55.4363 101.201 55.1739 101.313C54.9115 101.425 54.6782 101.595 54.4919 101.811C54.3055 102.026 54.171 102.281 54.0986 102.556C54.0262 102.832 54.0178 103.12 54.0741 103.398C54.2769 105.738 56.0736 105.469 57.6674 105.459C57.9918 105.438 58.3145 105.397 58.6334 105.334H59.0971H59.5511L59.0005 106.133L58.7106 107.308L58.4788 110.032C56.8947 110.1 55.5809 111.467 53.8326 110.812C53.784 110.606 53.7194 110.403 53.6394 110.206C53.7553 108.511 54.5281 106.489 51.8524 106.066C49.6113 105.709 49.1187 107.173 49.0994 108.954L48.9641 110.206C48.9389 110.447 48.8937 110.685 48.8289 110.918L44.9651 111.015C44.8813 110.783 44.804 110.549 44.7332 110.312L44.2502 109.012L43.9604 105.257C48.0368 106.268 49.4278 104.419 49.0607 100.568C48.9255 99.1716 49.0124 97.7562 48.9931 96.3505C49.0158 96.0812 48.9622 95.811 48.8385 95.5706L48.7226 95.6765Z" fill="#2F4E16"/>
<path d="M44.9265 111.034L48.7904 110.938C49.2637 112.738 48.0755 115.655 51.3791 115.636C54.3253 115.636 53.4366 112.998 53.765 111.265C53.7751 111.105 53.7751 110.944 53.765 110.784C55.4651 111.438 56.8368 110.071 58.4113 110.004L58.9716 110.581L58.6432 115.251C58.6871 115.26 58.7285 115.278 58.764 115.305C58.7995 115.333 58.8282 115.368 58.8479 115.408C58.8675 115.448 58.8776 115.492 58.8773 115.537C58.8769 115.581 58.8662 115.625 58.846 115.665L58.5948 116.898V118.602L58.4499 119.748C55.9674 119.873 53.3497 119.834 53.823 123.541L52.6639 124.687H50.8285C50.4534 124.638 50.0725 124.715 49.7457 124.904C49.4188 125.094 49.1643 125.387 49.0222 125.736L48.7904 143.771C46.5686 143.771 44.1827 143.443 44.202 140.689C44.231 130.801 42.9946 120.874 44.9265 111.034Z" fill="#7AB74A"/>
<path d="M48.7903 143.771C48.8804 137.743 48.9674 131.716 49.0511 125.688L50.8575 124.639H52.6928L54.0644 125.38L53.9582 147.526L54.6537 148.488C58.4402 148.132 59.3386 150.212 58.8749 153.447H58.9618L49.0414 153.399L48.7903 143.771Z" fill="#34541A"/>
<path d="M49.0125 153.36L58.9329 153.409C58.7591 155.302 58.5852 157.193 58.4113 159.08C56.8464 157.973 55.0498 158.329 53.3304 158.31C46.0181 158.242 38.7154 158.232 31.4031 158.194C32.1687 156.28 33.4821 154.632 35.18 153.457L49.0125 153.36Z" fill="#6AA03B"/>
<path d="M48.7902 90.7564C48.7902 92.3997 48.7612 94.0397 48.7032 95.6765L48.7805 95.5995L47.6889 96.2061C45.332 96.1098 44.1535 97.1208 44.2018 99.5857C44.2018 101.511 44.0087 103.379 43.9024 105.286C40.8596 106.354 39.5073 105.411 39.3044 102.06C38.7248 91.777 38.6379 91.777 48.7902 90.7564Z" fill="#2F4E16"/>
<path d="M49.4084 90.9875C49.2915 91.0031 49.1726 90.9922 49.0605 90.9555C48.9484 90.9188 48.8461 90.8573 48.7612 90.7757C48.7612 89.4534 48.7612 88.1311 48.7612 86.8088C49.0619 86.7988 49.3627 86.8181 49.6596 86.8665L49.4084 90.9875Z" fill="#528228"/>
<path d="M44.1731 109.031L44.6561 110.331L44.1731 109.031Z" fill="#528228"/>
<path d="M34.301 48.0928C34.4747 48.3134 34.7153 48.4722 34.9869 48.5453L34.8999 52.8107H29.6355C29.1332 49.1327 30.8043 47.7077 34.301 48.0928Z" fill="#D4E1CA"/>
<path d="M43.6806 21.5858C43.6806 22.4138 43.4681 23.29 42.5697 23.4537C41.3236 23.6848 40.9952 22.6642 40.8117 21.7206C40.6281 20.777 40.8117 20.0645 41.8259 19.9393C42.0618 19.8944 42.3048 19.9041 42.5363 19.9678C42.7678 20.0315 42.9814 20.1474 43.1607 20.3066C43.34 20.4657 43.4802 20.6639 43.5703 20.8857C43.6605 21.1076 43.6982 21.3471 43.6806 21.5858V21.5858Z" fill="#7AB74A"/>
<path d="M121.334 167.938L121.237 172.627L116.552 172.819L116.321 172.569L116.552 167.919L121.16 167.765L121.334 167.938Z" fill="#24390E"/>
<path d="M116.562 167.909L116.33 172.56L30.2922 172.454C30.2922 169.385 30.2761 166.317 30.2439 163.249C38.5125 163.191 46.7908 163.037 55.0594 163.124C58.1408 163.124 59.0875 161.92 58.4306 159.099C60.6717 157.79 63.1445 158.444 65.5111 158.281C67.2305 158.165 68.2448 157.578 68.1482 155.691C68.0612 154.034 67.0663 153.505 65.598 153.495H58.8363C59.3 150.26 58.4016 148.18 54.6151 148.537L53.9196 147.574C53.9582 140.205 53.9937 132.823 54.0259 125.428C54.1427 125.377 54.2482 125.302 54.3361 125.21C54.4239 125.117 54.4925 125.008 54.5378 124.889C56.6243 124.754 58.8653 124.831 58.7011 121.741L60.4785 120.008L63.2508 119.671L63.5019 118.708L63.2894 114.856L63.2411 114.933C65.4338 115.116 67.8294 115.896 68.3607 112.449C68.6891 110.312 70.5631 110.437 72.1472 110.408C76.0111 110.35 79.8749 110.408 83.6711 110.321C85.1684 110.321 87.052 110.687 87.3611 108.328C87.6026 106.47 86.6077 105.729 84.9269 105.536C82.995 105.324 82.7148 103.976 82.7148 102.426C82.7148 99.7108 82.7148 97.0052 82.7148 94.29C82.7148 92.8746 83.1882 91.6903 84.7627 91.5459C87.902 91.2474 87.448 89.004 87.4191 86.9532L87.3515 87.0206C90.9545 87.0206 93.1472 85.7496 92.2392 81.6479L92.1716 81.7153L101.783 81.4938C101.841 84.0646 101.715 86.568 105.299 87.1939C107.067 87.502 106.545 89.4951 106.738 90.8527C104.7 91.1608 101.908 90.3424 101.908 93.8471C101.908 95.3299 102.623 96.3987 104.15 96.2831C107.675 96.0328 106.497 93.2694 106.68 91.2474C106.693 91.0905 106.693 90.9326 106.68 90.7757L111.182 91.1801C111.723 93.3465 110.969 96.2735 114.572 96.5816C114.816 96.6053 115.052 96.6795 115.266 96.7995C115.479 96.9195 115.665 97.0826 115.811 97.2785C115.958 97.4743 116.062 97.6985 116.116 97.9366C116.17 98.1748 116.174 98.4216 116.127 98.6613C116.113 99.1474 115.915 99.61 115.573 99.9565C115.231 100.303 114.77 100.508 114.282 100.529C112.408 100.837 111.336 101.762 111.645 103.774C112.041 106.306 114.099 105.95 115.789 105.96C118.687 105.96 121.517 105.835 121.305 109.984C121.404 110.14 121.536 110.273 121.691 110.373C121.847 110.474 122.022 110.54 122.205 110.568C122.388 110.595 122.575 110.583 122.753 110.532C122.931 110.481 123.096 110.393 123.237 110.273L125.787 110.745C125.864 112.138 125.942 113.528 126.019 114.914L121.034 115.415C119.547 114.799 117.171 115.906 116.62 113.643C116.147 111.563 115.712 109.878 113.123 110.533C110.535 111.188 111.8 113.325 111.491 114.866C109.858 115.463 107.376 114.365 106.835 117.129C106.381 119.468 107.878 120.162 109.781 120.566C110.26 120.653 110.686 120.923 110.967 121.319C111.249 121.715 111.364 122.205 111.288 122.684C111.23 124.129 110.167 124.475 109.028 124.697C107.598 124.976 106.738 125.659 106.825 127.277C106.82 127.556 106.87 127.833 106.973 128.093C107.076 128.352 107.229 128.589 107.424 128.79C107.618 128.99 107.851 129.15 108.108 129.261C108.365 129.371 108.641 129.43 108.921 129.434C111.993 129.829 111.404 132.197 111.549 134.181C107.453 133.728 106.555 135.827 106.584 139.534C106.613 143.241 108.216 144.29 111.539 143.751C111.539 145.375 111.539 146.999 111.539 148.623C109.733 148.999 106.864 147.843 106.883 151.079C106.903 154.314 109.675 153.187 111.539 153.38C111.017 157.106 112.37 158.964 116.369 158.194C119.769 157.972 121.962 158.945 121.054 162.941C117.47 162.642 115.78 164.164 116.562 167.909ZM106.671 107.751C106.729 106.393 105.888 105.623 104.372 105.623C102.507 105.623 101.928 106.768 102.044 108.434C102.16 110.1 103.106 110.62 104.604 110.533C106.101 110.447 106.748 109.455 106.661 107.76L106.671 107.751ZM111.5 165.348C111.452 163.721 110.535 163.104 108.989 163.181C108.706 163.16 108.422 163.201 108.157 163.301C107.892 163.402 107.652 163.559 107.455 163.762C107.257 163.965 107.107 164.209 107.015 164.476C106.923 164.744 106.891 165.028 106.922 165.309C106.863 165.628 106.881 165.955 106.973 166.266C107.065 166.576 107.229 166.861 107.452 167.096C107.675 167.331 107.95 167.511 108.256 167.621C108.562 167.73 108.889 167.766 109.211 167.726C109.527 167.767 109.848 167.732 110.148 167.625C110.448 167.518 110.718 167.342 110.937 167.111C111.156 166.88 111.316 166.601 111.406 166.296C111.495 165.991 111.511 165.67 111.452 165.357L111.5 165.348Z" fill="#7AB749"/>
<path d="M188.758 153.486C188.758 155.411 188.207 157.52 190.207 158.935L187.889 162.97C180.364 162.97 172.771 162.43 165.324 163.191C159.093 163.817 154.148 161.699 151.153 157.164C148.613 153.312 145.734 153.361 142.247 153.399C140.006 153.399 137.765 153.543 135.485 153.62C134.906 147.256 129.796 143.722 121.286 143.79C121.286 135.824 121.286 127.861 121.286 119.902C124.232 120.094 126.396 119.42 125.893 115.781L130.723 115.848C130.414 119.459 132.529 123.975 126.724 125.477C125.642 125.765 125.681 127.922 126.859 128.731C128.366 129.771 129.97 129.54 130.723 127.566C132.066 123.83 135.195 125.371 137.668 125.265C140.412 125.159 140.383 127.383 140.566 129.309L139.146 129.395C137.552 129.511 135.852 129.501 135.804 131.774C135.757 132.088 135.786 132.409 135.889 132.71C135.991 133.011 136.165 133.283 136.395 133.504C136.624 133.724 136.904 133.887 137.209 133.978C137.515 134.069 137.838 134.085 138.151 134.027C140.412 133.94 140.421 132.284 140.441 130.657C140.441 130.185 140.441 129.694 140.489 129.241L150.149 129.289C150.149 131.706 150.226 134.104 146.826 134.489C145.734 134.604 145.425 135.663 145.454 136.674C145.483 137.685 145.898 138.793 146.98 138.716C149.878 138.523 153.742 141.075 155.133 135.923C155.741 133.613 157.838 134.306 159.538 134.537C159.625 137.782 160.108 141.046 158.823 144.165L157.471 144.522L156.34 144.425L156.012 144.454L155.046 144.733C155.014 145.054 155.014 145.376 155.046 145.696V147.622C156.08 148.951 157.528 148.585 158.91 148.585C160.774 144.522 168.231 142.143 172.366 144.281C174.51 145.388 173.679 147.169 173.515 148.864C171.299 148.71 169.075 148.71 166.86 148.864C164.425 149.191 163.962 151.262 165.498 152.629C167.343 154.323 170.067 153.592 172.366 153.245C174.665 152.898 174.172 151.021 174.056 149.394C175.775 148.671 177.427 149.211 179.079 149.682C179.079 150.953 178.992 152.244 179.079 153.534C179.214 155.171 178.451 157.318 180.798 157.982C183.146 158.647 183.551 156.769 184.179 155.036C184.991 152.831 187.096 153.659 188.758 153.486Z" fill="#79B648"/>
<path d="M174.046 149.422C174.162 151.001 174.52 152.908 172.356 153.274C170.192 153.64 167.333 154.352 165.488 152.658C164 151.29 164.416 149.22 166.85 148.893C169.066 148.739 171.29 148.739 173.505 148.893C173.651 149.101 173.835 149.281 174.046 149.422V149.422Z" fill="#46731E"/>
<path d="M158.91 148.546C157.538 148.546 156.089 148.931 155.046 147.583C156.409 147.41 157.789 147.753 158.91 148.546V148.546Z" fill="#46731E"/>
<path d="M155.046 145.677C155.014 145.357 155.014 145.034 155.046 144.714L156.012 144.435H156.369L155.046 145.677Z" fill="#46731E"/>
<path d="M157.538 144.589L158.89 144.233C158.827 144.347 158.742 144.447 158.639 144.527C158.536 144.608 158.417 144.666 158.291 144.7C158.164 144.733 158.032 144.74 157.903 144.721C157.774 144.702 157.65 144.657 157.538 144.589Z" fill="#46731E"/>
<path d="M101.831 81.465L92.2197 81.6865C92.3067 79.4527 92.3646 77.787 95.3205 76.7086C98.9525 75.3895 96.4023 71.3648 97.2041 68.6592L97.9769 67.5231L101.841 67.3882L101.986 77.4403L101.812 81.2917V81.4361L101.831 81.465Z" fill="#2F4E16"/>
<path d="M101.831 81.3205L102.005 77.4692C103.937 77.3536 106.622 76.3812 106.526 79.5971C106.429 83.0729 103.531 80.9932 101.831 81.3205Z" fill="#79B648"/>
<path d="M58.6624 52.8203C57.8896 49.1519 59.6284 47.698 63.1155 47.8617L63.9849 48.6127L63.7434 52.5508C62.0916 53.3981 60.3818 53.0803 58.6624 52.8203Z" fill="#D4E1CA"/>
<path d="M48.7903 52.5027C49.2443 50.7407 48.1721 48.0929 51.6109 48.1218C55.1946 48.1218 53.6394 50.9525 54.2286 52.6086C53.3652 52.9713 52.435 53.1493 51.4982 53.1311C50.5614 53.1128 49.6388 52.8987 48.7903 52.5027Z" fill="#D4E1CA"/>
<path d="M39.2949 48.5069C42.898 47.3226 44.8878 48.4106 44.8009 52.3582C43.0525 53.3211 41.1882 53.1767 39.3142 53.0226C39.3014 51.5398 39.2949 50.0346 39.2949 48.5069Z" fill="#D4E1CA"/>
<path d="M39.295 48.5068C39.295 50.0281 39.295 51.5494 39.295 53.0707L34.9192 52.8011L35.0061 48.5357L39.295 48.5068Z" fill="#84BB55"/>
<path d="M126.067 115.781C126.569 119.42 124.406 120.094 121.459 119.902L121.121 115.405L126.106 114.905C126.058 115.194 126.045 115.488 126.067 115.781V115.781Z" fill="#46731E"/>
<path d="M63.2797 19.66C63.0768 21.4028 63.8689 23.9832 61.0193 23.9543C58.4692 23.9543 58.5755 21.5665 58.4885 19.6697H63.3183L63.2797 19.66Z" fill="#84BB55"/>
<path d="M92.2584 29.2307C88.6263 29.6255 87.0132 27.9887 87.3706 24.4165C91.0606 23.9158 92.7027 25.5238 92.2584 29.2307Z" fill="#46731E"/>
<path d="M123.285 110.264C123.144 110.383 122.979 110.472 122.801 110.522C122.623 110.573 122.436 110.585 122.253 110.558C122.07 110.531 121.895 110.464 121.74 110.364C121.584 110.263 121.453 110.13 121.353 109.975L123.285 110.264Z" fill="#5D8F2F"/>
<path d="M58.45 159.109C59.1068 161.93 58.1602 163.162 55.0788 163.133C46.8102 163.056 38.5415 163.201 30.2633 163.259L29.6934 162.864C29.9735 161.198 29.761 159.359 31.4224 158.204C38.7347 158.204 46.0374 158.204 53.3497 158.319C55.0691 158.319 56.8658 157.982 58.4307 159.089L58.45 159.109Z" fill="#24390E"/>
<path d="M191.395 158.974C193.671 158.266 196.076 158.069 198.437 158.396C198.524 160.091 198.524 161.641 196.07 161.497C194.071 161.381 191.753 162.016 191.395 158.974Z" fill="#79B648"/>
<path d="M76.8032 72.4047C78.0396 71.0952 77.8271 69.4584 77.8657 67.8697C78.0106 62.7281 80.3772 61.072 85.5065 62.4489C86.4724 62.7185 87.3418 63.0362 87.4384 64.2109C87.535 65.3855 87.6606 66.5409 86.4724 67.1764C82.6086 69.1791 80.0198 72.3373 77.5759 75.7842C76.3588 77.4885 74.6781 77.5366 73.374 75.5339C75.3059 75.3991 76.6969 74.6288 76.8032 72.4047Z" fill="#34541A"/>
<path d="M49.4084 90.9875L49.6403 86.8665C55.8038 86.4413 61.9909 86.4832 68.1481 86.9917L68.0708 86.9146C68.7663 90.0824 67.298 91.3437 64.2069 91.2763C59.2998 91.1704 54.3542 91.0838 49.4084 90.9875Z" fill="#2F4E16"/>
<path d="M60.0182 32.0997C62.4446 29.6712 64.9144 27.9256 70.169 34.268C73.6559 38.4845 79.2934 42.6739 74.5343 45.7553L73.4833 46.3894L60.05 32.1504L60.0182 32.0997Z" fill="#2D2D2D"/>
<path d="M63.2448 47.3665C60.7357 45.0235 58.9077 42.6141 65.069 37.1483C69.1654 33.5209 73.162 27.7452 76.4024 32.3975L77.0715 33.4265L63.2944 47.3331L63.2448 47.3665Z" fill="#2D2D2D"/>
<path d="M68.1096 87.0014C68.1547 84.6264 68.1998 82.2514 68.2449 79.8763C68.2449 78.2106 68.9307 77.1515 70.8047 77.2093C72.4564 77.2671 72.8042 78.2973 73.036 79.703C73.8957 84.9698 73.036 86.2407 68.042 86.9244L68.1096 87.0014Z" fill="#2F4E16"/>
<path d="M97.0883 67.6771C96.4604 67.6193 95.8422 67.5422 95.2144 67.5134C93.3694 67.4363 92.2392 66.6949 92.3165 64.6248C92.3937 63.065 93.1858 62.3429 94.7121 62.4584C96.8662 62.6221 97.04 64.1819 97.04 65.838C97.04 66.4639 97.04 67.0897 97.04 67.7155L97.0883 67.6771Z" fill="#46731E"/>
<path d="M87.332 55.6319C87.2837 57.2302 86.3661 57.856 84.8688 57.7886C84.5909 57.8038 84.313 57.759 84.0541 57.6571C83.7952 57.5553 83.5614 57.3989 83.3688 57.1987C83.1761 56.9984 83.0292 56.7591 82.938 56.4969C82.8468 56.2348 82.8135 55.9562 82.8403 55.68C82.8171 55.3741 82.8572 55.0667 82.9579 54.7767C83.0587 54.4868 83.218 54.2206 83.4261 53.9945C83.6342 53.7684 83.8865 53.5873 84.1677 53.4623C84.4488 53.3373 84.7526 53.2711 85.0604 53.2678C85.3682 53.2645 85.6734 53.3241 85.9571 53.4431C86.2409 53.562 86.4971 53.7377 86.71 53.9593C86.9229 54.1809 87.088 54.4436 87.195 54.7313C87.302 55.019 87.3486 55.3255 87.332 55.6319Z" fill="#46731E"/>
<path d="M92.2584 81.619C93.2244 85.7208 90.9737 86.9821 87.3707 86.9917C86.965 83.3329 88.298 81.2724 92.2584 81.619Z" fill="#34541A"/>
<path d="M84.3571 43.7311C86.4339 43.6252 87.3226 44.2607 87.3322 45.8686C87.3322 47.1107 86.8879 48.0254 85.5066 48.1698C84.1252 48.3142 83.0047 47.8713 82.8502 46.2441C82.6956 44.6169 83.3235 43.8178 84.3571 43.7311Z" fill="#46731E"/>
<path d="M68.1094 58.0678C68.2653 58.0956 68.4176 58.1408 68.5634 58.2027C70.1379 59.0692 72.4272 59.3292 72.1954 61.8518C72.0988 62.8146 70.9493 62.6991 70.2152 62.5739C67.3173 62.0636 68.5537 59.6854 68.1866 58.0101L68.1094 58.0678Z" fill="#34541A"/>
<path d="M76.803 72.4047C76.7257 74.6288 75.3347 75.3991 73.3545 75.5243C73.3545 74.8118 73.3319 74.0993 73.2869 73.3868L73.9341 72.5298L76.803 72.4047Z" fill="#2F4E16"/>
<path d="M79.7589 86.8087L78.0395 87.9256C78.0009 86.6258 78.735 86.4621 79.7589 86.8087Z" fill="#34541A"/>
<path d="M74.8711 33.862L72.9392 33.9679L73.0648 32.9569L74.8711 33.862Z" fill="#5D8F2F"/>
<path d="M97.9866 67.5327L97.2139 68.6688L97.1076 67.706L97.0593 67.7734L97.9866 67.5327Z" fill="#46731E"/>
<path d="M73.9053 72.5394L73.2581 73.3964L73.9053 72.5394Z" fill="#34541A"/>
<path d="M67.9646 100.991C70.3698 100.934 72.7944 100.828 75.1803 100.828C76.5713 100.828 77.7498 101.242 77.7691 102.965C77.7884 104.689 77.1992 105.854 75.4604 106.075C73.0745 106.335 70.6306 106.364 68.2544 106.489C68.2222 106.2 68.1932 105.912 68.1674 105.623L67.9646 100.991Z" fill="#79B648"/>
<path d="M68.1677 105.613C68.1677 105.902 68.1967 106.191 68.2546 106.48C68.6314 110.09 66.5739 110.668 63.647 110.158L58.9621 110.581L58.4019 110.004L58.6337 107.279L58.9235 106.104L59.4741 105.305V105.353C60.8361 105.68 62.1884 105.96 63.4925 105.151L68.1677 105.613Z" fill="#7AB74A"/>
<path d="M43.9604 105.286C44.0667 103.36 44.2985 101.483 44.2599 99.5857C44.2599 97.1208 45.3997 96.1099 47.747 96.2061L48.9931 96.3794C48.9931 97.7852 48.9255 99.2006 49.0607 100.597C49.3795 104.448 47.9885 106.297 43.9604 105.286Z" fill="#7AB74A"/>
<path d="M53.7457 110.755C53.7558 110.915 53.7558 111.076 53.7457 111.236C53.4173 112.96 54.3059 115.588 51.3598 115.607C48.0658 115.607 49.254 112.719 48.771 110.909C48.8358 110.675 48.881 110.437 48.9062 110.196L49.6307 109.927L53.5718 110.167C53.6443 110.359 53.7025 110.555 53.7457 110.755V110.755Z" fill="#ACD885"/>
<path d="M68.1674 105.613L63.4922 105.161C62.9513 101.598 64.3616 100.135 67.9646 100.991L68.1674 105.613Z" fill="#ACD885"/>
<path d="M58.9619 110.581L63.6469 110.158L63.2798 114.905L63.3281 114.828L58.6528 115.261L58.9619 110.581Z" fill="#ACD885"/>
<path d="M58.5658 105.343C58.247 105.406 57.9243 105.448 57.5999 105.469C56.006 105.469 54.2094 105.758 54.0065 103.408C53.9502 103.129 53.9586 102.841 54.031 102.566C54.1034 102.291 54.238 102.036 54.4243 101.82C54.6107 101.605 54.844 101.435 55.1064 101.323C55.3688 101.211 55.6534 101.16 55.9384 101.174C58.2084 100.963 58.6045 102.416 58.6045 104.198L58.5658 105.343Z" fill="#7AB74A"/>
<path d="M53.5524 110.187L49.6113 109.946L49.0125 108.983C49.0125 107.173 49.5244 105.709 51.7654 106.094C54.4411 106.47 53.678 108.492 53.5524 110.187Z" fill="#7AB74A"/>
<path d="M58.9233 106.114L58.6335 107.289L58.9233 106.114Z" fill="#528228"/>
<path d="M49.0125 108.964L49.6114 109.927L48.887 110.196L49.0125 108.964Z" fill="#528228"/>
<path d="M58.5658 105.344L58.6141 104.207L59.4738 105.363H59.0198H58.5562L58.5658 105.344Z" fill="#528228"/>
<path d="M48.9546 96.3795L47.7085 96.2061L48.8 95.5995C48.9237 95.84 48.9773 96.1102 48.9546 96.3795V96.3795Z" fill="#528228"/>
<path d="M58.7107 121.731C58.875 124.822 56.6339 124.754 54.5475 124.88L53.823 123.541C53.3497 119.834 55.9674 119.873 58.4499 119.748L58.7107 121.731Z" fill="#2F4E16"/>
<path d="M58.6335 115.261L63.3088 114.828L63.5213 118.679L63.2701 119.642L60.4978 119.979L58.5659 118.602C58.5659 118.031 58.5659 117.462 58.5659 116.898L58.8171 115.665C58.8356 115.627 58.8455 115.585 58.8461 115.543C58.8466 115.501 58.8378 115.459 58.8203 115.42C58.8028 115.382 58.777 115.347 58.7447 115.32C58.7125 115.292 58.6745 115.272 58.6335 115.261V115.261Z" fill="#2F4E16"/>
<path d="M58.5852 118.611L60.5171 119.988L58.7397 121.721L58.45 119.748L58.5852 118.611Z" fill="#5D8F2F"/>
<path d="M53.8132 123.532L54.5377 124.87C54.4935 124.991 54.4254 125.102 54.3375 125.196C54.2495 125.29 54.1435 125.366 54.0257 125.419L52.6541 124.677L53.8132 123.532Z" fill="#5D8F2F"/>
<path d="M50.8283 124.639L49.022 125.688C49.1641 125.339 49.4186 125.046 49.7455 124.856C50.0723 124.666 50.4532 124.59 50.8283 124.639V124.639Z" fill="#5D8F2F"/>
<path d="M58.8266 115.675L58.5754 116.907L58.8266 115.675Z" fill="#5D8F2F"/>
<path d="M58.45 159.109C58.6238 157.221 58.7977 155.331 58.9716 153.438H58.8846H65.6464C67.1146 153.438 68.1095 153.977 68.1965 155.633C68.2931 157.558 67.2788 158.107 65.5594 158.223C63.1252 158.444 60.6523 157.799 58.45 159.109Z" fill="#2F4E16"/>
<path d="M53.9197 147.526L54.6152 148.489L53.9197 147.526Z" fill="#5D8F2F"/>
<path d="M121.122 162.893C122.03 158.887 119.837 157.924 116.437 158.146L116.321 153.332L116.224 148.633H116.649L121.228 148.508V148.623C120.774 152.292 122.503 153.746 126.058 153.38H126.009C126.009 156.528 125.855 159.686 126.058 162.816C126.289 166.349 125.092 168.265 121.295 167.957L121.131 167.784C121.138 166.147 121.134 164.517 121.122 162.893Z" fill="#24390E"/>
<path d="M121.402 143.79C129.912 143.722 135.022 147.256 135.601 153.62L126.048 153.36H126.096C126.608 149.634 124.976 148.084 121.266 148.604V148.489L121.402 143.79Z" fill="#8AC357"/>
<path d="M121.121 162.893C121.121 164.517 121.121 166.141 121.121 167.765L116.514 167.919C115.78 164.164 117.47 162.642 121.121 162.893Z" fill="#46731E"/>
<path d="M121.402 143.79L121.237 148.537L116.659 148.662C116.549 146.993 116.443 145.324 116.34 143.655L116.282 134.296C116.282 130.82 116.379 127.354 116.379 123.878C116.379 122.299 116.456 120.451 114.495 119.979C111.539 119.266 111.597 117.09 111.597 114.837C111.906 113.297 110.766 111.13 113.23 110.504C115.693 109.878 116.243 111.535 116.726 113.614C117.248 115.877 119.624 114.779 121.141 115.386L121.479 119.882C121.434 127.855 121.408 135.824 121.402 143.79Z" fill="#2F4E16"/>
<path d="M111.578 114.837C111.578 117.1 111.578 119.266 114.476 119.979C116.408 120.451 116.359 122.299 116.359 123.878C116.359 127.354 116.301 130.82 116.263 134.296L111.539 134.094L111.607 134.152C111.462 132.168 112.051 129.8 108.979 129.405C108.699 129.401 108.423 129.342 108.166 129.232C107.909 129.121 107.676 128.961 107.482 128.761C107.287 128.56 107.134 128.324 107.031 128.064C106.928 127.804 106.878 127.527 106.883 127.248C106.796 125.66 107.646 124.957 109.086 124.668C110.216 124.446 111.278 124.1 111.346 122.655C111.422 122.176 111.307 121.686 111.025 121.29C110.744 120.895 110.318 120.624 109.839 120.537C107.907 120.133 106.439 119.44 106.893 117.1C107.424 114.336 109.907 115.434 111.578 114.837Z" fill="#46731E"/>
<path d="M111.578 143.732C108.255 144.271 106.661 143.26 106.622 139.515C106.584 135.769 107.482 133.738 111.587 134.161L111.52 134.104V143.799L111.578 143.732Z" fill="#46731E"/>
<path d="M106.748 90.7564C106.761 90.9134 106.761 91.0712 106.748 91.2282C106.574 93.2405 107.714 96.0424 104.217 96.2639C102.691 96.3698 101.967 95.301 101.976 93.8279C101.976 90.3231 104.739 91.1415 106.806 90.8334L106.748 90.7564Z" fill="#528228"/>
<path d="M106.661 107.76C106.748 109.465 106.207 110.447 104.584 110.543C102.961 110.639 102.14 110.033 102.024 108.444C101.908 106.855 102.478 105.623 104.352 105.632C105.879 105.632 106.748 106.403 106.661 107.76Z" fill="#46731E"/>
<path d="M116.33 143.655C116.433 145.324 116.54 146.993 116.649 148.662H116.224L111.539 148.585L111.607 148.652C111.607 147.028 111.607 145.404 111.607 143.78L111.549 143.838L116.33 143.655Z" fill="#46731E"/>
<path d="M111.578 153.351C109.713 153.168 106.941 154.314 106.922 151.05C106.902 147.786 109.771 148.97 111.578 148.594L111.51 148.527C111.51 150.151 111.51 151.778 111.51 153.409L111.578 153.351Z" fill="#46731E"/>
<path d="M116.33 153.312L116.446 158.127C112.447 158.926 111.104 157.067 111.616 153.312L111.549 153.38L116.33 153.312Z" fill="#46731E"/>
<path d="M111.443 165.357C111.509 165.675 111.497 166.004 111.408 166.315C111.319 166.627 111.156 166.913 110.931 167.148C110.707 167.383 110.429 167.56 110.121 167.664C109.813 167.768 109.484 167.796 109.163 167.745C108.841 167.785 108.513 167.749 108.208 167.64C107.902 167.53 107.627 167.351 107.404 167.115C107.181 166.88 107.017 166.596 106.924 166.285C106.832 165.975 106.815 165.647 106.874 165.329C106.843 165.048 106.875 164.763 106.967 164.496C107.059 164.228 107.209 163.984 107.406 163.781C107.604 163.578 107.843 163.421 108.109 163.321C108.374 163.22 108.658 163.179 108.941 163.201C110.467 163.124 111.404 163.711 111.443 165.357Z" fill="#46731E"/>
<path d="M63.2795 119.651L63.5307 118.689L63.2795 119.651Z" fill="#5D8F2F"/>
<path d="M140.556 129.28C140.556 129.752 140.556 130.243 140.508 130.695C140.508 132.322 140.508 133.978 138.219 134.065C137.905 134.124 137.582 134.107 137.277 134.016C136.971 133.925 136.692 133.763 136.462 133.542C136.232 133.321 136.059 133.049 135.956 132.748C135.853 132.448 135.824 132.126 135.872 131.812C135.872 129.549 137.62 129.549 139.214 129.434L140.634 129.347L140.556 129.28Z" fill="#46731E"/>
<path d="M156.012 144.454L155.046 144.733L156.012 144.454Z" fill="#528228"/>
<path d="M116.33 153.312L111.549 153.418C111.549 151.794 111.549 150.167 111.549 148.537L116.234 148.614L116.33 153.312Z" fill="#79B648"/>
<path d="M121.237 148.652C124.937 148.123 126.579 149.682 126.067 153.409C122.551 153.775 120.812 152.321 121.237 148.652Z" fill="#252A3E"/>
<path d="M116.33 143.655L111.5 143.79V134.104L116.224 134.306C116.276 137.419 116.311 140.535 116.33 143.655Z" fill="#79B648"/>
<rect x="9" y="98" width="3" height="3" fill="#BB261F"/>
<rect x="10" y="100" width="3" height="3" fill="#BB261F"/>
<rect x="12" y="102" width="3" height="3" fill="#BB261F"/>
<rect x="11" y="104" width="3" height="3" fill="#BB261F"/>
<rect x="6" y="106" width="3" height="3" fill="#BB261F"/>
<rect x="10" y="105" width="3" height="3" fill="#BB261F"/>
<rect x="12" y="105" width="5" height="10" fill="#BB261F"/>
<rect x="14" y="101" width="5" height="10" fill="#BB261F"/>
<rect x="14" y="110" width="4" height="8" fill="#BB261F"/>
<rect x="14" y="99" width="2" height="8" fill="#BB261F"/>
<rect x="12" y="109" width="5" height="10" fill="#BB261F"/>
<rect x="9" y="111" width="3" height="3" fill="#BB261F"/>
<rect x="1" y="114" width="3" height="3" fill="#BB261F"/>
<rect y="106" width="3" height="3" fill="#BB261F"/>
<rect x="4" y="99" width="3" height="3" fill="#BB261F"/>
</svg>
