<svg width="221" height="178" viewBox="0 0 221 178" fill="none" xmlns="http://www.w3.org/2000/svg">
<path d="M12.2237 134.817C9.54804 134.817 9.72191 132.892 9.71225 131.091C9.71225 119.222 9.71225 107.347 9.71225 95.4659C9.71225 94.2334 9.38382 92.327 10.8617 92.1344C14.9767 91.5952 14.3296 88.6682 14.3489 86.0396C14.3489 84.008 14.3489 82.092 17.1501 81.9764C17.9616 81.9764 18.8985 81.6491 18.9275 80.6959C19.0338 77.0756 21.5936 77.4318 24.0471 77.3259C25.979 77.2489 28.8769 78.0384 28.6064 74.7359C28.4229 72.3288 30.7895 68.5833 25.921 67.9093C24.2403 67.6782 23.9891 66.4554 23.9891 65.0882C23.9891 62.9988 23.9891 60.9191 23.9891 58.8297C30.2968 58.0305 36.6239 58.4349 42.9509 58.5986C43.0765 59.9947 42.5742 62.0745 43.9652 62.5366C48.9302 64.1735 47.7228 68.1211 47.7711 71.5874C47.8387 76.8252 47.7711 82.0727 47.7711 87.3106C47.7711 88.6329 47.7711 89.9552 47.7711 91.2775H47.8194C37.6478 92.2981 37.7347 92.2981 38.3626 102.562C38.5655 105.903 39.9178 106.847 42.9606 105.788L43.1828 109.552L43.6658 110.852C43.7366 111.09 43.8139 111.324 43.8976 111.555C41.9657 121.395 43.2407 131.322 43.1731 141.211C43.1731 143.964 45.5397 144.272 47.7614 144.292L48.0126 153.92L34.18 154.026L33.697 153.063L33.4459 149.741L32.364 149.241C31.0986 149.241 29.8332 149.241 28.5678 149.241C26.0563 149.356 23.738 149.385 23.738 145.813C23.738 144.638 22.5885 144.494 21.6322 144.378L19.2559 143.281C19.1948 143.13 19.11 142.99 19.0048 142.867L18.8116 139.872C18.3739 139.628 17.8883 139.48 17.388 139.44C16.8878 139.4 16.3849 139.469 15.9137 139.641C13.5278 138.852 14.8029 136.454 13.8756 135.029L12.2237 134.817Z" fill="#8AC357"/>
<path d="M19.6907 48.5369C18.7247 44.7529 19.3139 40.9015 19.256 37.079C19.256 36.3473 19.5941 34.9897 19.8935 34.9608C25.0421 34.412 23.7573 30.5413 23.9699 27.4025C24.0278 26.4396 24.0761 24.9472 25.0711 25.0435C28.9349 25.4094 28.2974 21.8854 29.6304 20.0945L33.2817 19.6901L33.7261 15.4054L48.6695 15.1262L52.7555 15.3188C52.8231 16.9556 52.6589 18.6213 53.5475 20.133C53.7697 22.9541 52.1373 24.4947 49.6354 24.5621C45.4818 24.668 43.3374 26.17 43.8397 30.5991C43.9942 32.0434 43.5595 33.5454 41.9077 34.075C39.9758 34.6816 38.8939 33.6224 38.2081 31.9567C37.7541 30.8591 37.1456 29.8288 35.7546 30.2621C34.3636 30.6954 34.3056 31.9086 34.3443 33.0351C34.4312 36.0777 33.9482 38.5233 30.6253 39.9965C28.9252 40.7571 29.2247 42.885 30.9924 43.8478C33.1175 44.9358 33.4073 46.6208 33.359 48.662C29.8332 48.2769 28.1525 49.7308 28.6934 53.3607L24.4142 53.3029C24.8199 49.6634 23.3323 48.0555 19.6907 48.5369ZM42.6805 22.1068C42.6965 21.8689 42.6577 21.6305 42.5668 21.4099C42.476 21.1893 42.3356 20.9924 42.1565 20.8343C41.9774 20.6763 41.7643 20.5612 41.5337 20.4981C41.303 20.4349 41.0609 20.4253 40.8259 20.47C39.8019 20.5952 39.6377 21.4328 39.8116 22.2513C39.9855 23.0697 40.3332 24.1769 41.5696 23.9844C42.468 23.8207 42.6419 22.9445 42.6805 22.1068V22.1068Z" fill="#84BB55"/>
<path d="M182.851 173.11L201.011 173.177C205.995 173.177 210.989 173.11 215.973 173.177C217.905 173.177 220.948 172.532 220.996 175.411C221.045 178.723 217.809 177.905 215.761 177.914C201.117 177.991 186.483 177.914 171.839 177.914H115.369C115.427 176.38 115.485 174.846 115.543 173.312L120.228 173.119H158.876H181.093H182.86L182.851 173.11Z" fill="#212121"/>
<path d="M115.553 173.341L115.408 177.943H24.6074L24.5398 173.389L29.2634 172.975L115.301 173.081L115.553 173.341Z" fill="#24390E"/>
<path d="M187.468 166.37L186.946 168.18C186.613 168.138 186.275 168.202 185.98 168.363H182.764C174.746 168.681 166.71 167.852 158.692 168.758C152.568 170.587 148.675 166.071 145.091 162.855C143.208 161.17 142.763 158.186 139.238 158.84C135.47 159.534 134.031 157.791 134.514 154.17C136.755 154.093 138.996 153.978 141.276 153.949C144.763 153.949 147.642 153.862 150.182 157.714C153.177 162.249 158.122 164.367 164.353 163.741C171.81 162.99 179.393 163.539 186.917 163.52L187.468 166.37Z" fill="#8AC357"/>
<path d="M158.876 134.644C165.637 134.644 172.341 134.644 179.074 134.702C180.658 134.702 182.416 134.577 182.783 136.801C183.112 138.726 182.039 139.4 180.368 140.229C176.35 142.212 178.494 146.006 178.204 149.144L178.06 150.242C176.408 149.77 174.756 149.231 173.037 149.953C172.815 149.793 172.628 149.59 172.486 149.356C172.65 147.691 173.452 145.88 171.336 144.773C167.202 142.645 159.745 145.023 157.881 149.077C156.76 148.284 155.38 147.94 154.017 148.114V146.189L155.379 144.995L156.499 145.091C156.611 145.159 156.736 145.203 156.866 145.222C156.996 145.24 157.128 145.232 157.254 145.197C157.381 145.163 157.499 145.104 157.602 145.022C157.704 144.941 157.79 144.84 157.852 144.725C159.136 141.586 158.653 138.312 158.567 135.097L158.876 134.644Z" fill="#528228"/>
<path d="M106.617 67.8516C105.767 69.5269 105.168 71.52 107.583 72.0207C110.993 72.7332 110.549 75.121 110.665 77.4222C111.022 80.667 109.322 84.268 112.326 87.0507C110.481 87.9461 110.587 89.6311 110.626 91.2776L110.23 91.682L105.729 91.2776L105.748 91.3546C105.555 89.997 106.076 88.0039 104.309 87.6958C100.735 87.0699 100.85 84.5665 100.792 81.9957V81.8513C102.483 81.524 105.39 83.5941 105.497 80.1086C105.593 76.8927 102.898 77.8652 100.976 77.9807L100.918 67.9575L100.995 58.5987C104.444 58.2135 106.144 59.5615 105.825 63.2011C105.628 64.7951 105.903 66.4118 106.617 67.8516Z" fill="#46731E"/>
<path d="M95.9532 29.6748C96.7163 32.8522 94.6877 36.6265 98.0396 39.2455C95.8179 40.5453 95.4605 42.6347 97.7305 43.5012C100.522 44.57 100.764 46.8038 101.72 48.8354L100.918 53.1585C100.918 54.9687 100.918 56.782 100.918 58.5986C98.8414 58.5986 96.7646 58.5986 94.6877 58.5986C93.2485 58.5986 91.7029 58.5986 91.4325 56.6729C91.2006 54.9109 92.0603 54.054 93.7315 53.6689C96.4072 53.0526 96.8515 50.2026 95.0838 49.6923C90.5824 48.3828 91.2876 45.2632 91.22 42.211C91.22 40.1794 90.0222 39.4862 88.2448 39.1781C86.9214 38.947 86.4964 37.9553 86.5834 36.6843C86.5402 36.1997 86.6904 35.7177 87.0015 35.3428C87.3125 34.968 87.7592 34.7304 88.2448 34.6816C91.5291 34.3735 91.3455 32.0915 91.1427 29.7807L95.9532 29.6748Z" fill="#46731E"/>
<path d="M24.3947 53.2548L28.6739 53.3126H33.9384L38.3141 53.5822C40.1881 53.7266 42.0524 53.8325 43.8008 52.9178C45.0814 53.366 46.4718 53.3963 47.7709 53.0045C48.6195 53.4005 49.542 53.6146 50.4788 53.6329C51.4156 53.6511 52.3458 53.4731 53.2092 53.1104L57.6623 53.3319C59.3721 53.5918 61.0915 53.9096 62.7433 53.0623C66.1531 53.3704 68.0947 54.8147 67.0804 58.5794L67.1481 58.5216L42.9507 58.6082C36.6237 58.4446 30.2967 58.0305 23.9889 58.8393C23.9052 57.1319 23.8183 55.4244 23.7281 53.717C23.8948 53.4957 24.1285 53.3337 24.3947 53.2548V53.2548Z" fill="#34541A"/>
<path d="M125.067 110.621C128.757 110.236 133.577 113.211 135.277 106.924C135.635 105.614 147.091 105.479 148.25 106.625C149.409 107.771 149.545 110.063 148.376 110.351C142.744 111.767 144.734 116.128 144.261 119.614C144.193 120.086 144.145 120.577 144.087 121.039C142.831 121.039 140.948 121.443 140.551 120.336C138.494 114.559 133.79 116.668 129.81 116.369L124.98 116.302C124.945 116.011 124.945 115.717 124.98 115.426L124.835 111.285L125.067 110.621Z" fill="#5D8F2F"/>
<path d="M57.45 15.2514C57.45 12.8154 59.3819 11.6119 60.4348 9.94616C65.2646 2.24341 72.3354 6.83617 78.2181 5.67113C79.5318 5.41117 81.2126 5.46894 81.483 7.51017C81.7052 9.20477 81.1063 10.2543 79.2613 10.3987C76.064 10.7068 77.1555 13.3835 76.6629 15.2129L57.45 15.2514Z" fill="#5D8F2F"/>
<path d="M129.81 116.379C133.751 116.668 138.504 114.578 140.551 120.346C140.947 121.453 142.841 121.039 144.087 121.049C144.145 124.082 145.748 125.439 148.723 125.314C148.878 126.835 149.036 128.357 149.197 129.878L139.537 129.83L139.605 129.897C139.441 127.972 139.47 125.747 136.707 125.853C134.234 125.95 131.114 124.419 129.762 128.154C129.047 130.138 127.434 130.369 125.898 129.32C124.719 128.501 124.681 126.354 125.763 126.065C131.616 124.496 129.501 119.951 129.81 116.379Z" fill="#46731E"/>
<path d="M48.679 15.1455L33.7356 15.4248C33.6583 13.4991 33.5617 11.5734 33.5134 9.64772C33.4651 7.72203 33.5134 5.69043 36.2664 5.48823C37.3676 5.4112 37.7733 4.60241 38.1983 3.66846C39.3961 1.17469 44.6509 -0.298449 47.0079 1.03027C47.4225 1.27303 47.7522 1.63685 47.9527 2.07253C48.1531 2.5082 48.2144 2.99471 48.1284 3.46627C48.1834 3.95032 48.0466 4.43665 47.747 4.82157C47.4475 5.20649 47.0089 5.45954 46.5249 5.52675C44.9793 5.73858 43.627 6.13334 43.7332 8.09754C43.8009 9.75363 44.9311 10.1291 46.2931 10.418C49.0364 11.0053 47.9545 13.5376 48.679 15.1455Z" fill="#5D8F2F"/>
<path d="M57.4499 15.2514H76.6532C76.9043 22.8001 82.6711 19.1991 86.3128 19.979L86.3804 24.9954C84.4485 24.9954 82.5165 24.9954 80.6522 24.8895C79.0681 24.8413 77.2231 24.9954 76.9237 22.8386C76.5566 20.2197 74.7599 20.056 72.741 20.0849L62.241 20.2197H57.4113L53.4991 20.1619C52.6104 18.6599 52.7746 16.9942 52.707 15.3477L57.4499 15.2514Z" fill="#46731E"/>
<path d="M86.4288 24.9666L86.3612 19.9502C85.9555 16.2047 87.6749 14.799 91.3649 15.136C93.7315 15.3767 96.1464 15.2034 98.5323 15.2612C99.4983 15.2612 100.464 15.55 100.744 16.6765C100.976 17.6394 101.14 19.0933 100.271 19.2666C94.1758 20.4316 96.7356 25.2458 96.1077 28.6928C96.0498 29.0009 96.0305 29.3283 96.0015 29.6557L91.2683 29.7038C91.7223 25.9969 90.0802 24.3985 86.3805 24.8896L86.4288 24.9666Z" fill="#5D8F2F"/>
<path d="M120.305 101.359C120.305 103.429 119.948 105.528 122.932 106.028C125.676 106.481 124.864 108.859 125.057 110.611C124.99 110.833 124.913 111.045 124.835 111.257L122.285 110.785L120.353 110.496C120.566 106.346 117.726 106.481 114.838 106.471C113.147 106.471 111.09 106.827 110.694 104.286C110.385 102.264 111.457 101.349 113.331 101.041C113.818 101.019 114.279 100.814 114.621 100.468C114.963 100.122 115.162 99.6589 115.176 99.1729C115.223 98.9331 115.219 98.6863 115.164 98.4481C115.11 98.21 115.006 97.9858 114.86 97.79C114.713 97.5941 114.527 97.431 114.314 97.311C114.101 97.191 113.864 97.1168 113.621 97.0931C110.008 96.785 110.723 93.8483 110.22 91.6915L110.616 91.2872L115.533 91.8841C115.456 93.6172 115.243 95.4755 117.407 96.1399C120.141 96.9679 120.237 99.1343 120.305 101.359Z" fill="#46731E"/>
<path d="M149.216 129.859C149.055 128.337 148.897 126.816 148.743 125.295C148.25 121.28 150.124 119.884 153.998 120.317C156.364 120.577 158.827 120.384 161.175 120.461C161.454 120.435 161.735 120.464 162.002 120.547C162.27 120.629 162.518 120.764 162.733 120.943C162.947 121.122 163.124 121.342 163.253 121.59C163.382 121.838 163.46 122.109 163.483 122.387C163.648 123.735 163.57 125.179 161.938 125.391C159.214 125.747 158.673 127.509 158.605 129.753L149.216 129.859Z" fill="#5D8F2F"/>
<path d="M100.918 58.5986C100.918 56.7821 100.918 54.9687 100.918 53.1586C104.782 53.2741 108.588 53.3608 112.413 53.5341C113.698 53.5918 115.031 53.7844 115.263 55.4597C115.494 57.1351 114.867 58.1942 113.06 58.4638C109.602 58.9742 110.636 61.7375 110.636 63.7498C110.636 66.6384 110.017 68.5063 106.598 67.8516C105.865 66.4139 105.573 64.7933 105.758 63.1914C106.067 59.6 104.367 58.2135 100.918 58.5986Z" fill="#5D8F2F"/>
<path d="M24.559 173.398L24.6266 177.953C17.9132 177.953 11.1998 177.953 4.48636 177.953C2.55444 177.953 0.12021 178.116 0.00429438 175.536C-0.12128 172.647 2.53512 173.254 4.30283 173.196C9.24854 173.052 14.2039 173.042 19.1593 172.984L24.559 173.398Z" fill="#212121"/>
<path d="M158.731 168.748C166.739 167.843 174.776 168.671 182.803 168.353L182.851 168.758L182.658 171.232L181.093 173.1H158.876C158.811 171.688 158.763 170.237 158.731 168.748Z" fill="#7AB74A"/>
<path d="M24.559 173.398L19.1593 172.994C19.2527 171.137 19.2527 169.276 19.1593 167.419C18.8791 164.406 20.0673 163.077 23.1004 163.491L28.6643 163.385L29.2246 163.78L29.2729 172.984L24.559 173.398Z" fill="#ACD885"/>
<path d="M120.305 101.359C120.237 99.1247 120.141 96.9679 117.407 96.1399C115.234 95.4755 115.475 93.6173 115.533 91.8841C119.213 91.7879 122.894 91.653 126.574 91.5953C128.071 91.5953 129.53 91.7879 129.762 93.7232C129.964 95.3889 129.414 96.5636 127.598 96.8139C124.497 97.2568 124.574 102.793 120.305 101.359Z" fill="#5D8F2F"/>
<path d="M182.716 149.039C182.465 145.707 183.682 143.974 187.362 144.321C189.729 144.542 192.124 144.369 194.51 144.398C195.93 144.398 197.031 144.869 197.137 146.497C197.215 147.681 197.002 148.904 195.631 149.077C192.54 149.472 192.385 151.59 192.472 153.939L187.787 153.997C187.971 150.435 186.512 148.548 182.716 149.039Z" fill="#5D8F2F"/>
<path d="M149.216 129.859L158.615 129.772L158.895 134.644L158.625 135.106C156.924 134.875 154.828 134.143 154.22 136.493C152.858 141.654 148.984 139.092 146.067 139.285C144.985 139.352 144.57 138.264 144.541 137.244C144.512 136.223 144.811 135.174 145.912 135.058C149.313 134.711 149.206 132.275 149.235 129.859H149.216Z" fill="#46731E"/>
<path d="M187.468 166.37L186.927 163.481L189.207 159.428H190.395C190.762 162.48 193.07 161.844 195.07 161.96C197.524 162.104 197.514 160.544 197.437 158.86C200.682 158.86 201.745 157.04 201.561 154.113C202.666 153.939 203.786 153.871 204.904 153.91C207.56 154.238 207.125 157.704 206.777 157.762C202.45 158.378 202.083 165.108 196.355 163.953C193.592 163.462 189.438 162.037 187.468 166.37Z" fill="#6AA03B"/>
<path d="M101.72 48.8355C100.754 46.8039 100.513 44.5701 97.7306 43.5013C95.4606 42.6251 95.7986 40.5357 98.0397 39.2455C101.208 39.2455 104.367 39.1974 107.535 39.2455C108.762 39.2455 110.24 38.9856 110.433 40.7957C110.626 42.2881 110.53 43.8094 108.588 44.002C106.646 44.1945 105.912 45.1092 105.507 46.8905C105.101 48.6718 103.381 48.9221 101.72 48.8355Z" fill="#5D8F2F"/>
<path d="M182.716 149.039C186.522 148.547 187.97 150.444 187.777 153.997C186.125 154.17 183.991 153.333 183.199 155.547C182.571 157.28 182.233 159.177 179.818 158.494C177.403 157.81 178.234 155.682 178.098 154.045C178.002 152.774 178.098 151.494 178.098 150.194L178.243 149.096L182.716 149.039Z" fill="#46731E"/>
<path d="M201.562 154.18C201.745 157.069 200.683 158.994 197.437 158.927C195.076 158.599 192.671 158.797 190.395 159.505H189.207C187.208 158.089 187.787 155.99 187.758 154.055L192.443 153.997L201.562 154.18Z" fill="#46731E"/>
<path d="M112.316 87.0603C109.312 84.268 111.003 80.667 110.655 77.4318L118.325 77.634H119.291C120.701 79.9448 120.855 81.8416 117.571 82.4482C116.942 82.5275 116.366 82.84 115.958 83.3236C115.55 83.8071 115.34 84.4263 115.369 85.0576C115.205 86.9832 113.881 87.2143 112.316 87.0603Z" fill="#5D8F2F"/>
<path d="M28.674 163.394L23.1101 163.491C25.042 158.388 28.9059 155.249 33.7357 153.053L34.2186 154.016C32.5208 155.192 31.2073 156.839 30.4417 158.753C28.732 159.88 28.9541 161.729 28.674 163.394Z" fill="#5D8F2F"/>
<path d="M24.3949 53.2549C24.1274 53.3363 23.8936 53.5018 23.7284 53.7267C19.71 54.0637 18.1355 52.5135 19.6907 48.537C23.3323 48.0555 24.8199 49.6635 24.3949 53.2549Z" fill="#D4E1CA"/>
<path d="M19.2944 143.3L21.6707 144.398C20.5792 144.658 19.3427 145.255 19.2944 143.3Z" fill="#5D8F2F"/>
<path d="M181.093 173.1L182.667 171.222L182.86 173.148H181.093V173.1Z" fill="#6AA03B"/>
<path d="M33.301 19.7094L29.6497 20.1138L33.301 19.7094Z" fill="#5D8F2F"/>
<path d="M15.9136 139.641C16.3847 139.469 16.8877 139.4 17.3879 139.44C17.8881 139.48 18.3738 139.628 18.8115 139.872L15.9136 139.641Z" fill="#5D8F2F"/>
<path d="M186.019 168.363C186.314 168.202 186.652 168.138 186.985 168.18C186.801 169.056 186.347 168.43 186.019 168.363Z" fill="#6AA03B"/>
<path d="M12.2238 134.817L13.9142 135.029L12.2238 134.817Z" fill="#5D8F2F"/>
<path d="M182.851 168.758L182.803 168.353H183.914L182.851 168.758Z" fill="#6AA03B"/>
<path d="M32.335 149.231L33.4168 149.732L32.335 149.231Z" fill="#5D8F2F"/>
<path d="M53.5861 20.1427L57.45 20.2005C57.5369 22.1261 57.45 24.4562 59.9808 24.4851C62.8304 24.4851 62.0286 21.9336 62.2411 20.1908L72.7411 20.056C74.76 20.056 76.605 20.1908 76.9237 22.8098C77.2232 24.9665 79.0682 24.8125 80.6523 24.8606C82.5842 24.9184 84.5162 24.928 86.3805 24.9665V24.9184C86.0231 28.5194 87.6362 30.1563 91.2682 29.7326C91.4421 32.0434 91.6257 34.3254 88.3704 34.6335C87.8848 34.6822 87.438 34.9198 87.127 35.2947C86.816 35.6696 86.6658 36.1516 86.7089 36.6362C86.6316 37.8975 87.047 38.8989 88.3704 39.13C90.1477 39.4381 91.2682 40.0928 91.3455 42.1629C91.4035 45.2151 90.6983 48.3347 95.2093 49.6442C96.9771 50.1641 96.5327 53.0045 93.857 53.6207C92.1859 54.0059 91.3262 54.8532 91.558 56.6248C91.8285 58.6275 93.374 58.5505 94.8133 58.5505C96.8901 58.5505 98.9669 58.5505 101.044 58.5505L100.918 67.9575L97.0543 68.0923L96.0884 68.3041C96.0884 67.6782 96.0884 67.0524 96.0884 66.4266C96.0884 64.7705 95.9145 63.2107 93.7604 63.047C92.2245 62.9314 91.4421 63.6632 91.3648 65.2134C91.2586 67.2546 92.3887 67.996 94.2627 68.1019C94.8906 68.1019 95.5088 68.2078 96.1367 68.2656L96.2429 69.2284C95.4412 71.934 97.9913 75.9683 94.3593 77.2778C91.3938 78.3562 91.3359 80.0123 91.2586 82.2557L91.3262 82.1883C87.3368 81.8417 86.0038 83.9021 86.4384 87.5609L86.506 87.4936L78.7784 87.378C77.7351 87.0314 77.0203 87.1951 77.059 88.4949C76.9913 90.0932 76.8368 91.7012 76.8754 93.3091C76.9237 95.514 75.9095 96.4962 73.7264 96.5539C65.0328 96.7946 56.3874 97.3049 47.7324 96.2554C47.7324 94.6122 47.7614 92.9721 47.8194 91.3353H47.7711C47.856 91.417 47.9582 91.4784 48.0703 91.5151C48.1824 91.5518 48.3013 91.5627 48.4183 91.5471C53.364 91.6434 58.3097 91.7301 63.265 91.8456C66.3078 91.913 67.7761 90.6517 67.1289 87.4839C72.1422 86.8003 72.9826 85.5582 72.1229 80.2626C71.8911 78.8569 71.5433 77.8266 69.8915 77.7688C68.0176 77.7111 67.3704 78.7317 67.3318 80.4359C67.2802 82.8109 67.2352 85.1859 67.1965 87.5609C61.0393 87.0525 54.8523 87.0107 48.6887 87.4358C48.3918 87.3877 48.091 87.3684 47.7904 87.378C47.7904 82.1402 47.887 76.8927 47.7904 71.6548C47.7904 68.1886 48.9495 64.2409 43.9845 62.6041C42.5935 62.1419 43.0958 60.0622 42.9703 58.666L67.1675 58.5794C67.5346 60.2451 66.3272 62.633 69.1961 63.1433C69.9398 63.2781 71.128 63.3743 71.1763 62.4211C71.4274 59.8985 69.1188 59.6481 67.5443 58.7719C67.3985 58.7101 67.2462 58.6649 67.0903 58.6372C68.0562 54.8821 66.1243 53.4282 62.7531 53.1201L62.9946 49.182C64.5651 48.9949 66.1463 48.9113 67.7278 48.9317C71.3598 49.2013 72.7218 47.6704 71.9007 44.1175C73.8327 43.6746 77.059 45.0129 76.7305 41.3926C76.518 38.9374 79.0585 34.9801 73.9099 34.3735L72.1326 33.4684C72.6252 28.7794 69.2347 29.8289 66.5204 29.5497C62.4633 29.1356 62.2605 31.6679 62.3184 34.5468C58.8603 33.8632 57.4886 35.1053 57.4886 38.7737C57.4886 42.4421 58.0199 44.7626 62.3184 44.0597L62.0866 48.3732C58.5705 48.2096 56.8607 49.6635 57.6335 53.3319L53.1804 53.1104C52.5912 51.464 54.1464 48.6525 50.5627 48.6236C47.1239 48.6236 48.1961 51.2425 47.7421 53.0045C46.4431 53.397 45.0525 53.3666 43.772 52.9179C43.8589 48.9221 41.8401 47.8341 38.266 49.0665H33.9868C33.7152 48.9933 33.4746 48.8346 33.301 48.614C33.3493 46.6112 33.0595 44.9263 30.9344 43.7997C29.1667 42.8947 28.8672 40.7186 30.5673 39.9484C33.8902 38.4656 34.3732 36.0296 34.2863 32.987C34.2863 31.8605 34.4215 30.6088 35.6966 30.214C36.9716 29.8193 37.6961 30.811 38.1501 31.9086C38.8359 33.5743 39.9178 34.6335 41.8497 34.0269C43.5208 33.4973 43.9555 31.9953 43.7817 30.551C43.2987 26.1219 45.4431 24.6199 49.5774 24.514C52.1469 24.5044 53.7793 22.9638 53.5861 20.1427ZM72.2775 73.9271L72.3451 76.0646C73.6298 78.0673 75.3395 77.9903 76.547 76.3149C78.9909 72.868 81.6183 69.7098 85.4435 67.7071C86.651 67.0717 86.5157 65.8681 86.4095 64.7416C86.3032 63.6151 85.4435 63.2492 84.4775 62.9796C79.3483 61.6027 76.9817 63.2588 76.8368 68.4004C76.8368 69.9891 77.001 71.6355 75.7742 72.9354L72.8764 73.0702L72.2775 73.9271ZM86.3515 56.1723C86.3515 55.5773 86.1144 55.0066 85.6923 54.5859C85.2702 54.1652 84.6977 53.9288 84.1008 53.9288C83.5039 53.9288 82.9314 54.1652 82.5093 54.5859C82.0873 55.0066 81.8501 55.5773 81.8501 56.1723C81.8233 56.4484 81.8566 56.7271 81.9478 56.9892C82.039 57.2513 82.186 57.4906 82.3786 57.6909C82.5712 57.8911 82.805 58.0475 83.0639 58.1494C83.3228 58.2512 83.6007 58.2961 83.8786 58.2809C85.3565 58.3868 86.2839 57.761 86.3322 56.1723H86.3515ZM83.3763 44.2619C82.3428 44.3486 81.7342 45.2248 81.8694 46.7653C82.0047 48.3059 83.0769 48.845 84.5258 48.691C85.9748 48.5369 86.3515 47.6319 86.3515 46.3898C86.3225 44.7915 85.4628 44.156 83.357 44.2619H83.3763Z" fill="#7AB74A"/>
<path d="M47.7226 96.2072C56.4163 97.2567 65.0423 96.7368 73.7166 96.4961C75.9383 96.4383 76.9139 95.4562 76.8656 93.2513C76.8656 91.653 76.9816 90.0547 77.0492 88.4371L78.7686 87.3202L86.4963 87.4358C86.4963 89.4866 86.9793 91.7397 83.8399 92.0285C82.2654 92.1729 81.8017 93.3572 81.7921 94.7726C81.7921 97.4878 81.7921 100.193 81.7921 102.909C81.7921 104.459 82.1108 105.797 84.0041 106.019C85.6848 106.211 86.6798 106.981 86.4383 108.811C86.1292 111.17 84.2456 110.737 82.7483 110.804C78.8845 110.891 75.0207 110.804 71.2244 110.891C69.6403 110.891 67.7663 110.794 67.4379 112.932C66.9066 116.36 64.54 115.599 62.3183 115.416L62.7143 110.679C65.6122 111.189 67.6987 110.602 67.322 107.001C69.7272 106.876 72.1518 106.837 74.528 106.587C76.2667 106.404 76.8657 105.104 76.8367 103.477C76.8077 101.85 75.6389 101.339 74.2479 101.339C71.8427 101.339 69.4181 101.445 67.0322 101.503C63.4292 100.646 62.0092 102.109 62.5598 105.672C61.2557 106.481 59.9034 106.202 58.5414 105.874L57.6817 104.719C57.6817 102.938 57.276 101.493 55.006 101.695C54.7209 101.681 54.4363 101.732 54.1739 101.844C53.9115 101.956 53.6782 102.126 53.4919 102.341C53.3055 102.557 53.171 102.812 53.0986 103.087C53.0262 103.362 53.0178 103.65 53.0741 103.929C53.2769 106.269 55.0736 105.999 56.6674 105.99C56.9918 105.969 57.3145 105.927 57.6334 105.865H58.0971H58.5511L58.0005 106.664L57.7106 107.838L57.4788 110.563C55.8947 110.631 54.5809 111.998 52.8326 111.343C52.784 111.136 52.7194 110.933 52.6394 110.737C52.7553 109.042 53.5281 107.02 50.8524 106.596C48.6113 106.24 48.1187 107.704 48.0994 109.485L47.9641 110.737C47.9389 110.977 47.8937 111.216 47.8289 111.449L43.9651 111.545C43.8813 111.314 43.804 111.08 43.7332 110.842L43.2502 109.543L42.9604 105.788C47.0368 106.799 48.4278 104.95 48.0607 101.099C47.9255 99.7024 48.0124 98.287 47.9931 96.8812C48.0158 96.612 47.9622 96.3418 47.8385 96.1013L47.7226 96.2072Z" fill="#2F4E16"/>
<path d="M43.9265 111.565L47.7904 111.468C48.2637 113.269 47.0755 116.186 50.3791 116.167C53.3253 116.167 52.4366 113.529 52.765 111.796C52.7751 111.635 52.7751 111.475 52.765 111.314C54.4651 111.969 55.8368 110.602 57.4113 110.534L57.9716 111.112L57.6432 115.782C57.6871 115.79 57.7285 115.809 57.764 115.836C57.7995 115.863 57.8282 115.898 57.8479 115.939C57.8675 115.979 57.8776 116.023 57.8773 116.067C57.8769 116.112 57.8662 116.156 57.846 116.196L57.5948 117.428V119.133L57.4499 120.278C54.9674 120.404 52.3497 120.365 52.823 124.072L51.6639 125.218H49.8285C49.4534 125.169 49.0725 125.245 48.7457 125.435C48.4188 125.625 48.1643 125.918 48.0222 126.267L47.7904 144.301C45.5686 144.301 43.1827 143.974 43.202 141.22C43.231 131.332 41.9946 121.405 43.9265 111.565Z" fill="#7AB74A"/>
<path d="M47.7903 144.301C47.8804 138.274 47.9674 132.247 48.0511 126.219L49.8575 125.17H51.6928L53.0644 125.911L52.9582 148.056L53.6537 149.019C57.4402 148.663 58.3386 150.743 57.8749 153.978H57.9618L48.0414 153.93L47.7903 144.301Z" fill="#34541A"/>
<path d="M48.0125 153.891L57.9329 153.939C57.7591 155.833 57.5852 157.723 57.4113 159.611C55.8464 158.503 54.0498 158.86 52.3304 158.84C45.0181 158.773 37.7154 158.763 30.4031 158.725C31.1687 156.811 32.4821 155.163 34.18 153.988L48.0125 153.891Z" fill="#6AA03B"/>
<path d="M47.7903 91.2872C47.7903 92.9304 47.7613 94.5705 47.7033 96.2073L47.7806 96.1303L46.6891 96.7369C44.3321 96.6406 43.1537 97.6515 43.202 100.116C43.202 102.042 43.0088 103.91 42.9025 105.816C39.8597 106.885 38.5074 105.942 38.3045 102.591C37.725 92.3078 37.638 92.3078 47.7903 91.2872Z" fill="#2F4E16"/>
<path d="M48.4084 91.5183C48.2915 91.5339 48.1726 91.5229 48.0605 91.4862C47.9484 91.4496 47.8461 91.3881 47.7612 91.3064C47.7612 89.9841 47.7612 88.6618 47.7612 87.3395C48.0619 87.3295 48.3627 87.3489 48.6596 87.3973L48.4084 91.5183Z" fill="#528228"/>
<path d="M43.173 109.562L43.656 110.862L43.173 109.562Z" fill="#528228"/>
<path d="M33.301 48.6236C33.4747 48.8442 33.7153 49.003 33.9869 49.0761L33.8999 53.3415H28.6355C28.1332 49.6634 29.8043 48.2384 33.301 48.6236Z" fill="#D4E1CA"/>
<path d="M42.6805 22.1166C42.6805 22.9446 42.4679 23.8208 41.5696 23.9845C40.3235 24.2156 39.9951 23.1949 39.8116 22.2514C39.628 21.3078 39.8116 20.5953 40.8258 20.4701C41.0617 20.4251 41.3047 20.4349 41.5362 20.4986C41.7676 20.5622 41.9813 20.6781 42.1606 20.8373C42.3399 20.9965 42.4801 21.1947 42.5702 21.4165C42.6604 21.6383 42.6981 21.8779 42.6805 22.1166V22.1166Z" fill="#7AB74A"/>
<path d="M120.334 168.469L120.237 173.158L115.552 173.35L115.321 173.1L115.552 168.449L120.16 168.295L120.334 168.469Z" fill="#24390E"/>
<path d="M115.562 168.44L115.33 173.09L29.2922 172.984C29.2922 169.916 29.2761 166.848 29.2439 163.78C37.5125 163.722 45.7908 163.568 54.0594 163.654C57.1408 163.654 58.0875 162.451 57.4306 159.63C59.6717 158.32 62.1445 158.975 64.5111 158.811C66.2305 158.696 67.2448 158.108 67.1482 156.221C67.0612 154.565 66.0663 154.036 64.598 154.026H57.8363C58.3 150.791 57.4016 148.711 53.6151 149.067L52.9196 148.105C52.9582 140.736 52.9937 133.354 53.0259 125.959C53.1427 125.908 53.2482 125.833 53.3361 125.741C53.4239 125.648 53.4925 125.539 53.5378 125.42C55.6243 125.285 57.8653 125.362 57.7011 122.271L59.4785 120.538L62.2508 120.201L62.5019 119.239L62.2894 115.387L62.2411 115.464C64.4338 115.647 66.8294 116.427 67.3607 112.98C67.6891 110.843 69.5631 110.968 71.1472 110.939C75.0111 110.881 78.8749 110.939 82.6711 110.852C84.1684 110.852 86.052 111.218 86.3611 108.859C86.6026 107.001 85.6077 106.259 83.9269 106.067C81.995 105.855 81.7148 104.507 81.7148 102.957C81.7148 100.242 81.7148 97.536 81.7148 94.8208C81.7148 93.4054 82.1882 92.2211 83.7627 92.0767C86.902 91.7782 86.448 89.5348 86.4191 87.4839L86.3515 87.5513C89.9545 87.5513 92.1472 86.2804 91.2392 82.1787L91.1716 82.2461L100.783 82.0246C100.841 84.5954 100.715 87.0988 104.299 87.7246C106.067 88.0328 105.545 90.0258 105.738 91.3834C103.7 91.6915 100.908 90.8731 100.908 94.3779C100.908 95.8607 101.623 96.9294 103.15 96.8139C106.675 96.5635 105.497 93.8002 105.68 91.7782C105.693 91.6212 105.693 91.4634 105.68 91.3064L110.182 91.7108C110.723 93.8772 109.969 96.8043 113.572 97.1124C113.816 97.136 114.052 97.2102 114.266 97.3302C114.479 97.4503 114.665 97.6134 114.811 97.8092C114.958 98.0051 115.062 98.2292 115.116 98.4674C115.17 98.7055 115.174 98.9524 115.127 99.1921C115.113 99.6781 114.915 100.141 114.573 100.487C114.231 100.834 113.77 101.038 113.282 101.06C111.408 101.368 110.336 102.292 110.645 104.305C111.041 106.837 113.099 106.481 114.789 106.49C117.687 106.49 120.517 106.365 120.305 110.515C120.404 110.671 120.536 110.803 120.691 110.904C120.847 111.005 121.022 111.071 121.205 111.098C121.388 111.126 121.575 111.114 121.753 111.063C121.931 111.012 122.096 110.924 122.237 110.804L124.787 111.276C124.864 112.669 124.942 114.058 125.019 115.445L120.034 115.946C118.547 115.329 116.171 116.437 115.62 114.174C115.147 112.094 114.712 110.409 112.123 111.064C109.535 111.719 110.8 113.856 110.491 115.397C108.858 115.994 106.376 114.896 105.835 117.659C105.381 119.999 106.878 120.692 108.781 121.097C109.26 121.184 109.686 121.454 109.967 121.85C110.249 122.246 110.364 122.736 110.288 123.215C110.23 124.659 109.167 125.006 108.028 125.227C106.598 125.507 105.738 126.19 105.825 127.808C105.82 128.087 105.87 128.364 105.973 128.624C106.076 128.883 106.229 129.12 106.424 129.32C106.618 129.521 106.851 129.681 107.108 129.791C107.365 129.902 107.641 129.961 107.921 129.965C110.993 130.359 110.404 132.728 110.549 134.711C106.453 134.259 105.555 136.358 105.584 140.065C105.613 143.772 107.216 144.821 110.539 144.282C110.539 145.906 110.539 147.53 110.539 149.154C108.733 149.53 105.864 148.374 105.883 151.609C105.903 154.844 108.675 153.718 110.539 153.91C110.017 157.637 111.37 159.495 115.369 158.725C118.769 158.503 120.962 159.476 120.054 163.472C116.47 163.173 114.78 164.694 115.562 168.44ZM105.671 108.281C105.729 106.924 104.888 106.153 103.372 106.153C101.507 106.153 100.928 107.299 101.044 108.965C101.16 110.631 102.106 111.151 103.604 111.064C105.101 110.977 105.748 109.986 105.661 108.291L105.671 108.281ZM110.5 165.879C110.452 164.251 109.535 163.635 107.989 163.712C107.706 163.691 107.422 163.732 107.157 163.832C106.892 163.932 106.652 164.09 106.455 164.293C106.257 164.496 106.107 164.74 106.015 165.007C105.923 165.275 105.891 165.559 105.922 165.84C105.863 166.159 105.881 166.486 105.973 166.797C106.065 167.107 106.229 167.391 106.452 167.627C106.675 167.862 106.95 168.042 107.256 168.151C107.562 168.261 107.889 168.297 108.211 168.257C108.527 168.297 108.848 168.263 109.148 168.156C109.448 168.049 109.718 167.873 109.937 167.642C110.156 167.411 110.316 167.131 110.406 166.827C110.495 166.522 110.511 166.2 110.452 165.888L110.5 165.879Z" fill="#7AB749"/>
<path d="M187.758 154.016C187.758 155.942 187.207 158.051 189.207 159.466L186.889 163.5C179.364 163.5 171.771 162.961 164.324 163.722C158.093 164.348 153.148 162.23 150.153 157.695C147.613 153.843 144.734 153.891 141.247 153.93C139.006 153.93 136.765 154.074 134.485 154.151C133.906 147.787 128.796 144.253 120.286 144.321C120.286 136.355 120.286 128.392 120.286 120.432C123.232 120.625 125.396 119.951 124.893 116.312L129.723 116.379C129.414 119.99 131.53 124.505 125.724 126.007C124.642 126.296 124.681 128.453 125.859 129.262C127.366 130.302 128.97 130.071 129.723 128.097C131.066 124.361 134.196 125.901 136.668 125.796C139.412 125.69 139.383 127.914 139.566 129.839L138.146 129.926C136.553 130.042 134.852 130.032 134.804 132.304C134.757 132.619 134.786 132.94 134.889 133.241C134.992 133.542 135.165 133.814 135.395 134.034C135.625 134.255 135.904 134.417 136.209 134.508C136.515 134.599 136.838 134.616 137.151 134.557C139.412 134.471 139.421 132.815 139.441 131.187C139.441 130.716 139.441 130.225 139.489 129.772L149.149 129.82C149.149 132.237 149.226 134.634 145.826 135.02C144.734 135.135 144.425 136.194 144.454 137.205C144.483 138.216 144.898 139.323 145.98 139.246C148.878 139.054 152.742 141.605 154.133 136.454C154.742 134.143 156.838 134.837 158.538 135.068C158.625 138.312 159.108 141.577 157.823 144.696L156.471 145.052L155.34 144.956L155.012 144.985L154.046 145.264C154.014 145.584 154.014 145.907 154.046 146.227V148.153C155.08 149.481 156.529 149.116 157.91 149.116C159.774 145.052 167.231 142.674 171.366 144.812C173.51 145.919 172.679 147.7 172.515 149.395C170.299 149.241 168.076 149.241 165.86 149.395C163.426 149.722 162.962 151.792 164.498 153.16C166.343 154.854 169.067 154.122 171.366 153.776C173.665 153.429 173.172 151.552 173.056 149.924C174.776 149.202 176.427 149.741 178.079 150.213C178.079 151.484 177.992 152.774 178.079 154.065C178.214 155.701 177.451 157.849 179.799 158.513C182.146 159.177 182.552 157.3 183.179 155.567C183.991 153.362 186.097 154.19 187.758 154.016Z" fill="#79B648"/>
<path d="M173.046 149.953C173.162 151.532 173.52 153.439 171.356 153.805C169.192 154.17 166.333 154.883 164.488 153.188C163 151.821 163.416 149.751 165.85 149.424C168.066 149.269 170.29 149.269 172.505 149.424C172.651 149.632 172.835 149.812 173.046 149.953V149.953Z" fill="#46731E"/>
<path d="M157.91 149.077C156.538 149.077 155.089 149.462 154.046 148.114C155.409 147.94 156.789 148.284 157.91 149.077V149.077Z" fill="#46731E"/>
<path d="M154.046 146.208C154.014 145.888 154.014 145.565 154.046 145.245L155.012 144.966H155.369L154.046 146.208Z" fill="#46731E"/>
<path d="M156.538 145.12L157.89 144.763C157.827 144.878 157.742 144.978 157.639 145.058C157.536 145.139 157.417 145.197 157.291 145.23C157.164 145.264 157.032 145.271 156.903 145.252C156.774 145.233 156.65 145.188 156.538 145.12Z" fill="#46731E"/>
<path d="M100.831 81.9958L91.2198 82.2172C91.3068 79.9834 91.3648 78.3177 94.3206 77.2393C97.9526 75.9203 95.4025 71.8956 96.2042 69.19L96.977 68.0538L100.841 67.919L100.986 77.9711L100.812 81.8225V81.9669L100.831 81.9958Z" fill="#2F4E16"/>
<path d="M100.831 81.8513L101.005 77.9999C102.937 77.8844 105.622 76.9119 105.526 80.1278C105.429 83.6037 102.531 81.5239 100.831 81.8513Z" fill="#79B648"/>
<path d="M57.6624 53.3511C56.8896 49.6827 58.6284 48.2288 62.1155 48.3925L62.9849 49.1435L62.7434 53.0815C61.0916 53.9288 59.3818 53.6111 57.6624 53.3511Z" fill="#D4E1CA"/>
<path d="M47.7903 53.0335C48.2443 51.2715 47.1721 48.6236 50.6109 48.6525C54.1946 48.6525 52.6394 51.4833 53.2286 53.1394C52.3652 53.5021 51.435 53.6801 50.4982 53.6618C49.5614 53.6436 48.6388 53.4295 47.7903 53.0335Z" fill="#D4E1CA"/>
<path d="M38.2949 49.0376C41.898 47.8533 43.8878 48.9413 43.8009 52.889C42.0525 53.8518 40.1882 53.7074 38.3142 53.5534C38.3014 52.0706 38.2949 50.5653 38.2949 49.0376Z" fill="#D4E1CA"/>
<path d="M38.295 49.0376C38.295 50.5589 38.295 52.0802 38.295 53.6015L33.9192 53.3319L34.0061 49.0665L38.295 49.0376Z" fill="#84BB55"/>
<path d="M125.067 116.312C125.569 119.951 123.406 120.625 120.46 120.433L120.121 115.936L125.106 115.435C125.058 115.725 125.045 116.019 125.067 116.312V116.312Z" fill="#46731E"/>
<path d="M62.2798 20.1908C62.077 21.9335 62.869 24.514 60.0195 24.4851C57.4693 24.4851 57.5756 22.0972 57.4886 20.2004H62.3184L62.2798 20.1908Z" fill="#84BB55"/>
<path d="M91.2585 29.7615C87.6265 30.1563 86.0133 28.5194 86.3707 24.9473C90.0607 24.4466 91.7028 26.0545 91.2585 29.7615Z" fill="#46731E"/>
<path d="M122.285 110.794C122.144 110.914 121.979 111.002 121.801 111.053C121.623 111.104 121.436 111.116 121.253 111.089C121.07 111.061 120.895 110.995 120.74 110.894C120.584 110.794 120.453 110.661 120.353 110.506L122.285 110.794Z" fill="#5D8F2F"/>
<path d="M57.45 159.639C58.1068 162.461 57.1602 163.693 54.0788 163.664C45.8102 163.587 37.5415 163.732 29.2633 163.789L28.6934 163.395C28.9735 161.729 28.761 159.89 30.4224 158.734C37.7347 158.734 45.0374 158.734 52.3497 158.85C54.0691 158.85 55.8658 158.513 57.4307 159.62L57.45 159.639Z" fill="#24390E"/>
<path d="M190.395 159.505C192.671 158.797 195.076 158.599 197.437 158.927C197.524 160.622 197.524 162.172 195.07 162.027C193.071 161.912 190.753 162.547 190.395 159.505Z" fill="#79B648"/>
<path d="M75.8032 72.9354C77.0396 71.626 76.8271 69.9891 76.8657 68.4004C77.0106 63.2588 79.3772 61.6028 84.5065 62.9796C85.4724 63.2492 86.3418 63.567 86.4384 64.7416C86.535 65.9163 86.6606 67.0717 85.4724 67.7072C81.6086 69.7099 79.0198 72.868 76.5759 76.315C75.3588 78.0192 73.6781 78.0674 72.374 76.0647C74.3059 75.9299 75.6969 75.1596 75.8032 72.9354Z" fill="#34541A"/>
<path d="M48.4086 91.5182L48.6404 87.3973C54.8039 86.9721 60.991 87.014 67.1482 87.5224L67.0709 87.4454C67.7664 90.6132 66.2981 91.8745 63.207 91.8071C58.3 91.7012 53.3543 91.6145 48.4086 91.5182Z" fill="#2F4E16"/>
<path d="M62.2798 34.5661C62.2219 31.6776 62.4247 29.1549 66.4818 29.569C69.1768 29.8482 72.5866 28.789 72.094 33.4877L71.9684 34.4987L62.3088 34.5757L62.2798 34.5661Z" fill="#34541A"/>
<path d="M62.3474 44.079C58.0102 44.7818 57.5176 42.3747 57.5176 38.793C57.5176 35.2112 58.8989 33.8825 62.3474 34.5661V44.1078V44.079Z" fill="#34541A"/>
<path d="M73.8712 34.3928C79.0198 34.9994 76.4794 38.9566 76.6919 41.4119C77.0106 45.0322 73.794 43.6938 71.8621 44.1367H71.9297V34.4505L73.8712 34.3928Z" fill="#2F4E16"/>
<path d="M62.9849 49.1532L62.1155 48.4022C62.1928 46.9643 62.2701 45.5265 62.3473 44.0886L72.0069 44.156H71.9393C72.7604 47.6704 71.3984 49.1917 67.7664 48.9702C66.1702 48.9253 64.5729 48.9864 62.9849 49.1532Z" fill="#34541A"/>
<path d="M67.1096 87.5321C67.1547 85.1571 67.1998 82.7821 67.2449 80.4071C67.2449 78.7414 67.9307 77.6823 69.8047 77.74C71.4564 77.7978 71.8042 78.8281 72.036 80.2338C72.8957 85.5006 72.036 86.7715 67.042 87.4551L67.1096 87.5321Z" fill="#2F4E16"/>
<path d="M96.0884 68.2078C95.4606 68.15 94.8423 68.073 94.2145 68.0441C92.3695 67.9671 91.2393 67.2257 91.3166 65.1556C91.3939 63.5958 92.186 62.8736 93.7122 62.9892C95.8663 63.1529 96.0402 64.7127 96.0402 66.3688C96.0402 66.9946 96.0402 67.6205 96.0402 68.2463L96.0884 68.2078Z" fill="#46731E"/>
<path d="M86.332 56.1627C86.2837 57.761 85.3661 58.3868 83.8688 58.3194C83.5909 58.3346 83.313 58.2897 83.0541 58.1879C82.7952 58.0861 82.5614 57.9297 82.3688 57.7294C82.1761 57.5292 82.0292 57.2898 81.938 57.0277C81.8468 56.7656 81.8135 56.4869 81.8403 56.2108C81.8171 55.9048 81.8572 55.5974 81.9579 55.3075C82.0587 55.0176 82.218 54.7513 82.4261 54.5252C82.6342 54.2992 82.8865 54.118 83.1677 53.993C83.4488 53.868 83.7526 53.8018 84.0604 53.7985C84.3682 53.7952 84.6734 53.8549 84.9571 53.9738C85.2409 54.0928 85.4971 54.2685 85.71 54.49C85.9229 54.7116 86.088 54.9744 86.195 55.2621C86.302 55.5498 86.3486 55.8563 86.332 56.1627Z" fill="#46731E"/>
<path d="M91.2584 82.1498C92.2244 86.2515 89.9737 87.5129 86.3707 87.5225C85.965 83.8637 87.298 81.8032 91.2584 82.1498Z" fill="#34541A"/>
<path d="M83.3571 44.2619C85.4339 44.156 86.3226 44.7914 86.3322 46.3994C86.3322 47.6415 85.8879 48.5562 84.5066 48.7006C83.1252 48.845 82.0047 48.4021 81.8502 46.7749C81.6956 45.1477 82.3235 44.3485 83.3571 44.2619Z" fill="#46731E"/>
<path d="M67.1095 58.5986C67.2654 58.6264 67.4177 58.6716 67.5635 58.7334C69.138 59.6 71.4273 59.8599 71.1955 62.3826C71.0989 63.3454 69.9494 63.2299 69.2153 63.1047C66.3174 62.5944 67.5538 60.2162 67.1868 58.5408L67.1095 58.5986Z" fill="#34541A"/>
<path d="M75.8031 72.9354C75.7258 75.1596 74.3348 75.9299 72.3546 76.055C72.3546 75.3425 72.3321 74.63 72.287 73.9175L72.9342 73.0606L75.8031 72.9354Z" fill="#2F4E16"/>
<path d="M78.7589 87.3395L77.0395 88.4564C77.0009 87.1566 77.735 86.9929 78.7589 87.3395Z" fill="#34541A"/>
<path d="M73.8713 34.3927L71.9393 34.4987L72.0649 33.4877L73.8713 34.3927Z" fill="#5D8F2F"/>
<path d="M96.9866 68.0634L96.2139 69.1996L96.1076 68.2367L96.0593 68.3041L96.9866 68.0634Z" fill="#46731E"/>
<path d="M72.9054 73.0702L72.2582 73.9271L72.9054 73.0702Z" fill="#34541A"/>
<path d="M66.9646 101.522C69.3698 101.464 71.7944 101.359 74.1803 101.359C75.5713 101.359 76.7498 101.773 76.7691 103.496C76.7884 105.22 76.1992 106.385 74.4604 106.606C72.0745 106.866 69.6306 106.895 67.2544 107.02C67.2222 106.731 67.1932 106.442 67.1674 106.154L66.9646 101.522Z" fill="#79B648"/>
<path d="M67.1676 106.144C67.1676 106.433 67.1965 106.722 67.2545 107.01C67.6312 110.621 65.5737 111.199 62.6469 110.688L57.962 111.112L57.4017 110.534L57.6336 107.81L57.9233 106.635L58.4739 105.836V105.884C59.8359 106.211 61.1883 106.49 62.4923 105.682L67.1676 106.144Z" fill="#7AB74A"/>
<path d="M42.9604 105.817C43.0667 103.891 43.2985 102.013 43.2599 100.116C43.2599 97.6516 44.3997 96.6406 46.747 96.7369L47.9931 96.9102C47.9931 98.316 47.9255 99.7313 48.0607 101.127C48.3795 104.979 46.9885 106.827 42.9604 105.817Z" fill="#7AB74A"/>
<path d="M52.7458 111.285C52.7559 111.446 52.7559 111.607 52.7458 111.767C52.4174 113.49 53.3061 116.119 50.3599 116.138C47.066 116.138 48.2541 113.25 47.7711 111.439C47.8359 111.206 47.8811 110.968 47.9063 110.727L48.6308 110.457L52.5719 110.698C52.6445 110.889 52.7026 111.086 52.7458 111.285V111.285Z" fill="#ACD885"/>
<path d="M67.1674 106.144L62.4922 105.691C61.9513 102.129 63.3616 100.665 66.9646 101.522L67.1674 106.144Z" fill="#ACD885"/>
<path d="M57.9618 111.112L62.6467 110.688L62.2797 115.435L62.328 115.358L57.6527 115.792L57.9618 111.112Z" fill="#ACD885"/>
<path d="M57.566 105.874C57.2471 105.937 56.9244 105.979 56.6 105.999C55.0062 105.999 53.2095 106.288 53.0066 103.939C52.9504 103.66 52.9587 103.372 53.0312 103.097C53.1036 102.822 53.2381 102.567 53.4245 102.351C53.6108 102.136 53.8441 101.965 54.1065 101.853C54.3689 101.741 54.6535 101.691 54.9386 101.705C57.2086 101.493 57.6046 102.947 57.6046 104.728L57.566 105.874Z" fill="#7AB74A"/>
<path d="M52.5524 110.717L48.6113 110.477L48.0125 109.514C48.0125 107.704 48.5244 106.24 50.7654 106.625C53.4411 107.001 52.678 109.023 52.5524 110.717Z" fill="#7AB74A"/>
<path d="M57.9233 106.645L57.6335 107.819L57.9233 106.645Z" fill="#528228"/>
<path d="M48.0125 109.495L48.6114 110.457L47.887 110.727L48.0125 109.495Z" fill="#528228"/>
<path d="M57.5657 105.874L57.614 104.738L58.4737 105.894H58.0197H57.556L57.5657 105.874Z" fill="#528228"/>
<path d="M47.9546 96.9102L46.7085 96.7369L47.8 96.1303C47.9237 96.3707 47.9773 96.641 47.9546 96.9102V96.9102Z" fill="#528228"/>
<path d="M57.7107 122.262C57.875 125.353 55.6339 125.285 53.5475 125.41L52.823 124.072C52.3497 120.365 54.9674 120.404 57.4499 120.278L57.7107 122.262Z" fill="#2F4E16"/>
<path d="M57.6335 115.792L62.3088 115.358L62.5213 119.21L62.2701 120.173L59.4978 120.509L57.5659 119.133C57.5659 118.561 57.5659 117.993 57.5659 117.428L57.8171 116.196C57.8356 116.158 57.8455 116.116 57.8461 116.074C57.8466 116.031 57.8378 115.989 57.8203 115.951C57.8028 115.912 57.777 115.878 57.7447 115.85C57.7125 115.823 57.6745 115.803 57.6335 115.792V115.792Z" fill="#2F4E16"/>
<path d="M57.5852 119.142L59.5171 120.519L57.7397 122.252L57.45 120.278L57.5852 119.142Z" fill="#5D8F2F"/>
<path d="M52.8132 124.062L53.5377 125.401C53.4935 125.522 53.4254 125.633 53.3375 125.727C53.2495 125.821 53.1435 125.897 53.0257 125.95L51.6541 125.208L52.8132 124.062Z" fill="#5D8F2F"/>
<path d="M49.8284 125.17L48.0221 126.219C48.1643 125.87 48.4187 125.577 48.7456 125.387C49.0725 125.197 49.4533 125.121 49.8284 125.17V125.17Z" fill="#5D8F2F"/>
<path d="M57.8266 116.206L57.5754 117.438L57.8266 116.206Z" fill="#5D8F2F"/>
<path d="M57.45 159.639C57.6238 157.752 57.7977 155.862 57.9716 153.968H57.8846H64.6464C66.1146 153.968 67.1095 154.507 67.1965 156.164C67.2931 158.089 66.2788 158.638 64.5594 158.754C62.1252 158.975 59.6523 158.33 57.45 159.639Z" fill="#2F4E16"/>
<path d="M52.9196 148.056L53.6151 149.019L52.9196 148.056Z" fill="#5D8F2F"/>
<path d="M120.122 163.423C121.03 159.418 118.837 158.455 115.437 158.677L115.321 153.862L115.224 149.164H115.649L120.228 149.039V149.154C119.774 152.822 121.503 154.276 125.058 153.91H125.009C125.009 157.059 124.855 160.217 125.058 163.346C125.289 166.88 124.092 168.796 120.295 168.488L120.131 168.315C120.138 166.678 120.134 165.047 120.122 163.423Z" fill="#24390E"/>
<path d="M120.402 144.321C128.912 144.253 134.022 147.787 134.601 154.151L125.048 153.891H125.096C125.608 150.165 123.976 148.615 120.266 149.135V149.019L120.402 144.321Z" fill="#8AC357"/>
<path d="M120.121 163.423C120.121 165.047 120.121 166.671 120.121 168.295L115.514 168.449C114.78 164.694 116.47 163.173 120.121 163.423Z" fill="#46731E"/>
<path d="M120.402 144.321L120.237 149.067L115.659 149.193C115.549 147.524 115.443 145.855 115.34 144.186L115.282 134.827C115.282 131.351 115.379 127.885 115.379 124.409C115.379 122.83 115.456 120.981 113.495 120.509C110.539 119.797 110.597 117.621 110.597 115.368C110.906 113.827 109.766 111.661 112.23 111.035C114.693 110.409 115.243 112.065 115.726 114.145C116.248 116.408 118.624 115.31 120.141 115.917L120.479 120.413C120.434 128.386 120.408 136.355 120.402 144.321Z" fill="#2F4E16"/>
<path d="M110.578 115.368C110.578 117.631 110.578 119.797 113.476 120.509C115.408 120.981 115.359 122.83 115.359 124.409C115.359 127.885 115.301 131.351 115.263 134.827L110.539 134.625L110.607 134.683C110.462 132.699 111.051 130.33 107.979 129.936C107.7 129.932 107.423 129.873 107.166 129.763C106.909 129.652 106.676 129.492 106.482 129.292C106.287 129.091 106.134 128.854 106.031 128.595C105.928 128.335 105.878 128.058 105.883 127.779C105.796 126.19 106.646 125.487 108.086 125.199C109.216 124.977 110.278 124.63 110.346 123.186C110.422 122.707 110.307 122.217 110.025 121.821C109.744 121.425 109.318 121.155 108.839 121.068C106.907 120.664 105.439 119.97 105.893 117.631C106.424 114.867 108.907 115.965 110.578 115.368Z" fill="#46731E"/>
<path d="M110.578 144.263C107.255 144.802 105.661 143.791 105.622 140.045C105.584 136.3 106.482 134.268 110.587 134.692L110.52 134.634V144.33L110.578 144.263Z" fill="#46731E"/>
<path d="M105.748 91.2872C105.761 91.4442 105.761 91.602 105.748 91.759C105.574 93.7713 106.714 96.5732 103.217 96.7946C101.691 96.9005 100.966 95.8318 100.976 94.3586C100.976 90.8539 103.739 91.6723 105.806 91.3642L105.748 91.2872Z" fill="#528228"/>
<path d="M105.661 108.291C105.748 109.995 105.207 110.977 103.584 111.074C101.961 111.17 101.14 110.563 101.024 108.975C100.909 107.386 101.478 106.154 103.352 106.163C104.879 106.163 105.748 106.933 105.661 108.291Z" fill="#46731E"/>
<path d="M115.33 144.186C115.433 145.855 115.539 147.524 115.649 149.193H115.224L110.539 149.116L110.607 149.183C110.607 147.559 110.607 145.935 110.607 144.311L110.549 144.369L115.33 144.186Z" fill="#46731E"/>
<path d="M110.578 153.882C108.713 153.699 105.941 154.844 105.922 151.58C105.902 148.316 108.771 149.501 110.578 149.125L110.51 149.058C110.51 150.682 110.51 152.309 110.51 153.939L110.578 153.882Z" fill="#46731E"/>
<path d="M115.33 153.843L115.446 158.657C111.447 159.457 110.104 157.598 110.616 153.843L110.549 153.911L115.33 153.843Z" fill="#46731E"/>
<path d="M110.442 165.888C110.509 166.206 110.497 166.534 110.408 166.846C110.319 167.158 110.155 167.444 109.931 167.678C109.707 167.913 109.429 168.09 109.121 168.194C108.813 168.299 108.484 168.327 108.163 168.276C107.841 168.316 107.513 168.28 107.208 168.171C106.902 168.061 106.627 167.881 106.404 167.646C106.181 167.411 106.016 167.126 105.924 166.816C105.832 166.505 105.815 166.178 105.873 165.859C105.843 165.578 105.875 165.294 105.967 165.027C106.059 164.759 106.209 164.515 106.406 164.312C106.604 164.109 106.843 163.952 107.109 163.851C107.374 163.751 107.658 163.71 107.941 163.731C109.467 163.654 110.404 164.242 110.442 165.888Z" fill="#46731E"/>
<path d="M62.2797 120.182L62.5308 119.219L62.2797 120.182Z" fill="#5D8F2F"/>
<path d="M139.556 129.81C139.556 130.282 139.556 130.773 139.508 131.226C139.508 132.853 139.508 134.509 137.219 134.596C136.905 134.655 136.582 134.638 136.277 134.547C135.971 134.456 135.692 134.293 135.462 134.073C135.232 133.852 135.059 133.58 134.956 133.279C134.853 132.978 134.824 132.657 134.872 132.343C134.872 130.08 136.62 130.08 138.214 129.965L139.634 129.878L139.556 129.81Z" fill="#46731E"/>
<path d="M155.012 144.985L154.046 145.264L155.012 144.985Z" fill="#528228"/>
<path d="M71.9393 44.1656L62.2797 44.0982V34.5565L71.9393 34.4794V44.1656Z" fill="#D4E1CA"/>
<path d="M115.33 153.843L110.549 153.949C110.549 152.325 110.549 150.698 110.549 149.067L115.234 149.144L115.33 153.843Z" fill="#79B648"/>
<path d="M120.237 149.183C123.937 148.653 125.579 150.213 125.067 153.939C121.551 154.305 119.812 152.851 120.237 149.183Z" fill="#252A3E"/>
<path d="M115.33 144.186L110.501 144.32V134.634L115.224 134.836C115.276 137.95 115.311 141.066 115.33 144.186Z" fill="#79B648"/>
</svg>
