<svg width="272" height="586" viewBox="0 0 272 586" fill="none" xmlns="http://www.w3.org/2000/svg">
<path d="M261.15 576.07V566.2H251.27H241.39H231.52V576.07V585.95H241.39H251.27H261.15H271.02V576.07H261.15Z" fill="#E54C34"/>
<path d="M231.52 210.64V220.52V230.39V240.27H241.39V230.39V220.52V210.64H231.52Z" fill="#E78906"/>
<path d="M251.27 141.5V131.63H241.39V121.75H231.52H221.64V131.63H231.52V141.5H241.39V151.38H251.27V161.26H261.15V151.38V141.5H251.27Z" fill="#AC3927"/>
<path d="M221.64 447.68H211.76V457.55H221.64V447.68Z" fill="#60C0AF"/>
<path d="M231.52 299.53V289.65H221.64V299.53V309.41V319.28V329.16V339.04V348.91V358.79V368.66V378.54V388.42V398.29V408.17H211.76V418.05H221.64V427.92V437.8H231.52V447.68H241.39V437.8V427.92V418.05V408.17V398.29V388.42V378.54V368.66V358.79V348.91V339.04V329.16V319.28V309.41V299.53H231.52Z" fill="#E78906"/>
<path d="M251.27 230.39V240.27H241.39H231.52V250.15V260.02V269.9V279.78H221.64H211.76V289.65H221.64H231.52V299.53H241.39V309.41H251.27V319.28H261.15V309.41V299.53V289.65V279.78V269.9V260.02V250.15V240.27V230.39H251.27Z" fill="#AC3927"/>
<path d="M241.39 556.32V546.44V536.57V526.69V516.81H231.52V506.94V497.06V487.18V477.31V467.43V457.55H221.64H211.76H201.89V467.43V477.31H211.76V487.18V497.06V506.94H221.64V516.81V526.69V536.57V546.44H231.52V556.32V566.2H241.39H251.27V556.32H241.39Z" fill="#792A21"/>
<path d="M211.76 447.68H201.89V457.55H211.76V447.68Z" fill="#60C0AF"/>
<path d="M201.89 418.05H192.01V427.92V437.8V447.68H201.89H211.76V437.8V427.92V418.05H201.89Z" fill="#E78906"/>
<path d="M192.01 210.64V220.52V230.39H201.89V220.52V210.64H192.01Z" fill="#102E46"/>
<path d="M182.14 269.9H172.26V279.78V289.65H182.14H192.01V279.78V269.9H182.14Z" fill="#AC3927"/>
<path d="M172.26 447.68H162.38V457.55H172.26V447.68Z" fill="#60C0AF"/>
<path d="M211.76 210.64H201.89V220.52V230.39H192.01V220.52V210.64H182.14H172.26V220.52H182.14V230.39V240.27H172.26H162.38V250.15V260.02H172.26V269.9H182.14H192.01V279.78V289.65H182.14V299.53H192.01H201.89H211.76V289.65V279.78V269.9H221.64V260.02V250.15V240.27V230.39V220.52V210.64H211.76Z" fill="#E78906"/>
<path d="M172.26 220.52V230.39H162.38V240.27H172.26H182.14V230.39V220.52H172.26Z" fill="#E6675D"/>
<path d="M162.38 210.64V220.52V230.39H172.26V220.52V210.64H162.38Z" fill="#102E46"/>
<path d="M172.26 506.94V497.06V487.18V477.31V467.43V457.55H162.38H152.51V467.43V477.31V487.18V497.06V506.94H162.38V516.81V526.69V536.57V546.44V556.32V566.2H172.26H182.14V556.32V546.44V536.57V526.69V516.81V506.94H172.26Z" fill="#792A21"/>
<path d="M162.38 447.68H152.51V457.55H162.38V447.68Z" fill="#60C0AF"/>
<path d="M162.38 418.05H152.51V427.92V437.8V447.68H162.38H172.26V437.8V427.92V418.05H162.38Z" fill="#E78906"/>
<path d="M211.76 289.65V299.53H201.89H192.01H182.14V289.65H172.26V299.53H162.38V309.41V319.28V329.16V339.04V348.91V358.79V368.66H152.51V378.54V388.42V398.29V408.17V418.05H162.38H172.26H182.14H192.01H201.89H211.76V408.17H221.64V398.29V388.42V378.54V368.66H211.76V358.79V348.91H221.64V339.04V329.16V319.28V309.41V299.53V289.65H211.76Z" fill="#BF2717"/>
<path d="M172.26 566.2H162.38H152.51V576.07H142.63V585.95H152.51H162.38H172.26H182.14V576.07V566.2H172.26Z" fill="#E54C34"/>
<path d="M152.51 269.9H142.63V279.78H152.51V269.9Z" fill="#E54C34"/>
<path d="M261.15 171.13V161.26H251.27V151.38H241.39V141.5H231.52V131.63H221.64H211.76H201.89H192.01V141.5H182.14H172.26H162.38V151.38H152.51V161.26H142.63V171.13V181.01V190.89V200.76H152.51V210.64V220.52V230.39V240.27V250.15V260.02V269.9H162.38V260.02V250.15V240.27V230.39V220.52V210.64H172.26H182.14H192.01H201.89H211.76H221.64V220.52V230.39V240.27V250.15V260.02V269.9H211.76V279.78H221.64H231.52V269.9V260.02V250.15V240.27V230.39V220.52V210.64H241.39V220.52V230.39V240.27H251.27V230.39H261.15V220.52H271.02V210.64V200.76V190.89V181.01V171.13H261.15Z" fill="#E54C34"/>
<path d="M162.38 289.65H152.51V299.53H142.63V309.41H132.75V319.28H122.88V329.16H113V339.04V348.91H122.88V358.79H132.75V368.66H122.88V378.54H132.75H142.63H152.51V368.66H162.38V358.79H152.51V348.91H142.63V339.04H132.75V329.16H142.63V319.28H152.51V309.41H162.38V299.53H172.26V289.65H162.38Z" fill="#E78906"/>
<g clip-path="url(#clip0)">
<path d="M182 97.999H174.998V105.001H182V97.999Z" fill="#AEADAE"/>
<path d="M182 90.9966H174.998V97.999H182V90.9966Z" fill="#AEADAE"/>
<path d="M182 84.0012H174.998V90.9966H182V84.0012Z" fill="#AEADAE"/>
<path d="M182 76.9988H174.998V84.0012H182V76.9988Z" fill="#AEADAE"/>
<path d="M182 69.9963H174.998V76.9988H182V69.9963Z" fill="#AEADAE"/>
<path d="M182 63.001H174.998V69.9964H182V63.001Z" fill="#AEADAE"/>
<path d="M182 55.9984H174.998V63.0009H182V55.9984Z" fill="#AEADAE"/>
<path d="M182 48.996H174.998V55.9984H182V48.996Z" fill="#AEADAE"/>
<path d="M182 42.0006H174.998V48.996H182V42.0006Z" fill="#AEADAE"/>
<path d="M174.998 105.002H167.995V111.997H174.998V105.002Z" fill="#AEADAE"/>
<path d="M174.998 97.999H167.995V105.001H174.998V97.999Z" fill="#AEADAE"/>
<path d="M174.998 90.9966H167.995V97.999H174.998V90.9966Z" fill="#343334"/>
<path d="M174.998 84.0012H167.995V90.9966H174.998V84.0012Z" fill="#343334"/>
<path d="M174.998 76.9988H167.995V84.0012H174.998V76.9988Z" fill="#343334"/>
<path d="M174.998 69.9963H167.995V76.9988H174.998V69.9963Z" fill="#343334"/>
<path d="M174.998 63.001H167.995V69.9964H174.998V63.001Z" fill="#343334"/>
<path d="M174.998 55.9984H167.995V63.0009H174.998V55.9984Z" fill="#343334"/>
<path d="M174.998 48.996H167.995V55.9984H174.998V48.996Z" fill="#343334"/>
<path d="M174.998 42.0006H167.995V48.996H174.998V42.0006Z" fill="#343334"/>
<path d="M174.998 34.9982H167.995V42.0006H174.998V34.9982Z" fill="#343334"/>
<path d="M174.998 28.0028H167.995V34.9982H174.998V28.0028Z" fill="#AEADAE"/>
<path d="M167.995 111.997H161V118.999H167.995V111.997Z" fill="#AEADAE"/>
<path d="M167.995 105.002H161V111.997H167.995V105.002Z" fill="#343334"/>
<path d="M167.995 97.999H161V105.001H167.995V97.999Z" fill="#343334"/>
<path d="M167.995 28.0028H161V34.9982H167.995V28.0028Z" fill="#343334"/>
<path d="M167.995 21.0004H161V28.0028H167.995V21.0004Z" fill="#343334"/>
<path d="M167.995 13.9978H161V21.0003H167.995V13.9978Z" fill="#AEADAE"/>
<path d="M161 118.999H153.997V126.002H161V118.999Z" fill="#AEADAE"/>
<path d="M161 111.997H153.997V118.999H161V111.997Z" fill="#343334"/>
<path d="M161 13.9978H153.997V21.0003H161V13.9978Z" fill="#343334"/>
<path d="M153.997 126.002H146.995V132.997H153.997V126.002Z" fill="#AEADAE"/>
<path d="M153.997 118.999H146.995V126.002H153.997V118.999Z" fill="#343334"/>
<path d="M153.997 7.00244H146.995V13.9978H153.997V7.00244Z" fill="#343334"/>
<path d="M146.995 153.998H140V161H146.995V153.998Z" fill="#AEADAE"/>
<path d="M146.995 147.002H140V153.998H146.995V147.002Z" fill="#AEADAE"/>
<path d="M146.995 140H140V147.002H146.995V140Z" fill="#AEADAE"/>
<path d="M146.995 132.997H140V140H146.995V132.997Z" fill="#AEADAE"/>
<path d="M146.995 126.002H140V132.997H146.995V126.002Z" fill="#AEADAE"/>
<path d="M146.995 118.999H140V126.002H146.995V118.999Z" fill="#343334"/>
<path d="M146.995 7.00244H140V13.9978H146.995V7.00244Z" fill="#343334"/>
<path d="M146.995 0H140V7.00247H146.995V0Z" fill="#AEADAE"/>
<path d="M140 153.998H132.997V161H140V153.998Z" fill="#343334"/>
<path d="M140 147.002H132.997V153.998H140V147.002Z" fill="#343334"/>
<path d="M140 140H132.997V147.002H140V140Z" fill="#343334"/>
<path d="M140 132.997H132.997V140H140V132.997Z" fill="#343334"/>
<path d="M140 126.002H132.997V132.997H140V126.002Z" fill="#343334"/>
<path d="M140 0H132.997V7.00247H140V0Z" fill="#343334"/>
<path d="M132.997 147.002H125.995V153.998H132.997V147.002Z" fill="#343334"/>
<path d="M132.997 0H125.995V7.00247H132.997V0Z" fill="#343334"/>
<path d="M125.995 140H118.999V147.002H125.995V140Z" fill="#343334"/>
<path d="M125.995 0H118.999V7.00247H125.995V0Z" fill="#343334"/>
<path d="M118.999 132.997H111.997V140H118.999V132.997Z" fill="#343334"/>
<path d="M118.999 0H111.997V7.00247H118.999V0Z" fill="#343334"/>
<path d="M111.997 132.997H104.994V140H111.997V132.997Z" fill="#AEADAE"/>
<path d="M111.997 126.002H104.994V132.997H111.997V126.002Z" fill="#343334"/>
<path d="M111.997 0H104.994V7.00247H111.997V0Z" fill="#343334"/>
<path d="M104.994 132.997H97.999V140H104.994V132.997Z" fill="#AEADAE"/>
<path d="M104.994 126.002H97.999V132.997H104.994V126.002Z" fill="#343334"/>
<path d="M104.994 0H97.999V7.00247H104.994V0Z" fill="#343334"/>
<path d="M97.999 132.997H90.9966V140H97.999V132.997Z" fill="#AEADAE"/>
<path d="M97.999 126.002H90.9966V132.997H97.999V126.002Z" fill="#343334"/>
<path d="M97.999 0H90.9966V7.00247H97.999V0Z" fill="#343334"/>
<path d="M90.9964 132.997H83.9939V140H90.9964V132.997Z" fill="#AEADAE"/>
<path d="M90.9964 126.002H83.9939V132.997H90.9964V126.002Z" fill="#343334"/>
<path d="M90.9964 0H83.9939V7.00247H90.9964V0Z" fill="#343334"/>
<path d="M83.9941 132.997H76.9988V140H83.9941V132.997Z" fill="#AEADAE"/>
<path d="M83.9941 126.002H76.9988V132.997H83.9941V126.002Z" fill="#343334"/>
<path d="M83.9941 0H76.9988V7.00247H83.9941V0Z" fill="#343334"/>
<path d="M76.9985 132.997H69.9961V140H76.9985V132.997Z" fill="#AEADAE"/>
<path d="M76.9985 126.002H69.9961V132.997H76.9985V126.002Z" fill="#343334"/>
<path d="M76.9985 0H69.9961V7.00247H76.9985V0Z" fill="#343334"/>
<path d="M69.9961 132.997H62.9937V140H69.9961V132.997Z" fill="#AEADAE"/>
<path d="M69.9961 126.002H62.9937V132.997H69.9961V126.002Z" fill="#343334"/>
<path d="M69.9961 0H62.9937V7.00247H69.9961V0Z" fill="#343334"/>
<path d="M62.9937 132.997H55.9983V140H62.9937V132.997Z" fill="#AEADAE"/>
<path d="M62.9937 126.002H55.9983V132.997H62.9937V126.002Z" fill="#343334"/>
<path d="M62.9937 0H55.9983V7.00247H62.9937V0Z" fill="#343334"/>
<path d="M55.9983 132.997H48.9958V140H55.9983V132.997Z" fill="#AEADAE"/>
<path d="M55.9983 126.002H48.9958V132.997H55.9983V126.002Z" fill="#343334"/>
<path d="M55.9983 0H48.9958V7.00247H55.9983V0Z" fill="#343334"/>
<path d="M48.9959 132.997H41.9934V140H48.9959V132.997Z" fill="#AEADAE"/>
<path d="M48.9959 126.002H41.9934V132.997H48.9959V126.002Z" fill="#343334"/>
<path d="M48.9959 0H41.9934V7.00247H48.9959V0Z" fill="#343334"/>
<path d="M41.9934 126.002H34.998V132.997H41.9934V126.002Z" fill="#343334"/>
<path d="M41.9934 0H34.998V7.00247H41.9934V0Z" fill="#343334"/>
<path d="M34.9981 126.002H27.9956V132.997H34.9981V126.002Z" fill="#AEADAE"/>
<path d="M34.9981 118.999H27.9956V126.002H34.9981V118.999Z" fill="#343334"/>
<path d="M34.9981 7.00244H27.9956V13.9978H34.9981V7.00244Z" fill="#343334"/>
<path d="M27.9956 118.999H21.0002V126.002H27.9956V118.999Z" fill="#343334"/>
<path d="M27.9956 7.00244H21.0002V13.9978H27.9956V7.00244Z" fill="#343334"/>
<path d="M21.0003 111.997H13.9978V118.999H21.0003V111.997Z" fill="#343334"/>
<path d="M21.0003 13.9978H13.9978V21.0003H21.0003V13.9978Z" fill="#343334"/>
<path d="M13.9978 105.002H6.99536V111.997H13.9978V105.002Z" fill="#343334"/>
<path d="M13.9978 97.999H6.99536V105.001H13.9978V97.999Z" fill="#343334"/>
<path d="M13.9978 28.0028H6.99536V34.9982H13.9978V28.0028Z" fill="#343334"/>
<path d="M13.9978 21.0004H6.99536V28.0028H13.9978V21.0004Z" fill="#343334"/>
<path d="M6.99537 90.9966H0V97.999H6.99537V90.9966Z" fill="#343334"/>
<path d="M6.99537 84.0012H0V90.9966H6.99537V84.0012Z" fill="#343334"/>
<path d="M6.99537 76.9988H0V84.0012H6.99537V76.9988Z" fill="#343334"/>
<path d="M6.99537 69.9963H0V76.9988H6.99537V69.9963Z" fill="#343334"/>
<path d="M6.99537 63.001H0V69.9964H6.99537V63.001Z" fill="#343334"/>
<path d="M6.99537 55.9984H0V63.0009H6.99537V55.9984Z" fill="#343334"/>
<path d="M6.99537 48.996H0V55.9984H6.99537V48.996Z" fill="#343334"/>
<path d="M6.99537 42.0006H0V48.996H6.99537V42.0006Z" fill="#343334"/>
<path d="M6.99537 34.9982H0V42.0006H6.99537V34.9982Z" fill="#343334"/>
</g>
<path d="M120.124 42.4164H103.819V44.9208H96.3249V42.4164H52.2466V58.721H54.1731V61.2896H55.0721V64.3592H52.4585H52.2466V80.6638H54.1731V83.2324H55.0721V86.302H52.2466V102.607H96.3249V100.102H103.819V102.607H120.124V86.302H117.298V83.2324H122.05V66.9279H120.124V64.3592H117.298V61.2896H122.05V44.985H120.124V42.4164Z" fill="#D7CCBD"/>
<path d="M112.045 41.5044H49.8257V96.6793H112.045V41.5044Z" fill="#E57654"/>
<path d="M93.005 41.5686H48.9268V57.8732H93.005V41.5686Z" fill="#E25F3F"/>
<path d="M116.803 41.5686H100.499V57.8732H116.803V41.5686Z" fill="#E25F3F"/>
<path d="M72.7252 79.8097H116.803V63.5051L72.7252 63.5051V79.8097Z" fill="#E25F3F"/>
<path d="M48.9264 79.8097H65.231V63.5051H48.9264V79.8097Z" fill="#E25F3F"/>
<path d="M91.0783 39H47V55.3046H91.0783V39Z" fill="#BF2717"/>
<path d="M114.877 39H98.5723V55.3046H114.877V39Z" fill="#BF2717"/>
<path d="M91.0783 82.8792H47V99.1837H91.0783V82.8792Z" fill="#BF2717"/>
<path d="M114.877 82.8792H98.5723V99.1837H114.877V82.8792Z" fill="#BF2717"/>
<path d="M70.7987 77.241H114.877V60.9364L70.7987 60.9364V77.241Z" fill="#BF2717"/>
<path d="M47.0001 77.241H63.3047V60.9364H47.0001V77.241Z" fill="#BF2717"/>
<path d="M85.9409 44.1117H52.1373L47 39H91.0783L85.9409 44.1117Z" fill="#DE3205"/>
<path d="M109.74 66.0543H75.9362L70.7988 60.9363H114.877L109.74 66.0543Z" fill="#DE3205"/>
<path d="M109.74 44.1117H103.71L98.5723 39H114.877L109.74 44.1117Z" fill="#DE3205"/>
<path d="M85.9409 87.9972H52.1373L47 82.8792H91.0783L85.9409 87.9972Z" fill="#DE3205"/>
<path d="M109.74 87.9972H103.71L98.5723 82.8792H114.877L109.74 87.9972Z" fill="#DE3205"/>
<path d="M58.3728 66.0543H52.3429L47.2056 60.9363H63.5102L58.3728 66.0543Z" fill="#DE3205"/>
<defs>
<clipPath id="clip0">
<rect width="182" height="161" fill="white"/>
</clipPath>
</defs>
</svg>
