<svg width="272" height="586" viewBox="0 0 272 586" fill="none" xmlns="http://www.w3.org/2000/svg">
<path d="M261.15 576.07V566.2H251.27H241.39H231.52V576.07V585.95H241.39H251.27H261.15H271.02V576.07H261.15Z" fill="#E54C34"/>
<path d="M221.64 447.68H211.76V457.55H221.64V447.68Z" fill="#E57654"/>
<path d="M231.52 299.53V289.65H221.64V299.53V309.41V319.28V329.16V339.04V348.91V358.79V368.66V378.54V388.42V398.29V408.17H211.76V418.05H221.64V427.92V437.8H231.52V447.68H241.39V437.8V427.92V418.05V408.17V398.29V388.42V378.54V368.66V358.79V348.91V339.04V329.16V319.28V309.41V299.53H231.52Z" fill="#E78906"/>
<path d="M241.39 556.32V546.44V536.57V526.69V516.81H231.52V506.94V497.06V487.18V477.31V467.43V457.55H221.64H211.76H201.89V467.43V477.31H211.76V487.18V497.06V506.94H221.64V516.81V526.69V536.57V546.44H231.52V556.32V566.2H241.39H251.27V556.32H241.39Z" fill="#BF2717"/>
<path d="M211.76 447.68H201.89V457.55H211.76V447.68Z" fill="#E57654"/>
<path d="M201.89 418.05H192.01V427.92V437.8V447.68H201.89H211.76V437.8V427.92V418.05H201.89Z" fill="#E78906"/>
<path d="M172.26 447.68H162.38V457.55H172.26V447.68Z" fill="#E57654"/>
<path d="M172.26 506.94V497.06V487.18V477.31V467.43V457.55H162.38H152.51V467.43V477.31V487.18V497.06V506.94H162.38V516.81V526.69V536.57V546.44V556.32V566.2H172.26H182.14V556.32V546.44V536.57V526.69V516.81V506.94H172.26Z" fill="#BF2717"/>
<path d="M162.38 447.68H152.51V457.55H162.38V447.68Z" fill="#E57654"/>
<path d="M162.38 418.05H152.51V427.92V437.8V447.68H162.38H172.26V437.8V427.92V418.05H162.38Z" fill="#E78906"/>
<path d="M211.76 289.65V299.53H201.89H192.01H182.14V289.65H172.26V299.53H162.38V309.41V319.28V329.16V339.04V348.91V358.79V368.66H152.51V378.54V388.42V398.29V408.17V418.05H162.38H172.26H182.14H192.01H201.89H211.76V408.17H221.64V398.29V388.42V378.54V368.66H211.76V358.79V348.91H221.64V339.04V329.16V319.28V309.41V299.53V289.65H211.76Z" fill="#CEB3D5"/>
<path d="M172.26 566.2H162.38H152.51V576.07H142.63V585.95H152.51H162.38H172.26H182.14V576.07V566.2H172.26Z" fill="#E54C34"/>
<path d="M162.38 289.65H152.51V299.53H142.63V309.41H132.75V319.28H122.88V329.16H113V339.04V348.91H122.88V358.79H132.75V368.66H122.88V378.54H132.75H142.63H152.51V368.66H162.38V358.79H152.51V348.91H142.63V339.04H132.75V329.16H142.63V319.28H152.51V309.41H162.38V299.53H172.26V289.65H162.38Z" fill="#E78906"/>
<path d="M231.52 210.64V220.52V230.39V240.27H241.39V230.39V220.52V210.64H231.52Z" fill="#E78906"/>
<path d="M251.27 141.5V131.63H241.39V121.75H231.52H221.64V131.63H231.52V141.5H241.39V151.38H251.27V161.26H261.15V151.38V141.5H251.27Z" fill="#824003"/>
<path d="M251.27 230.39V240.27H241.39H231.52V250.15V260.02V269.9V279.78H221.64H211.76V289.65H221.64H231.52V299.53H241.39V309.41H251.27V319.28H261.15V309.41V299.53V289.65V279.78V269.9V260.02V250.15V240.27V230.39H251.27Z" fill="#824003"/>
<path d="M192.01 210.64V220.52V230.39H201.89V220.52V210.64H192.01Z" fill="#102E46"/>
<path d="M182.14 269.9H172.26V279.78V289.65H182.14H192.01V279.78V269.9H182.14Z" fill="#824003"/>
<path d="M211.76 210.64H201.89V220.52V230.39H192.01V220.52V210.64H182.14H172.26V220.52H182.14V230.39V240.27H172.26H162.38V250.15V260.02H172.26V269.9H182.14H192.01V279.78V289.65H182.14V299.53H192.01H201.89H211.76V289.65V279.78V269.9H221.64V260.02V250.15V240.27V230.39V220.52V210.64H211.76Z" fill="#E78906"/>
<path d="M172.26 220.52V230.39H162.38V240.27H172.26H182.14V230.39V220.52H172.26Z" fill="#E6675D"/>
<path d="M162.38 210.64V220.52V230.39H172.26V220.52V210.64H162.38Z" fill="#102E46"/>
<path d="M152.51 269.9H142.63V279.78H152.51V269.9Z" fill="#9F6631"/>
<path d="M261.15 171.13V161.26H251.27V151.38H241.39V141.5H231.52V131.63H221.64H211.76H201.89H192.01V141.5H182.14H172.26H162.38V151.38H152.51V161.26H142.63V171.13V181.01V190.89V200.76H152.51V210.64V220.52V230.39V240.27V250.15V260.02V269.9H162.38V260.02V250.15V240.27V230.39V220.52V210.64H172.26H182.14H192.01H201.89H211.76H221.64V220.52V230.39V240.27V250.15V260.02V269.9H211.76V279.78H221.64H231.52V269.9V260.02V250.15V240.27V230.39V220.52V210.64H241.39V220.52V230.39V240.27H251.27V230.39H261.15V220.52H271.02V210.64V200.76V190.89V181.01V171.13H261.15Z" fill="#9F6631"/>
<g clip-path="url(#clip0)">
<path d="M182 97.999H174.998V105.001H182V97.999Z" fill="#AEADAE"/>
<path d="M182 90.9966H174.998V97.999H182V90.9966Z" fill="#AEADAE"/>
<path d="M182 84.0012H174.998V90.9966H182V84.0012Z" fill="#AEADAE"/>
<path d="M182 76.9988H174.998V84.0012H182V76.9988Z" fill="#AEADAE"/>
<path d="M182 69.9963H174.998V76.9988H182V69.9963Z" fill="#AEADAE"/>
<path d="M182 63.001H174.998V69.9964H182V63.001Z" fill="#AEADAE"/>
<path d="M182 55.9984H174.998V63.0009H182V55.9984Z" fill="#AEADAE"/>
<path d="M182 48.996H174.998V55.9984H182V48.996Z" fill="#AEADAE"/>
<path d="M182 42.0006H174.998V48.996H182V42.0006Z" fill="#AEADAE"/>
<path d="M174.998 105.002H167.995V111.997H174.998V105.002Z" fill="#AEADAE"/>
<path d="M174.998 97.999H167.995V105.001H174.998V97.999Z" fill="#AEADAE"/>
<path d="M174.998 90.9966H167.995V97.999H174.998V90.9966Z" fill="#343334"/>
<path d="M174.998 84.0012H167.995V90.9966H174.998V84.0012Z" fill="#343334"/>
<path d="M174.998 76.9988H167.995V84.0012H174.998V76.9988Z" fill="#343334"/>
<path d="M174.998 69.9963H167.995V76.9988H174.998V69.9963Z" fill="#343334"/>
<path d="M174.998 63.001H167.995V69.9964H174.998V63.001Z" fill="#343334"/>
<path d="M174.998 55.9984H167.995V63.0009H174.998V55.9984Z" fill="#343334"/>
<path d="M174.998 48.996H167.995V55.9984H174.998V48.996Z" fill="#343334"/>
<path d="M174.998 42.0006H167.995V48.996H174.998V42.0006Z" fill="#343334"/>
<path d="M174.998 34.9982H167.995V42.0006H174.998V34.9982Z" fill="#343334"/>
<path d="M174.998 28.0028H167.995V34.9982H174.998V28.0028Z" fill="#AEADAE"/>
<path d="M167.995 111.997H161V118.999H167.995V111.997Z" fill="#AEADAE"/>
<path d="M167.995 105.002H161V111.997H167.995V105.002Z" fill="#343334"/>
<path d="M167.995 97.999H161V105.001H167.995V97.999Z" fill="#343334"/>
<path d="M167.995 28.0028H161V34.9982H167.995V28.0028Z" fill="#343334"/>
<path d="M167.995 21.0004H161V28.0028H167.995V21.0004Z" fill="#343334"/>
<path d="M167.995 13.9978H161V21.0003H167.995V13.9978Z" fill="#AEADAE"/>
<path d="M161 118.999H153.997V126.002H161V118.999Z" fill="#AEADAE"/>
<path d="M161 111.997H153.997V118.999H161V111.997Z" fill="#343334"/>
<path d="M161 13.9978H153.997V21.0003H161V13.9978Z" fill="#343334"/>
<path d="M153.997 126.002H146.995V132.997H153.997V126.002Z" fill="#AEADAE"/>
<path d="M153.997 118.999H146.995V126.002H153.997V118.999Z" fill="#343334"/>
<path d="M153.997 7.00244H146.995V13.9978H153.997V7.00244Z" fill="#343334"/>
<path d="M146.995 153.998H140V161H146.995V153.998Z" fill="#AEADAE"/>
<path d="M146.995 147.002H140V153.998H146.995V147.002Z" fill="#AEADAE"/>
<path d="M146.995 140H140V147.002H146.995V140Z" fill="#AEADAE"/>
<path d="M146.995 132.997H140V140H146.995V132.997Z" fill="#AEADAE"/>
<path d="M146.995 126.002H140V132.997H146.995V126.002Z" fill="#AEADAE"/>
<path d="M146.995 118.999H140V126.002H146.995V118.999Z" fill="#343334"/>
<path d="M146.995 7.00244H140V13.9978H146.995V7.00244Z" fill="#343334"/>
<path d="M146.995 0H140V7.00247H146.995V0Z" fill="#AEADAE"/>
<path d="M140 153.998H132.997V161H140V153.998Z" fill="#343334"/>
<path d="M140 147.002H132.997V153.998H140V147.002Z" fill="#343334"/>
<path d="M140 140H132.997V147.002H140V140Z" fill="#343334"/>
<path d="M140 132.997H132.997V140H140V132.997Z" fill="#343334"/>
<path d="M140 126.002H132.997V132.997H140V126.002Z" fill="#343334"/>
<path d="M140 0H132.997V7.00247H140V0Z" fill="#343334"/>
<path d="M132.997 147.002H125.995V153.998H132.997V147.002Z" fill="#343334"/>
<path d="M132.997 0H125.995V7.00247H132.997V0Z" fill="#343334"/>
<path d="M125.995 140H118.999V147.002H125.995V140Z" fill="#343334"/>
<path d="M125.995 0H118.999V7.00247H125.995V0Z" fill="#343334"/>
<path d="M118.999 132.997H111.997V140H118.999V132.997Z" fill="#343334"/>
<path d="M118.999 0H111.997V7.00247H118.999V0Z" fill="#343334"/>
<path d="M111.997 132.997H104.994V140H111.997V132.997Z" fill="#AEADAE"/>
<path d="M111.997 126.002H104.994V132.997H111.997V126.002Z" fill="#343334"/>
<path d="M111.997 0H104.994V7.00247H111.997V0Z" fill="#343334"/>
<path d="M104.994 132.997H97.999V140H104.994V132.997Z" fill="#AEADAE"/>
<path d="M104.994 126.002H97.999V132.997H104.994V126.002Z" fill="#343334"/>
<path d="M104.994 0H97.999V7.00247H104.994V0Z" fill="#343334"/>
<path d="M97.999 132.997H90.9966V140H97.999V132.997Z" fill="#AEADAE"/>
<path d="M97.999 126.002H90.9966V132.997H97.999V126.002Z" fill="#343334"/>
<path d="M97.999 0H90.9966V7.00247H97.999V0Z" fill="#343334"/>
<path d="M90.9964 132.997H83.9939V140H90.9964V132.997Z" fill="#AEADAE"/>
<path d="M90.9964 126.002H83.9939V132.997H90.9964V126.002Z" fill="#343334"/>
<path d="M90.9964 0H83.9939V7.00247H90.9964V0Z" fill="#343334"/>
<path d="M83.9941 132.997H76.9988V140H83.9941V132.997Z" fill="#AEADAE"/>
<path d="M83.9941 126.002H76.9988V132.997H83.9941V126.002Z" fill="#343334"/>
<path d="M83.9941 0H76.9988V7.00247H83.9941V0Z" fill="#343334"/>
<path d="M76.9985 132.997H69.9961V140H76.9985V132.997Z" fill="#AEADAE"/>
<path d="M76.9985 126.002H69.9961V132.997H76.9985V126.002Z" fill="#343334"/>
<path d="M76.9985 0H69.9961V7.00247H76.9985V0Z" fill="#343334"/>
<path d="M69.9961 132.997H62.9937V140H69.9961V132.997Z" fill="#AEADAE"/>
<path d="M69.9961 126.002H62.9937V132.997H69.9961V126.002Z" fill="#343334"/>
<path d="M69.9961 0H62.9937V7.00247H69.9961V0Z" fill="#343334"/>
<path d="M62.9937 132.997H55.9983V140H62.9937V132.997Z" fill="#AEADAE"/>
<path d="M62.9937 126.002H55.9983V132.997H62.9937V126.002Z" fill="#343334"/>
<path d="M62.9937 0H55.9983V7.00247H62.9937V0Z" fill="#343334"/>
<path d="M55.9983 132.997H48.9958V140H55.9983V132.997Z" fill="#AEADAE"/>
<path d="M55.9983 126.002H48.9958V132.997H55.9983V126.002Z" fill="#343334"/>
<path d="M55.9983 0H48.9958V7.00247H55.9983V0Z" fill="#343334"/>
<path d="M48.9959 132.997H41.9934V140H48.9959V132.997Z" fill="#AEADAE"/>
<path d="M48.9959 126.002H41.9934V132.997H48.9959V126.002Z" fill="#343334"/>
<path d="M48.9959 0H41.9934V7.00247H48.9959V0Z" fill="#343334"/>
<path d="M41.9934 126.002H34.998V132.997H41.9934V126.002Z" fill="#343334"/>
<path d="M41.9934 0H34.998V7.00247H41.9934V0Z" fill="#343334"/>
<path d="M34.9981 126.002H27.9956V132.997H34.9981V126.002Z" fill="#AEADAE"/>
<path d="M34.9981 118.999H27.9956V126.002H34.9981V118.999Z" fill="#343334"/>
<path d="M34.9981 7.00244H27.9956V13.9978H34.9981V7.00244Z" fill="#343334"/>
<path d="M27.9956 118.999H21.0002V126.002H27.9956V118.999Z" fill="#343334"/>
<path d="M27.9956 7.00244H21.0002V13.9978H27.9956V7.00244Z" fill="#343334"/>
<path d="M21.0003 111.997H13.9978V118.999H21.0003V111.997Z" fill="#343334"/>
<path d="M21.0003 13.9978H13.9978V21.0003H21.0003V13.9978Z" fill="#343334"/>
<path d="M13.9978 105.002H6.99536V111.997H13.9978V105.002Z" fill="#343334"/>
<path d="M13.9978 97.999H6.99536V105.001H13.9978V97.999Z" fill="#343334"/>
<path d="M13.9978 28.0028H6.99536V34.9982H13.9978V28.0028Z" fill="#343334"/>
<path d="M13.9978 21.0004H6.99536V28.0028H13.9978V21.0004Z" fill="#343334"/>
<path d="M6.99537 90.9966H0V97.999H6.99537V90.9966Z" fill="#343334"/>
<path d="M6.99537 84.0012H0V90.9966H6.99537V84.0012Z" fill="#343334"/>
<path d="M6.99537 76.9988H0V84.0012H6.99537V76.9988Z" fill="#343334"/>
<path d="M6.99537 69.9963H0V76.9988H6.99537V69.9963Z" fill="#343334"/>
<path d="M6.99537 63.001H0V69.9964H6.99537V63.001Z" fill="#343334"/>
<path d="M6.99537 55.9984H0V63.0009H6.99537V55.9984Z" fill="#343334"/>
<path d="M6.99537 48.996H0V55.9984H6.99537V48.996Z" fill="#343334"/>
<path d="M6.99537 42.0006H0V48.996H6.99537V42.0006Z" fill="#343334"/>
<path d="M6.99537 34.9982H0V42.0006H6.99537V34.9982Z" fill="#343334"/>
</g>
<path d="M103 24H41V59H103V24Z" fill="#E57654"/>
<path d="M64 27H42V62H64V27Z" fill="#E57654"/>
<path d="M84.005 23.5686H39.9268V39.8732H84.005V23.5686Z" fill="#E25F3F"/>
<path d="M107.803 23.5686H91.4988V39.8732H107.803V23.5686Z" fill="#E25F3F"/>
<path d="M63.7252 61.8097L107.803 61.8097V45.5051L63.7252 45.5051V61.8097Z" fill="#E25F3F"/>
<path d="M39.9264 61.8097H56.231V45.5051H39.9264V61.8097Z" fill="#E25F3F"/>
<path d="M82.0783 21H38V37.3046H82.0783V21Z" fill="#BF2717"/>
<path d="M105.877 21H89.5723V37.3046H105.877V21Z" fill="#BF2717"/>
<path d="M61.7987 59.241L105.877 59.241V42.9364L61.7987 42.9364V59.241Z" fill="#BF2717"/>
<path d="M38.0001 59.241H54.3047V42.9364H38.0001V59.241Z" fill="#BF2717"/>
<path d="M76.9409 26.1117H43.1373L38 21H82.0783L76.9409 26.1117Z" fill="#DE3205"/>
<path d="M100.74 48.0543H66.9362L61.7988 42.9363H105.877L100.74 48.0543Z" fill="#DE3205"/>
<path d="M100.74 26.1117H94.7096L89.5723 21H105.877L100.74 26.1117Z" fill="#DE3205"/>
<path d="M68.9207 67H42.0793L38 62H73L68.9207 67Z" fill="#DE3205"/>
<path d="M49.3728 48.0543H43.3429L38.2056 42.9363H54.5102L49.3728 48.0543Z" fill="#DE3205"/>
<path d="M122.763 67.8586H94.0958H81.6888L77.3901 75.8972V78.2292V83.9303H84.0531V91.9688H90.8718V99.7118H97.6906V107.745H104.902V115.783H112.489V107.745H119.7V99.7118H126.524V91.9688H133.343V83.9303H140V78.2292V75.8972L135.164 67.8586H122.763Z" fill="#D7CCBD"/>
<path d="M135.61 73.0331H73L77.2987 65H130.774L135.61 73.0331Z" fill="#A87EB7"/>
<path d="M128.952 81.0717H79.6575V89.1048H128.952V81.0717Z" fill="#8C5BA4"/>
<path d="M122.134 88.8147H86.4817V96.8478H122.134V88.8147Z" fill="#8C5BA4"/>
<path d="M115.31 96.8477H93.3005V104.881H115.31V96.8477Z" fill="#8C5BA4"/>
<path d="M108.098 96.8477H100.511V104.881H108.098V96.8477Z" fill="#A87EB7"/>
<path d="M111.07 88.9597H97.54V96.9929H111.07V88.9597Z" fill="#A87EB7"/>
<path d="M115.847 80.9213H92.7632V88.9544H115.847V80.9213Z" fill="#A87EB7"/>
<path d="M108.098 104.881H100.511V112.914H108.098V104.881Z" fill="#8C5BA4"/>
<path d="M135.61 73.0331H73V81.0662H135.61V73.0331Z" fill="#8C5BA4"/>
<path d="M122.134 73.0331H86.4817V81.0662H122.134V73.0331Z" fill="#A87EB7"/>
<path d="M122.134 73.0331H86.4817L89.7057 65H118.372L122.134 73.0331Z" fill="#CEB3D5"/>
<path d="M135.61 73.0331H73V75.3651H135.61V73.0331Z" fill="#CEB3D5"/>
<defs>
<clipPath id="clip0">
<rect width="182" height="161" fill="white"/>
</clipPath>
</defs>
</svg>
