<svg width="130" height="199" viewBox="0 0 130 199" fill="none" xmlns="http://www.w3.org/2000/svg">
<path d="M89.52 89.64V99.52V109.39V119.27H99.39V109.39V99.52V89.64H89.52Z" fill="#E78906"/>
<path d="M109.27 20.5V10.63H99.3899V0.75H89.5199H79.6399V10.63H89.5199V20.5H99.3899V30.38H109.27V40.26H119.15V30.38V20.5H109.27Z" fill="#824003"/>
<path d="M109.27 109.39V119.27H99.39H89.52V129.15V139.02V148.9V158.78H79.64H69.76V168.65H79.64H89.52V178.53H99.39V188.41H109.27V198.28H119.15V188.41V178.53V168.65V158.78V148.9V139.02V129.15V119.27V109.39H109.27Z" fill="#824003"/>
<path d="M50.01 89.64V99.52V109.39H59.89V99.52V89.64H50.01Z" fill="#102E46"/>
<path d="M40.14 148.9H30.26V158.78V168.65H40.14H50.01V158.78V148.9H40.14Z" fill="#824003"/>
<path d="M69.7599 89.64H59.8899V99.52V109.39H50.0099V99.52V89.64H40.1399H30.2599V99.52H40.1399V109.39V119.27H30.2599H20.3799V129.15V139.02H30.2599V148.9H40.1399H50.0099V158.78V168.65H40.1399V178.53H50.0099H59.8899H69.7599V168.65V158.78V148.9H79.6399V139.02V129.15V119.27V109.39V99.52V89.64H69.7599Z" fill="#E78906"/>
<path d="M30.2599 99.52V109.39H20.3799V119.27H30.2599H40.1399V109.39V99.52H30.2599Z" fill="#E6675D"/>
<path d="M20.3799 89.64V99.52V109.39H30.2599V99.52V89.64H20.3799Z" fill="#102E46"/>
<path d="M10.5099 148.9H0.629883V158.78H10.5099V148.9Z" fill="#9F6631"/>
<path d="M119.15 50.13V40.26H109.27V30.38H99.3899V20.5H89.5199V10.63H79.6399H69.7599H59.8899H50.0099V20.5H40.1399H30.2599H20.3799V30.38H10.5099V40.26H0.629883V50.13V60.01V69.89V79.76H10.5099V89.64V99.52V109.39V119.27V129.15V139.02V148.9H20.3799V139.02V129.15V119.27V109.39V99.52V89.64H30.2599H40.1399H50.0099H59.8899H69.7599H79.6399V99.52V109.39V119.27V129.15V139.02V148.9H69.7599V158.78H79.6399H89.5199V148.9V139.02V129.15V119.27V109.39V99.52V89.64H99.3899V99.52V109.39V119.27H109.27V109.39H119.15V99.52H129.02V89.64V79.76V69.89V60.01V50.13H119.15Z" fill="#9F6631"/>
</svg>
