<svg id="Calque_1" data-name="Calque 1" xmlns="http://www.w3.org/2000/svg" viewBox="0 0 583.73 103.25"><title>glasses</title><g id="MjSw6z.tif"><path d="M546,349.57c-2.27.12-3.89,0.27-5.51,0.27-44.66,0-89.31-.07-134,0.11-4.7,0-6-1.4-5.85-5.91s1.09-10.65-1.34-13.31c-2.12-2.33-8.47-1.24-12.9-.9-5,.38-7.08-1.16-6.4-6.35,0.38-2.95-.18-6,0.13-9,0.5-4.82-1.73-6.21-6.13-5.89-3.31.24-6.67-.11-10,0.09-3.64.22-5-1.14-5-4.89,0.18-10.33-.1-20.66.11-31,0.09-4.24-1.19-6-5.67-5.93-10.33.23-20.66,0.24-31,0-4.73-.12-6,1.79-5.9,6.23,0.25,10.16-.06,20.33.15,30.49,0.08,4-1.39,5.38-5.26,5.11-3.48-.24-7,0.14-10.49-0.1-3.82-.26-5.54,1-5.25,5.06,0.28,3.81-.11,7.67.11,11.49,0.2,3.46-1,4.7-4.57,4.63-10.16-.19-20.33-0.07-30.49-0.07h-83c-6.55,0-6.56,0-6.57-6.7,0-2.83-.2-5.68,0-8.49,0.42-4.71-1.71-6.25-6.17-5.93-3.65.26-7.33,0-11,.07-2.76.08-4-1.1-3.92-3.84,0.06-4.5-.08-9,0-13.5,0.06-2.56-.93-3.6-3.52-3.53-4.33.12-8.67-.07-13,0-2.86.08-4.33-.78-4.3-3.94,0.1-11,.07-22,0-33,0-2.86,1.05-4.35,4.14-4.19,2.82,0.14,5.66,0,8.5,0l542.37,0c7.86,0,7.86,0,7.88,8,0,12.79,0,12.79,13,12.82,7.82,0,7.82,0,7.8,8,0,12.22,0,12.22-12.36,12.22-8,0-16-.2-24,0.08-3.86.13-5-1.25-4.73-4.89s-0.11-7.34.11-11-1-5.12-4.81-5.11q-37.49.14-75,0c-3.5,0-4.62,1.5-4.58,4.86,0.12,10.66-.09,21.33.11,32,0.07,3.65-1,5.19-4.8,4.94s-7.67.06-11.49-.08c-3.19-.12-4.61,1.23-4.56,4.4,0.06,4-.13,8,0,12,0.14,3.41-1.15,4.89-4.64,4.73-3.82-.18-7.68.17-11.49-0.09-4.06-.28-5.25,1.48-5,5.29C546.19,339.72,546,344.5,546,349.57ZM234.27,287.75c-0.17,6-.56,12-0.33,17.91,0,1.16,2.39,3,3.83,3.17,4,0.44,8,.07,12,0.17,3.11,0.07,4.62-1.15,4.53-4.41q-0.18-6.24,0-12.5c0.1-3-1.19-4.12-4.17-4.07-5.33.09-10.66-.08-16-0.14-0.13-5.45-.36-10.91-0.37-16.36,0-2.67-1-4.07-3.73-4.07-4.64,0-9.29-.23-13.9.16-1.25.11-3.31,2.05-3.35,3.21-0.18,5.76.19,11.54,0.37,17.31L192,288c0-5.47-.19-10.94-0.09-16.41,0.05-3-1.19-4.26-4.11-4.2-20.47.41-16.45-3.25-16.92,16.38,0,0.17,0,.33,0,0.5-0.12,2.71,1.18,4,3.88,3.9,5.79-.13,11.59-0.21,17.38-0.32-0.09,5.62-.12,11.25-0.31,16.87-0.11,3.28,1.45,4.4,4.52,4.32,3.81-.11,7.62-0.14,11.43,0,3.37,0.12,4.79-1.25,4.78-4.66,0-5.46.26-10.91,0.41-16.37Zm228.66,0.31c0.07-5.47.09-10.93,0.23-16.4,0.08-2.95-1.28-4.27-4.16-4.26-4.14,0-8.29.09-12.43-.05-3.49-.12-4.63,1.44-4.52,4.81,0.18,5.3,0,10.61,0,15.91-5,0-10-.28-15,0.07-4.53.32-5.62-1.49-5.6-5.75,0.07-16.42-.05-16.36-16.86-15.05-3.17.25-4.45,1.5-4.34,4.65,0.14,4,.12,8,0,12-0.09,3,1.16,4.24,4.13,4.18,4.16-.09,8.34.21,12.49,0,3.62-.22,4.74,1.39,4.64,4.69-0.12,3.83,0,7.66-.07,11.49-0.09,3.27,1.09,5,4.63,4.85,5.32-.19,10.65-0.15,16-0.21,0,5.33.27,10.66,0,16-0.23,4.08,1.42,5.3,5.23,5.06a93.38,93.38,0,0,1,11,0c3.76,0.21,5-1.51,4.91-5.06-0.19-5.32-.15-10.64-0.22-16h21.13c0,5.64,0,11.28-.13,16.92-0.08,2.94,1,4.24,4,4.11,4.14-.17,8.3-0.16,12.44,0,3.3,0.13,4.44-1.41,4.37-4.49q-0.13-6,0-11.94c0.08-3.47-1.67-4.69-4.93-4.62-5.3.13-10.61,0.11-15.92,0.15,0-5.66-.07-11.32.08-17,0.08-3-1.11-4.14-4.11-4.07C474.25,288.16,468.59,288.06,462.93,288.06Z" transform="translate(-129.44 -246.71)"/><path d="M442.05,308.93c-5.33.06-10.66,0-16,.21-3.55.13-4.72-1.58-4.63-4.85,0.1-3.83,0-7.66.07-11.49,0.1-3.3-1-4.91-4.64-4.69-4.15.25-8.32,0-12.49,0-3,.06-4.22-1.2-4.13-4.18,0.12-4,.14-8,0-12-0.11-3.15,1.18-4.4,4.34-4.65,16.81-1.31,16.93-1.37,16.86,15.05,0,4.26,1.07,6.07,5.6,5.75,5-.35,10-0.07,15-0.07l-0.12-.14q0,10.57,0,21.14Z" transform="translate(-129.44 -246.71)" style="fill:#fff"/><path d="M484.06,308.93H462.93l0.13,0.13q0-10.57,0-21.14l-0.14.13c5.66,0,11.32.1,17,0,3-.08,4.19,1,4.11,4.07-0.15,5.66-.07,11.32-0.08,17Z" transform="translate(-129.44 -246.71)" style="fill:#fff"/><path d="M462.93,308.93c0.06,5.32,0,10.65.22,16,0.12,3.55-1.15,5.26-4.91,5.06a93.38,93.38,0,0,0-11,0c-3.8.24-5.45-1-5.23-5.06,0.3-5.31,0-10.65,0-16l-0.12.13h21.13Z" transform="translate(-129.44 -246.71)" style="fill:#fff"/><path d="M213,288c-0.15,5.46-.43,10.91-0.42,16.37,0,3.41-1.42,4.79-4.78,4.66-3.8-.14-7.62-0.11-11.43,0-3.07.09-4.64-1-4.52-4.32,0.19-5.62.22-11.25,0.31-16.87L192,288l21.12,0.15Z" transform="translate(-129.44 -246.71)" style="fill:#fff"/><path d="M483.93,309.06c5.31,0,10.62,0,15.92-.15,3.26-.08,5,1.14,4.93,4.62q-0.13,6,0,11.94c0.07,3.07-1.08,4.61-4.37,4.49-4.14-.16-8.3-0.17-12.44,0-3.07.12-4.12-1.17-4-4.11,0.15-5.64.1-11.28,0.13-16.92Z" transform="translate(-129.44 -246.71)" style="fill:#fff"/><path d="M192.18,287.83c-5.79.1-11.59,0.19-17.38,0.32-2.7.06-4-1.2-3.88-3.9,0-.17,0-0.33,0-0.5,0.47-19.63-3.55-16,16.92-16.38,2.92-.06,4.16,1.22,4.11,4.2-0.09,5.47,0,10.94.1,16.4Z" transform="translate(-129.44 -246.71)" style="fill:#fff"/><path d="M442.05,288.07c0-5.3.18-10.61,0-15.91-0.11-3.36,1-4.93,4.52-4.81,4.14,0.15,8.29.06,12.43,0.05,2.88,0,4.23,1.31,4.16,4.26-0.14,5.46-.16,10.93-0.23,16.4l0.14-.13H441.93Z" transform="translate(-129.44 -246.71)" style="fill:#fff"/><path d="M213.16,288.12c-0.18-5.77-.55-11.55-0.37-17.31,0-1.15,2.1-3.1,3.35-3.21,4.6-.39,9.26-0.16,13.9-0.16,2.73,0,3.73,1.41,3.73,4.07,0,5.45.23,10.91,0.37,16.36l0.14-.14L213,288Z" transform="translate(-129.44 -246.71)" style="fill:#fff"/><path d="M234.14,287.88c5.33,0.06,10.66.23,16,.14,3-.05,4.27,1,4.17,4.07q-0.2,6.24,0,12.5c0.09,3.25-1.42,4.48-4.53,4.41-4-.1-8,0.27-12-0.17-1.44-.16-3.78-2-3.83-3.17-0.23-6,.16-11.94.34-17.92Z" transform="translate(-129.44 -246.71)" style="fill:#fff"/><path d="M441.93,287.93h21.13q0,10.57,0,21.14H441.93Q441.93,298.5,441.93,287.93Z" transform="translate(-129.44 -246.71)"/></g></svg>