<svg width="121" height="80" viewBox="0 0 121 80" fill="none" xmlns="http://www.w3.org/2000/svg">
<path d="M15.8801 42.7801H24.1201V51.9701H33.0701V61.1501H45.4101V70.3301H57.0201V79.5101H64.0601H71.2501V70.3301H82.8701V61.1501H95.2001V51.9701H104.16V42.7801H112.39V33.6101H120.25V24.4201H111.72V15.2401H103.29V6.06006H79.6801V15.2401H71.2501V24.4201H64.0601H56.3401V15.2401H47.9201V6.06006H24.3101V15.2401H15.8801V24.4201H8.62012V33.6101H15.8801V42.7801Z" fill="#D7CCBD"/>
<path d="M39.7499 0.73999H16.1399V9.91999H39.7499V0.73999Z" fill="#DE3205"/>
<path d="M48.17 9.91992H7.70996V19.0999H48.17V9.91992Z" fill="#DE3205"/>
<path d="M55.8899 19.1001H0.449951V28.2801H55.8899V19.1001Z" fill="#DE3205"/>
<path d="M112.08 19.1001H55.8899V28.2801H112.08V19.1001Z" fill="#BF2717"/>
<path d="M25.8699 19.1001H15.9399V28.2801H25.8699V19.1001Z" fill="#E25F3F"/>
<path d="M35.8099 9.91992H25.8799V19.0999H35.8099V9.91992Z" fill="#E25F3F"/>
<path d="M95.12 0.73999H71.51V9.91999H95.12V0.73999Z" fill="#BF2717"/>
<path d="M103.54 9.91992H63.0801V19.0999H103.54V9.91992Z" fill="#BF2717"/>
<path d="M55.88 28.28H7.70996V37.46H55.88V28.28Z" fill="#DE3205"/>
<path d="M104.22 28.28H55.8899V37.46H104.22V28.28Z" fill="#BF2717"/>
<path d="M55.8799 37.46H15.9399V46.64H55.8799V37.46Z" fill="#DE3205"/>
<path d="M95.9899 37.46H55.8899V46.64H95.9899V37.46Z" fill="#BF2717"/>
<path d="M87.0299 46.6399H55.8899V55.8199H87.0299V46.6399Z" fill="#BF2717"/>
<path d="M55.8899 46.6399H24.8999V55.8199H55.8899V46.6399Z" fill="#DE3205"/>
<path d="M55.89 55.8201H37.24V65.0001H55.89V55.8201Z" fill="#DE3205"/>
<path d="M74.6999 55.8201H55.8899V65.0001H74.6999V55.8201Z" fill="#BF2717"/>
<path d="M55.8901 65H48.8501V74.18H55.8901V65Z" fill="#DE3205"/>
<path d="M63.0899 65H55.8899V74.18H63.0899V65Z" fill="#BF2717"/>
<path d="M35.8099 28.28H25.8799V37.46H35.8099V28.28Z" fill="#E25F3F"/>
</svg>
