<svg width="92" height="127" viewBox="0 0 92 127" fill="none" xmlns="http://www.w3.org/2000/svg">
<path d="M2.5917 124.358V121.769H5.18343H7.77253H10.3643V124.358V126.95H7.77253H5.18343H2.5917H-2.37249e-05V124.358H2.5917Z" fill="#E54C34"/>
<path d="M10.3642 80.3146H12.9559V82.9064V85.4955H10.3642V88.0872H7.77249V85.4955V82.9064V80.3146H10.3642Z" fill="#E78906"/>
<path d="M10.3643 49.2244V46.6353H12.956H15.5452V49.2244H12.956V51.8161V54.4079V56.997V59.5887V62.1804V64.7695V67.3613V69.9504V72.5421V75.1338V77.7229V80.3146H10.3643H7.77261V77.7229V75.1338V72.5421V69.9504V67.3613V64.7695V62.1804V59.5887V56.997V54.4079V51.8161V49.2244H10.3643Z" fill="#E57654"/>
<path d="M18.1368 18.1342V20.7259H20.726V23.3177H18.1368V25.9068V28.4985H15.5451V25.9068V23.3177V20.7259V18.1342H18.1368Z" fill="#E54C34"/>
<path d="M25.9094 25.9067V28.4985V31.0902H23.3177V28.4985V25.9067H25.9094Z" fill="#0E273B"/>
<path d="M7.77249 119.177V116.586V113.997V111.405V108.813H10.3642V106.224H12.9559V108.813V111.405V113.997V116.586H10.3642V119.177V121.769H7.77249H5.18339V119.177H7.77249Z" fill="#ECA138"/>
<path d="M28.4984 106.224V108.813V111.405V113.997V116.586V119.177V121.769H25.9093H23.3176V119.177V116.586V113.997V111.405V108.813V106.224H25.9093H28.4984Z" fill="#ECA138"/>
<path d="M12.956 90.6789V88.0872H15.5451V85.4955V82.9064V80.3146H18.1368H20.726V82.9064V85.4955V88.0872H18.1368V90.6789V93.268V95.8597H15.5451V98.4515V101.041V103.632V106.224H12.956H10.3643V103.632V101.041V98.4515V95.8597V93.268V90.6789H12.956Z" fill="#792A21"/>
<path d="M31.0902 80.3146V82.9064V85.4955V88.0872V90.6789V93.268V95.8597V98.4515V101.041V103.632V106.224H28.4985H25.9094V103.632V101.041V98.4515V95.8597V93.268V90.6789V88.0872V85.4955V82.9064V80.3146H28.4985H31.0902Z" fill="#792A21"/>
<path d="M15.5451 49.2244V46.6353H18.1368H20.7259V49.2244H23.3177H25.9094V46.6353H28.4985H31.0902V49.2244V51.8161V54.4079V56.997V59.5887V62.1804V64.7695V67.3613V69.9504V72.5421V75.1338V77.7229V80.3146H28.4985H25.9094H23.3177H20.7259H18.1368H15.5451H12.956V77.7229V75.1338V72.5421V69.9504V67.3613V64.7695V62.1804V59.5887V56.997V54.4079V51.8161V49.2244H15.5451Z" fill="#BF2717"/>
<path d="M25.9093 121.769H28.4984H31.0902V124.358H33.6819V126.95H31.0902H28.4984H25.9093H23.3176V124.358V121.769H25.9093Z" fill="#E54C34"/>
<path d="M31.0902 28.4985V31.0902H33.6819V33.6793H31.0902H28.4984V31.0902V28.4985H31.0902Z" fill="#E6675D"/>
<path d="M33.6819 25.9067V28.4985V31.0902H31.0902V28.4985V25.9067H33.6819Z" fill="#0E273B"/>
<path d="M33.6819 80.3146V77.7229H36.271V80.3146V82.9063V85.4955V88.0872H33.6819V85.4955H31.0902V82.9063V80.3146H33.6819Z" fill="#E78906"/>
<path d="M33.6819 49.2244V51.8162V54.4079V56.997V59.5887V62.1804V64.7695V67.3613V69.9504V72.5421H36.271V75.1338V77.7229H33.6819V80.3146H31.0902V77.7229V75.1338V72.5421V69.9504V67.3613V64.7695V62.1804V59.5887V56.997V54.4079V51.8162V49.2244H33.6819Z" fill="#E57654"/>
<path d="M18.1368 28.4906V23.3177H36.271V41.4519H33.6819V44.0436H25.9093V49.214H20.7206V44.0436H18.1315V36.2711H15.5398V28.4906H18.1315H18.1368ZM23.3176 25.8989V31.0824H25.9093V25.9068H23.3176V25.8989ZM33.6819 31.0824V25.9068H31.0902V28.4906H28.4984V33.6715H33.6819V31.0824Z" fill="#E78906"/>
<path d="M15.5451 5.18085H18.1368V7.77257H15.5451V5.18085Z" fill="#AC3927"/>
<path d="M20.7259 7.77256V5.18084V2.58911H23.3176V5.18084H25.9094H28.4985H31.0902V7.77256H33.6819V10.3617H36.271V12.9534H38.8627V15.5451V18.1342V20.7259H41.4545V23.3177H38.8627V25.9068H36.271V23.3177H33.6819H31.0902H28.4985H25.9094H23.3176H20.7259V20.7259H18.1368V18.1342H15.5451V15.5451V12.9534V10.3617H18.1368V7.77256H20.7259Z" fill="#AC3927"/>
<path d="M23.3177 0H25.9094V2.5891H23.3177V0Z" fill="#AC3927"/>
<path d="M38.8627 25.9067H41.4545V28.4985H38.8627V25.9067Z" fill="#AC3927"/>
<path d="M41.4545 18.1342H44.0436V20.7259H41.4545V18.1342Z" fill="#AC3927"/>
<g clip-path="url(#clip0)">
<path d="M82.6909 44.6119L76.1951 37.6275L45.7985 65.8979L52.2943 72.8823L82.6909 44.6119Z" fill="#D9D8DB"/>
<path d="M73.1514 48.3117L71.8143 46.8741L48.3778 68.6713L49.7149 70.1089L73.1514 48.3117Z" fill="#ACACB2"/>
<path d="M77.2601 38.7726L76.1553 37.5847L45.7587 65.8551L46.8635 67.043L77.2601 38.7726Z" fill="#E1E1E3"/>
<path d="M49.2083 74.0963L44.3656 68.8894L36.9208 75.8135L41.7635 81.0204L49.2083 74.0963Z" fill="#A16125"/>
<path d="M42.8951 79.968L38.0524 74.7611L36.9208 75.8135L41.7635 81.0204L42.8951 79.968Z" fill="#C27526"/>
<path d="M45.2303 77.7961L40.3876 72.5892L39.256 73.6416L44.0987 78.8485L45.2303 77.7961Z" fill="#C27526"/>
<path d="M47.5671 75.6228L42.7244 70.4159L41.5928 71.4683L46.4355 76.6752L47.5671 75.6228Z" fill="#C27526"/>
<path d="M42.5895 81.9084L36.0936 74.924L35.0181 75.9243L41.514 82.9087L42.5895 81.9084Z" fill="#F6E781"/>
<path d="M84.5185 39.4567L81.4691 36.178L77.9184 39.4804L80.9677 42.7591L84.5185 39.4567Z" fill="#D9D8DB"/>
<path d="M53.4886 74.1664L44.5824 64.5903L43.0472 66.0182L51.9534 75.5942L53.4886 74.1664Z" fill="#EDA637"/>
<path d="M51.9533 75.5942L43.0471 66.0181L42.3208 66.6937L51.227 76.2697L51.9533 75.5942Z" fill="#DF871E"/>
<path d="M45.2616 63.9586L42.3386 60.8158L38.6729 64.2251L41.5959 67.3678L45.2616 63.9586Z" fill="#F6CE23"/>
<path d="M46.2841 63.0076L45.3112 61.9615L39.6005 67.2727L40.5734 68.3188L46.2841 63.0076Z" fill="#F6E781"/>
<path d="M38.9849 62.3064L39.7985 63.1811L41.2173 61.8615L40.4038 60.9868L38.9849 62.3064Z" fill="#C27526"/>
<path d="M54.5413 78.9796L55.3549 79.8543L56.7737 78.5347L55.9602 77.66L54.5413 78.9796Z" fill="#C27526"/>
<path d="M57.0564 76.6404L54.1334 73.4977L50.4677 76.907L53.3907 80.0497L57.0564 76.6404Z" fill="#F6CE23"/>
<path d="M36.7572 84.0784L39.891 81.1638L36.472 77.4876L33.3382 80.4022L36.7572 84.0784Z" fill="#F6CE23"/>
<path d="M32.7403 79.7595L30.8087 81.5559L35.4219 86.5161L37.3535 84.7196L32.7403 79.7595Z" fill="#BDAC92"/>
<path d="M32.1024 80.3528L31.4453 80.9639L36.0585 85.9241L36.7156 85.3129L32.1024 80.3528Z" fill="#A38A67"/>
<path d="M39.1648 81.8365L39.8896 81.1623L36.4706 77.4861L35.7457 78.1603L39.1648 81.8365Z" fill="#E5BF2B"/>
<path d="M56.1288 73.5928L55.1559 72.5467L49.4452 77.8579L50.4181 78.904L56.1288 73.5928Z" fill="#F6E781"/>
</g>
<defs>
<clipPath id="clip0">
<rect width="24" height="68" fill="white" transform="translate(74.7932 29) rotate(47.0756)"/>
</clipPath>
</defs>
</svg>
