<svg width="132" height="117" viewBox="0 0 132 117" fill="none" xmlns="http://www.w3.org/2000/svg">
<path d="M37.36 102.09V116.53H102.13V102.09V95.43H131.28V63.91H120.19V22.84H105.45V6.05005H34.04V22.84H19.3V63.91H8.21997V95.43H37.36V102.09Z" fill="#D7CCBD"/>
<path d="M112.02 17.51H11.1299V84.18H112.02V17.51Z" fill="white"/>
<path d="M97.2701 0.72998H25.8701V17.51H97.2701V0.72998Z" fill="white"/>
<path d="M123.1 58.5801H0.0400391V90.1001H123.1V58.5801Z" fill="white"/>
<path d="M93.95 90.1001H29.1899V111.2H93.95V90.1001Z" fill="white"/>
<path d="M105.94 36.8701H17.21V43.5301H105.94V36.8701Z" fill="#D9D8DB"/>
<path d="M71.38 43.53H51.76V50.19H71.38V43.53Z" fill="#D9D8DB"/>
<path d="M40.7899 90.1001H29.1899V96.7601H40.7899V90.1001Z" fill="#D9D8DB"/>
<path d="M93.9599 90.1001H82.3599V96.7601H93.9599V90.1001Z" fill="#D9D8DB"/>
<path d="M52.72 43.53H25.78V58.58H52.72V43.53Z" fill="#57565C"/>
<path d="M97.3699 43.53H70.4299V58.58H97.3699V43.53Z" fill="#57565C"/>
<path d="M44.75 58.5801H25.78V65.9401H44.75V58.5801Z" fill="#57565C"/>
<path d="M97.3699 58.5801H78.1499V65.9401H97.3699V58.5801Z" fill="#57565C"/>
<path d="M57.95 68.22H50.71V86.96H57.95V68.22Z" fill="#57565C"/>
<path d="M65.1899 65.29H57.95V80.52H65.1899V65.29Z" fill="#57565C"/>
<path d="M72.4399 68.22H65.2V86.96H72.4399V68.22Z" fill="#57565C"/>
</svg>
