<svg width="107" height="103" viewBox="0 0 107 103" fill="none" xmlns="http://www.w3.org/2000/svg">
<path opacity="0.6" d="M84.4425 76.4463L90.5422 87.5741L78.9511 81.7635L84.4425 76.4463Z" fill="#FFDB03"/>
<path opacity="0.6" d="M93.5839 47.5679L106.014 51.2613L93.5839 55.082V47.5679Z" fill="#FFDB03"/>
<path opacity="0.6" d="M78.9511 20.8864L90.4436 14.9802L84.4425 26.2036L78.9511 20.8864Z" fill="#FFDB03"/>
<path opacity="0.6" d="M17.2963 51.3248C17.3006 60.4816 21.0558 69.2628 27.7382 75.7421C34.4205 82.2214 43.4842 85.8696 52.941 85.8864V16.7473C43.4814 16.7642 34.4152 20.4146 27.7324 26.8973C21.0496 33.38 17.2962 42.1653 17.2963 51.3248V51.3248Z" fill="#FFE965"/>
<path opacity="0.6" d="M88.7172 51.3248C88.7172 42.1543 84.9549 33.3594 78.2579 26.8748C71.5608 20.3903 62.4777 16.7473 53.0067 16.7473V16.7473V85.8864C62.4749 85.8865 71.5555 82.2457 78.252 75.7645C84.9486 69.2834 88.7129 60.4926 88.7172 51.3248V51.3248Z" fill="#FFDB03"/>
<path opacity="0.6" d="M52.9409 0V12.0353H56.8869L52.9409 0Z" fill="#FFDB03"/>
<path opacity="0.6" d="M53.0725 102.65L56.8869 90.6147H52.9409V102.22L53.0725 102.65Z" fill="#FFDB03"/>
<path opacity="0.6" d="M84.4425 76.4463L90.5422 87.5741L78.9511 81.7635L84.4425 76.4463Z" fill="#FFDB03"/>
<path opacity="0.6" d="M93.5839 47.5679L106.014 51.2613L93.5839 55.082V47.5679Z" fill="#FFDB03"/>
<path opacity="0.6" d="M78.9511 20.8864L90.4436 14.9802L84.4425 26.2036L78.9511 20.8864Z" fill="#FFDB03"/>
<path opacity="0.6" d="M88.7172 51.3248C88.7172 42.1543 84.9549 33.3594 78.2579 26.8748C71.5608 20.3903 62.4777 16.7473 53.0067 16.7473V16.7473V85.8864C62.4749 85.8865 71.5555 82.2457 78.252 75.7645C84.9486 69.2834 88.7129 60.4926 88.7172 51.3248V51.3248Z" fill="#FFDB03"/>
<path opacity="0.6" d="M52.9409 0V12.0353H56.8869L52.9409 0Z" fill="#FFDB03"/>
<path opacity="0.6" d="M53.0725 102.65L56.8869 90.6147H52.9409V102.22L53.0725 102.65Z" fill="#FFDB03"/>
<path opacity="0.6" d="M21.5708 26.2038L15.4711 15.0759L27.0622 20.8866L21.5708 26.2038Z" fill="#FFDB03"/>
<path opacity="0.6" d="M12.4296 55.082L0 51.3886L12.4296 47.5679V55.082Z" fill="#FFDB03"/>
<path opacity="0.6" d="M27.0622 81.7635L15.5698 87.6697L21.5708 76.4463L27.0622 81.7635Z" fill="#FFDB03"/>
<path opacity="0.6" d="M49.1266 12.0353H52.941V0L49.1266 12.0353Z" fill="#FFDB03"/>
<path opacity="0.6" d="M52.941 102.22V90.6147H49.1266L52.941 102.22Z" fill="#FFDB03"/>
</svg>
