<?xml version="1.0" encoding="utf-8"?>
<!-- Generator: Adobe Illustrator 16.0.0, SVG Export Plug-In . SVG Version: 6.00 Build 0)  -->
<!DOCTYPE svg PUBLIC "-//W3C//DTD SVG 1.1//EN" "http://www.w3.org/Graphics/SVG/1.1/DTD/svg11.dtd">
<svg version="1.1" id="Layer_1" xmlns="http://www.w3.org/2000/svg" xmlns:xlink="http://www.w3.org/1999/xlink" x="0px" y="0px"
	 width="66px" height="66px" viewBox="0 0 66 66" enable-background="new 0 0 66 66" xml:space="preserve">
<g>
	<g>
		<circle fill="#329908" cx="33" cy="28.327" r="26.5"/>
		<path fill="#207700" d="M51.738,9.588c10.348,10.349,10.348,27.128,0,37.478c-10.349,10.347-27.128,10.347-37.476,0"/>
	</g>
	<polygon fill="#FFFFFF" points="37.234,51.241 33.389,52.972 29.543,51.241 26.476,16.081 33.389,3.104 40.302,16.081 	"/>
	<polyline fill="#E5E5E5" points="33.389,3.104 40.302,16.081 37.234,51.241 33.389,52.972 	"/>
	<rect x="30" y="54.173" fill="#D81107" width="7" height="8"/>
	<polyline fill="#AA2011" points="30,54.173 37,54.173 37,62.173 	"/>
	<path fill="#34B515" d="M41.122,53.172c0,1.13-0.917,2.001-2.045,2.001H27.702c-1.131,0-2.046-0.871-2.046-2.001l0,0
		c0-1.129,0.915-1.999,2.046-1.999h11.375C40.205,51.173,41.122,52.043,41.122,53.172L41.122,53.172z"/>
	<g>
		<path fill="#FFC114" d="M41.122,53.172c0,1.13-0.917,2.001-2.045,2.001H27.702c-1.131,0-2.046-0.871-2.046-2.001l0,0
			c0-1.129,0.915-1.999,2.046-1.999h11.375C40.205,51.173,41.122,52.043,41.122,53.172L41.122,53.172z"/>
		<path fill="#FCA12A" d="M28,51.173h11.077c1.128,0,2.045,0.846,2.045,1.975l0,0c0,1.13-0.918,2.025-2.045,2.025"/>
	</g>
	<g>
		<path fill="#34B515" d="M28.02,62.673c0-1.034,1.003-1.5,1.726-1.5h7.287c0.725,0,1.968,0.29,1.968,1.5l0,0
			c0,1.211-1.243,1.5-1.968,1.5h-7.287C29.022,64.173,28,63.935,28.02,62.673L28.02,62.673z"/>
		<path fill="#0B8E00" d="M37,64.173h-7.255c-0.723,0-1.726-0.238-1.726-1.5l0,0c0-1.004,1.003-1.5,1.726-1.5"/>
	</g>
	<rect x="30" y="56.173" fill="#FFC41D" width="7" height="1"/>
	<rect x="30" y="59.173" fill="#FFC41D" width="7" height="1"/>
</g>
</svg>
