<svg width="125" height="142" viewBox="0 0 125 142" fill="none" xmlns="http://www.w3.org/2000/svg">
<path opacity="0.5" d="M89.5201 6.29004V22.69H47.3401H40.7001V6.29004H31.91H14.5801H5.79004V15.08V58.54H14.4601V67.32H23.2401V58.54H14.5801V15.08H31.91V22.69H32.0301V67.32H23.2401V76.11H32.0301H38.8901V84.89H46.6801V93.67H53.3401V101.19H61.2401V108.96H53.3401V116.48H61.2401V126.1H53.3401V133.62H38.2801V141.14H92.11V133.62H77.0601V126.1H69.16V116.48H77.0601V108.96H69.16V101.19H77.0601V93.67H83.3401V84.89H91.1301V76.11H98.1901H98.3701H106.98V67.32H98.3701V22.69H98.3101V15.08H115.65V58.54H106.98V67.32H115.76V58.54H124.43V15.08V6.29004H115.65H98.3101H89.5201Z" fill="#BDAC92"/>
<path d="M0 0L0 52.24H8.78003L8.78003 0H0Z" fill="#E5BF2B"/>
<path d="M8.65991 52.25V61.03H17.4399V52.25H8.65991Z" fill="#E5BF2B"/>
<path d="M17.45 61.0301V69.8101H26.2299V61.0301H17.45Z" fill="#E5BF2B"/>
<path d="M26.1099 0.00012207V16.3901H34.8899V0.00012207H26.1099Z" fill="#E5BF2B"/>
<path d="M26.12 0.000244141H0V8.78024H26.12V0.000244141Z" fill="#E5BF2B"/>
<path d="M109.85 0.000244141V52.2402H118.63V0.000244141H109.85Z" fill="#E5BF2B"/>
<path d="M101.18 52.25V61.03H109.96V52.25H101.18Z" fill="#E5BF2B"/>
<path d="M92.3999 61.0401V69.8201H101.18V61.0401H92.3999Z" fill="#E5BF2B"/>
<path d="M83.72 0.0101318V16.4001H92.5V0.0101318H83.72Z" fill="#E5BF2B"/>
<path d="M92.5099 8.78003L118.63 8.78003V3.05176e-05L92.5099 3.05176e-05V8.78003Z" fill="#E5BF2B"/>
<path d="M92.57 16.3901H26.23V69.8101H92.57V16.3901Z" fill="#F6CE23"/>
<path d="M41.5399 16.3901H34.8999V43.1001H41.5399V16.3901Z" fill="#F9ED9D"/>
<path d="M41.5399 50.0601H34.8999V56.7001H41.5399V50.0601Z" fill="#F9ED9D"/>
<path d="M85.3298 69.8101H33.0898V78.5901H85.3298V69.8101Z" fill="#F6CE23"/>
<path d="M77.5399 78.6001H40.8799V87.3801H77.5399V78.6001Z" fill="#F6CE23"/>
<path d="M71.2501 87.3801H47.54V94.9001H71.2501V87.3801Z" fill="#E5BF2B"/>
<path d="M71.2501 119.81H47.54V127.33H71.2501V119.81Z" fill="#E5BF2B"/>
<path d="M86.32 127.33H32.49V134.85H86.32V127.33Z" fill="#D4B331"/>
<path d="M63.3599 94.9001H55.45V119.81H63.3599V94.9001Z" fill="#DF871E"/>
<path d="M71.2501 102.67H47.54V110.19H71.2501V102.67Z" fill="#E5BF2B"/>
</svg>
