<svg width="737" height="456" viewBox="0 0 737 456" fill="none" xmlns="http://www.w3.org/2000/svg">
<rect width="737" height="456" fill="black" fill-opacity="0.5"/>
<path opacity="0.5" d="M399.52 199.29V215.69H357.34H350.7V199.29H341.91H324.58H315.79V208.08V251.54H324.46V260.32H333.24V251.54H324.58V208.08H341.91V215.69H342.03V260.32H333.24V269.11H342.03H348.89V277.89H356.68V286.67H363.34V294.19H371.24V301.96H363.34V309.48H371.24V319.1H363.34V326.62H348.28V334.14H402.11V326.62H387.06V319.1H379.16V309.48H387.06V301.96H379.16V294.19H387.06V286.67H393.34V277.89H401.13V269.11H408.19H408.37H416.98V260.32H408.37V215.69H408.31V208.08H425.65V251.54H416.98V260.32H425.76V251.54H434.43V208.08V199.29H425.65H408.31H399.52Z" fill="#BDAC92"/>
<path d="M310 193V245.24H318.78V193H310Z" fill="#E5BF2B"/>
<path d="M318.66 245.25V254.03H327.44V245.25H318.66Z" fill="#E5BF2B"/>
<path d="M327.45 254.03V262.81H336.23V254.03H327.45Z" fill="#E5BF2B"/>
<path d="M336.11 193V209.39H344.89V193H336.11Z" fill="#E5BF2B"/>
<path d="M336.12 193H310V201.78H336.12V193Z" fill="#E5BF2B"/>
<path d="M419.85 193V245.24H428.63V193H419.85Z" fill="#E5BF2B"/>
<path d="M411.18 245.25V254.03H419.96V245.25H411.18Z" fill="#E5BF2B"/>
<path d="M402.4 254.04V262.82H411.18V254.04H402.4Z" fill="#E5BF2B"/>
<path d="M393.72 193.01V209.4H402.5V193.01H393.72Z" fill="#E5BF2B"/>
<path d="M402.51 201.78H428.63V193H402.51V201.78Z" fill="#E5BF2B"/>
<path d="M402.57 209.39H336.23V262.81H402.57V209.39Z" fill="#F6CE23"/>
<path d="M351.54 209.39H344.9V236.1H351.54V209.39Z" fill="#F9ED9D"/>
<path d="M351.54 243.06H344.9V249.7H351.54V243.06Z" fill="#F9ED9D"/>
<path d="M395.33 262.81H343.09V271.59H395.33V262.81Z" fill="#F6CE23"/>
<path d="M387.54 271.6H350.88V280.38H387.54V271.6Z" fill="#F6CE23"/>
<path d="M381.25 280.38H357.54V287.9H381.25V280.38Z" fill="#E5BF2B"/>
<path d="M381.25 312.81H357.54V320.33H381.25V312.81Z" fill="#E5BF2B"/>
<path d="M396.32 320.33H342.49V327.85H396.32V320.33Z" fill="#D4B331"/>
<path d="M373.36 287.9H365.45V312.81H373.36V287.9Z" fill="#DF871E"/>
<path d="M381.25 295.67H357.54V303.19H381.25V295.67Z" fill="#E5BF2B"/>
<path opacity="0.5" d="M495.28 192.66H529.86V176.73H517.88V151.6H529.86V135.66H495.28H485.96V127.3H258.41V135.66H249.09H214.79V151.6H226.78V176.73H214.79V192.66H249.09H258.41H258.69V192.47L280.98 177.3H463.39L485.96 192.66H495.28Z" fill="#BDAC92"/>
<path d="M524.07 145.3V129.37H480.17V186.37H524.07V170.44H512.08V145.3H524.07Z" fill="#BF2717"/>
<path d="M209 129.37V145.3H220.98V170.44H209V186.37H252.9V129.37H209Z" fill="#BF2717"/>
<path d="M480.17 186.37H489.48V129.37H480.17V186.37Z" fill="#9D2217"/>
<path d="M243.3 186.37H252.61V129.37H243.3V186.37Z" fill="#9D2217"/>
<path d="M252.61 186.37V171H275.18L252.61 186.37Z" fill="#7F1B12"/>
<path d="M480.17 186.37L457.6 171H480.17V186.37Z" fill="#7F1B12"/>
<path d="M480.17 121H252.61V171H480.17V121Z" fill="#E25F3F"/>
<path d="M480.17 162.64H252.61V171H480.17V162.64Z" fill="#CE4D34"/>
<path d="M480.17 121H252.61V129.36H480.17V121Z" fill="#E57654"/>
<path d="M323 140L327.32 150.92V155H332.12V150.92L336.44 140H331.14L329.8 145.28H329.62L328.3 140H323ZM336.918 147.52C336.918 146.147 337.031 144.967 337.258 143.98C337.498 142.98 337.891 142.16 338.438 141.52C338.998 140.88 339.731 140.407 340.638 140.1C341.544 139.793 342.664 139.64 343.998 139.64C345.344 139.64 346.464 139.793 347.358 140.1C348.264 140.407 348.991 140.88 349.538 141.52C350.098 142.16 350.491 142.98 350.718 143.98C350.958 144.967 351.078 146.147 351.078 147.52C351.078 148.827 350.971 149.973 350.758 150.96C350.544 151.933 350.164 152.747 349.618 153.4C349.084 154.053 348.358 154.547 347.438 154.88C346.531 155.2 345.384 155.36 343.998 155.36C342.611 155.36 341.458 155.2 340.538 154.88C339.631 154.547 338.904 154.053 338.358 153.4C337.824 152.747 337.451 151.933 337.238 150.96C337.024 149.973 336.918 148.827 336.918 147.52ZM342.078 145.02V151.26H344.078C344.744 151.26 345.218 151.187 345.498 151.04C345.791 150.88 345.938 150.527 345.938 149.98V143.74H343.918C343.278 143.74 342.811 143.82 342.518 143.98C342.224 144.127 342.078 144.473 342.078 145.02ZM352.395 140H357.195V151.26H358.895C359.508 151.26 359.921 151.18 360.135 151.02C360.361 150.86 360.475 150.513 360.475 149.98V140H365.275V148.42C365.275 149.7 365.188 150.78 365.015 151.66C364.855 152.54 364.535 153.26 364.055 153.82C363.588 154.367 362.935 154.76 362.095 155C361.255 155.24 360.168 155.36 358.835 155.36C357.501 155.36 356.415 155.24 355.575 155C354.735 154.76 354.075 154.367 353.595 153.82C353.128 153.273 352.808 152.56 352.635 151.68C352.475 150.787 352.395 149.7 352.395 148.42V140ZM385.642 148.38H385.502L383.782 140H380.122L378.382 148.38H378.242L377.122 140H372.102L374.462 155H380.722L381.802 149.48H382.082L383.182 155H389.462L391.802 140H386.782L385.642 148.38ZM397.809 155V140H393.009V155H397.809ZM413.536 155H409.016L405.356 149.68C405.289 149.587 405.236 149.447 405.196 149.26C405.156 149.073 405.129 148.827 405.116 148.52H405.016V155H400.216V140H404.736L408.396 145.32C408.462 145.413 408.516 145.553 408.556 145.74C408.596 145.927 408.622 146.173 408.636 146.48H408.736V140H413.536V155Z" fill="#7F1B12"/>
</svg>
