<svg width="152" height="21" viewBox="0 0 152 21" fill="none" xmlns="http://www.w3.org/2000/svg">
<path d="M15.9688 13.1064L18.0889 1.51562H22.5068L18.584 20H13.9629L11.4873 9.46289L9.0625 20H4.4541L0.518555 1.51562H4.94922L7.06934 13.1064L9.6084 1.51562H13.3916L15.9688 13.1064ZM23.1035 13.0049C23.1035 11.6338 23.3701 10.415 23.9033 9.34863C24.4365 8.27376 25.2025 7.44857 26.2012 6.87305C27.1999 6.29753 28.3721 6.00977 29.7178 6.00977C31.7744 6.00977 33.3952 6.64876 34.5801 7.92676C35.765 9.19629 36.3574 10.9271 36.3574 13.1191V13.2715C36.3574 15.4128 35.7607 17.1139 34.5674 18.375C33.3825 19.6276 31.7744 20.2539 29.7432 20.2539C27.7881 20.2539 26.2181 19.6699 25.0332 18.502C23.8483 17.3255 23.2093 15.7344 23.1162 13.7285L23.1035 13.0049ZM27.3818 13.2715C27.3818 14.541 27.5807 15.472 27.9785 16.0645C28.3763 16.6569 28.9645 16.9531 29.7432 16.9531C31.2666 16.9531 32.0452 15.7809 32.0791 13.4365V13.0049C32.0791 10.542 31.292 9.31055 29.7178 9.31055C28.2874 9.31055 27.513 10.3727 27.3945 12.4971L27.3818 13.2715ZM46.5518 10.1357L45.1426 10.0342C43.7969 10.0342 42.9336 10.4574 42.5527 11.3037V20H38.2744V6.26367H42.2861L42.4258 8.02832C43.1452 6.68262 44.1481 6.00977 45.4346 6.00977C45.8916 6.00977 46.2894 6.06055 46.6279 6.16211L46.5518 10.1357ZM53.6104 14.8838L52.4043 16.0898V20H48.126V0.487305H52.4043V10.8467L52.8359 10.2754L56.0605 6.26367H61.1895L56.3779 11.9131L61.5068 20H56.6064L53.6104 14.8838ZM73.3008 20H69.0098V6.26367H73.3008V20ZM68.7559 2.72168C68.7559 2.1123 68.9759 1.61296 69.416 1.22363C69.8561 0.83431 70.4274 0.639648 71.1299 0.639648C71.8324 0.639648 72.4036 0.83431 72.8438 1.22363C73.2839 1.61296 73.5039 2.1123 73.5039 2.72168C73.5039 3.33105 73.2839 3.8304 72.8438 4.21973C72.4036 4.60905 71.8324 4.80371 71.1299 4.80371C70.4274 4.80371 69.8561 4.60905 69.416 4.21973C68.9759 3.8304 68.7559 3.33105 68.7559 2.72168ZM79.877 6.26367L80.0166 7.87598C80.9645 6.63184 82.2721 6.00977 83.9395 6.00977C85.3698 6.00977 86.4362 6.43717 87.1387 7.29199C87.8496 8.14681 88.2178 9.43327 88.2432 11.1514V20H83.9521V11.3291C83.9521 10.6351 83.8125 10.1273 83.5332 9.80566C83.2539 9.47559 82.7461 9.31055 82.0098 9.31055C81.1719 9.31055 80.5498 9.64062 80.1436 10.3008V20H75.8652V6.26367H79.877ZM111.044 4.95605H105.496V20H101.04V4.95605H95.5938V1.51562H111.044V4.95605ZM118.242 20.2539C116.135 20.2539 114.429 19.6276 113.126 18.375C111.823 17.1139 111.171 15.4762 111.171 13.4619V13.1064C111.171 11.7015 111.429 10.4616 111.945 9.38672C112.47 8.31185 113.232 7.48242 114.23 6.89844C115.229 6.30599 116.414 6.00977 117.785 6.00977C119.715 6.00977 121.238 6.61068 122.355 7.8125C123.473 9.00586 124.031 10.6732 124.031 12.8145V14.4775H115.525C115.678 15.2477 116.012 15.8529 116.528 16.293C117.045 16.7331 117.713 16.9531 118.534 16.9531C119.888 16.9531 120.946 16.4792 121.708 15.5312L123.663 17.8418C123.13 18.5781 122.372 19.1663 121.391 19.6064C120.417 20.0381 119.368 20.2539 118.242 20.2539ZM117.76 9.31055C116.507 9.31055 115.762 10.14 115.525 11.7988H119.842V11.4688C119.859 10.7832 119.685 10.2542 119.321 9.88184C118.957 9.50098 118.437 9.31055 117.76 9.31055ZM131.572 16.9531C132.173 16.9531 132.639 16.7923 132.969 16.4707C133.299 16.1406 133.46 15.6836 133.451 15.0996H137.463C137.463 16.6061 136.921 17.8418 135.838 18.8066C134.763 19.7715 133.375 20.2539 131.674 20.2539C129.676 20.2539 128.102 19.6276 126.951 18.375C125.8 17.1224 125.225 15.3874 125.225 13.1699V12.9922C125.225 11.6042 125.479 10.3812 125.986 9.32324C126.503 8.25684 127.243 7.4401 128.208 6.87305C129.173 6.29753 130.315 6.00977 131.636 6.00977C133.422 6.00977 134.839 6.50488 135.889 7.49512C136.938 8.48535 137.463 9.82682 137.463 11.5195H133.451C133.451 10.8086 133.278 10.2627 132.931 9.88184C132.584 9.50098 132.118 9.31055 131.534 9.31055C130.425 9.31055 129.778 10.0173 129.592 11.4307C129.533 11.8792 129.503 12.4971 129.503 13.2842C129.503 14.6637 129.668 15.6201 129.998 16.1533C130.328 16.6865 130.853 16.9531 131.572 16.9531ZM143.455 7.73633C144.369 6.58529 145.537 6.00977 146.959 6.00977C148.474 6.00977 149.617 6.45833 150.387 7.35547C151.157 8.2526 151.55 9.57715 151.567 11.3291V20H147.276V11.4307C147.276 10.7028 147.128 10.1696 146.832 9.83105C146.536 9.48405 146.032 9.31055 145.321 9.31055C144.441 9.31055 143.819 9.58984 143.455 10.1484V20H139.177V0.5H143.455V7.73633Z" fill="#F12117"/>
</svg>
